<svg width="360" height="450" viewBox="0 0 360 450" fill="none" xmlns="http://www.w3.org/2000/svg">
<g filter="url(#filter0_i_63_3384)">
<path d="M175.115 293.996C297.879 185.781 350.754 323.493 342.876 317.366C273.822 243.581 296.949 405.11 207.764 367.731L175.115 293.996Z" fill="#FF7F00" stroke="black" stroke-width="6"/>
<mask id="mask0_63_3384" style="mask-type:alpha" maskUnits="userSpaceOnUse" x="180" y="255" width="156" height="115">
<path d="M180.607 295.497C281.883 197.789 342.322 310.242 334.976 304.529C269.322 257.931 290.851 396.649 211.008 364.304L180.607 295.497Z" fill="#FF7F00"/>
</mask>
<g mask="url(#mask0_63_3384)">
<path d="M368.116 263.25C235.38 246.358 252.048 319.154 254.374 311.754C287.268 272.464 332.352 369.607 373.83 306.594L368.116 263.25Z" fill="#FEC792"/>
<path d="M384.387 272.929C251.652 256.038 268.32 328.833 270.645 321.433C303.539 282.144 348.623 379.286 390.101 316.274L384.387 272.929Z" fill="#FEC792"/>
<path d="M367.188 235.753C234.453 218.862 251.121 291.657 253.447 284.257C286.34 244.968 331.425 342.11 372.903 279.098L367.188 235.753Z" fill="#FEC792"/>
</g>
</g>
<path d="M71.7345 288.385C77.2649 272.757 85.7669 266.92 104.108 258.232L110.041 257.339C105.37 282.375 101.496 288.848 88.1875 319.5C78.5226 323.377 76.2556 326.179 67.1875 325C51.8892 318.867 43.6438 316.155 30.5956 285.322C21.1302 286.947 5.05467 279.014 3.76435 276.872C-3.55774 270.264 12.0796 250.079 46.9241 261.275C61.6878 266 66.3681 273.3 71.7345 288.385Z" fill="#FF7F00" stroke="black" stroke-width="4"/>
<mask id="mask1_63_3384" style="mask-type:alpha" maskUnits="userSpaceOnUse" x="4" y="259" width="66" height="54">
<path d="M48.6874 264C63.4511 268.724 64.3214 274.914 69.6877 290C63.2087 290.152 64.6877 345 32.1877 283.5C22.7223 285.125 8.2774 278.386 6.18769 276.5C-2.31262 271 15.1875 251.5 48.6874 264Z" fill="#FF7F00"/>
</mask>
<g mask="url(#mask1_63_3384)">
<circle cx="13.6875" cy="272" r="24" fill="#882E15"/>
</g>
<path d="M238.16 288.385C232.63 272.757 224.128 266.92 205.787 258.232L199.853 257.339C204.525 282.375 208.398 288.848 221.707 319.5C231.372 323.377 233.639 326.179 242.707 325C258.005 318.867 266.251 316.155 279.299 285.322C288.764 286.947 304.84 279.014 306.13 276.872C313.452 270.264 297.815 250.079 262.97 261.275C248.207 266 243.526 273.3 238.16 288.385Z" fill="#FF7F00" stroke="black" stroke-width="4"/>
<mask id="mask2_63_3384" style="mask-type:alpha" maskUnits="userSpaceOnUse" x="240" y="259" width="66" height="54">
<path d="M261.207 264C246.443 268.724 245.573 274.914 240.207 290C246.686 290.152 245.207 345 277.707 283.5C287.172 285.125 301.617 278.386 303.707 276.5C312.207 271 294.707 251.5 261.207 264Z" fill="#FF7F00"/>
</mask>
<g mask="url(#mask2_63_3384)">
<circle cx="24" cy="24" r="24" transform="matrix(-1 0 0 1 320.207 248)" fill="#882E15"/>
</g>
<path d="M92.957 364.274C66.7438 319.025 104.454 319.948 104.454 259L204.246 259C222.641 323.18 239.196 331.492 217.123 364.274C214.33 388.761 212.387 402.526 199.648 427.993C185.64 432.341 177.786 432.843 163.778 427.993C157.986 416.473 157.064 404.425 155.5 382.744C152.8 411.917 150.906 424.21 145.843 427.993C133.433 433.05 126.159 433.613 112.272 427.993C100.069 407.194 96.222 392.907 92.957 364.274Z" fill="#FF7F00" stroke="black" stroke-width="5" stroke-linejoin="round"/>
<path d="M200.418 307.137C211.39 341.288 180.322 360 155.533 360C130.744 360 97.1823 343.627 107.656 307.137C107.656 276.134 130.744 251 155.533 251C180.322 251 200.418 276.134 200.418 307.137Z" fill="#FFD4A9"/>
<path d="M123.688 374C124.668 374.492 125.594 374.949 126.585 375.413C135.276 379.505 144.772 382.626 154.688 382.622C164.611 382.676 174.113 379.504 182.79 375.41C183.779 374.946 184.709 374.489 185.688 374C184.636 374.303 183.64 374.582 182.591 374.876C173.338 377.456 164.043 379.679 154.694 379.622C145.344 379.631 136.041 377.453 126.783 374.879C125.733 374.584 124.741 374.306 123.688 374Z" fill="black"/>
<g filter="url(#filter1_i_63_3384)">
<path d="M112.563 440.85C107.784 438.864 103.985 425.55 107.507 422.797C111.03 420.044 117.437 423.114 117.437 423.114C125.762 418.164 130.479 418.723 138.951 423.802C138.951 423.802 146.435 421.507 148.219 424.098C150.004 426.69 148.672 430.881 147.902 434.028C145.716 439.512 144.012 441.805 138.38 441.675L112.563 440.85Z" fill="#882E15" stroke="black" stroke-width="4" stroke-linejoin="round"/>
<path d="M121.116 427.476C116.883 431.962 115.014 433.943 119.749 440.632C122.439 439.393 115.657 433.875 121.165 427.424L121.116 427.476Z" stroke="black" stroke-width="2" stroke-linejoin="round"/>
<path d="M133.115 427.859C137.053 432.607 138.792 434.703 133.64 441.076C131.034 439.668 138.154 434.594 133.07 427.805L133.115 427.859Z" stroke="black" stroke-width="2" stroke-linejoin="round"/>
</g>
<g filter="url(#filter2_i_63_3384)">
<path d="M168.563 440.85C163.784 438.864 159.985 425.55 163.507 422.797C167.03 420.044 173.437 423.114 173.437 423.114C181.762 418.164 186.479 418.723 194.951 423.802C194.951 423.802 202.435 421.507 204.219 424.098C206.004 426.69 204.672 430.881 203.902 434.028C201.716 439.512 200.012 441.805 194.38 441.675L168.563 440.85Z" fill="#882E15" stroke="black" stroke-width="4" stroke-linejoin="round"/>
<path d="M177.116 427.476C172.883 431.962 171.014 433.943 175.749 440.632C178.439 439.393 171.657 433.875 177.165 427.424L177.116 427.476Z" stroke="black" stroke-width="2" stroke-linejoin="round"/>
<path d="M189.115 427.859C193.053 432.607 194.792 434.703 189.64 441.076C187.034 439.668 194.154 434.594 189.07 427.805L189.115 427.859Z" stroke="black" stroke-width="2" stroke-linejoin="round"/>
</g>
<path opacity="0.2" d="M216.014 253.233C213.212 259.936 186.08 282.957 152.072 278.958C118.065 274.959 95.8356 260.563 96.2226 257.272C96.6096 253.981 125.548 273.326 153.474 267.04C175.529 272.135 216.401 249.942 216.014 253.233Z" fill="black"/>
<g filter="url(#filter3_d_63_3384)">
<path d="M144.938 242.071C103.387 279.855 130.975 294.43 129.267 291.664C125.803 270.416 168.848 282.569 160.216 252.094L144.938 242.071Z" fill="#FEBB7A"/>
<path d="M162.719 242.477C204.257 279.988 176.664 294.745 178.373 291.967C181.845 270.697 138.795 283.133 147.437 252.601L162.719 242.477Z" fill="#FEBB7A"/>
<path d="M165.901 258.579C180.929 306.635 156.669 298.476 140.658 316.724C152.544 285.272 118.291 276.43 145.914 250.721L165.901 258.579Z" fill="#FEBB7A"/>
<path d="M157.673 223.002C81.701 257.29 114.024 290.69 112.874 285.984C117.686 254.291 172.956 291.413 174.681 244.263L157.673 223.002Z" fill="#FEBB7A"/>
<path d="M163.458 235.402C224.103 260.555 199.237 287.739 200.053 283.994C195.636 259.095 152.727 289.795 150.445 252.616L163.458 235.402Z" fill="#FEBB7A"/>
<path d="M157.007 221.115C157.803 220.834 158.699 221.084 159.234 221.753L171.092 236.575C196.263 248.338 204.668 260.542 206.168 270.228C206.976 275.448 205.727 279.711 204.289 282.448C203.584 283.791 202.784 284.859 202.07 285.5C201.887 285.665 201.666 285.84 201.418 285.986C201.222 286.1 200.766 286.344 200.167 286.341C199.826 286.34 199.388 286.257 198.971 285.973C198.548 285.686 198.301 285.296 198.172 284.948C198.057 284.635 198.029 284.337 198.035 284.091C197.525 281.441 196.55 279.666 195.326 278.429C194.051 277.142 192.365 276.294 190.261 275.752C189.39 275.528 188.463 275.363 187.485 275.238C187.923 278.005 187.858 280.488 187.448 282.696C186.612 287.191 184.374 290.318 182.409 292.146C181.449 293.039 180.476 293.695 179.678 294.025C179.472 294.11 179.226 294.195 178.958 294.246C178.751 294.286 178.251 294.363 177.695 294.163C177.378 294.049 176.998 293.827 176.703 293.424C176.404 293.017 176.301 292.573 176.295 292.208C176.291 291.892 176.355 291.616 176.436 291.396C176.758 289.186 176.48 287.55 175.878 286.274C175.246 284.936 174.175 283.81 172.67 282.795C172.653 282.783 172.635 282.772 172.618 282.76C172.626 283.713 172.601 284.626 172.544 285.502C172.102 292.243 169.785 296.758 166.34 300.237C163.018 303.591 158.656 305.941 154.492 308.417C150.24 310.946 145.948 313.727 142.162 318.043C141.524 318.77 140.458 318.937 139.629 318.439C138.8 317.941 138.446 316.922 138.788 316.017C144.413 301.13 139.209 291.813 135.52 282.291C135.501 282.241 135.482 282.191 135.463 282.141C135.299 282.244 135.138 282.349 134.981 282.456C133.474 283.482 132.399 284.618 131.766 285.964C131.161 287.248 130.882 288.888 131.205 291.096C131.284 291.316 131.349 291.59 131.344 291.904C131.338 292.27 131.236 292.711 130.94 293.117C130.648 293.517 130.272 293.74 129.957 293.855C129.403 294.058 128.903 293.985 128.694 293.947C128.426 293.898 128.178 293.813 127.972 293.729C127.172 293.404 126.198 292.753 125.236 291.864C123.269 290.046 121.029 286.931 120.195 282.439C119.885 280.773 119.774 278.948 119.926 276.962C119.337 277.39 118.794 277.865 118.3 278.393C116.691 280.111 115.468 282.522 114.895 286.015C114.914 286.284 114.899 286.612 114.781 286.959C114.659 287.316 114.42 287.716 114.003 288.018C113.592 288.316 113.152 288.415 112.803 288.428C112.187 288.45 111.701 288.213 111.475 288.09C111.196 287.938 110.941 287.749 110.72 287.561C109.856 286.83 108.845 285.563 107.93 283.926C106.069 280.601 104.389 275.367 105.231 268.859C106.926 255.766 118.649 238.419 156.85 221.179L157.007 221.115ZM127.526 292.647L127.565 292.715C127.549 292.688 127.535 292.659 127.519 292.631C127.522 292.637 127.524 292.642 127.526 292.647ZM110.918 286.392L110.931 286.458L110.917 286.388C110.917 286.389 110.918 286.391 110.918 286.392Z" stroke="black" stroke-width="4" stroke-linejoin="round"/>
</g>
<path d="M49.329 26.4314C49.329 26.4314 17.3743 49.8599 49.8326 146.31C46.1957 161.294 43.6701 176.653 47.0309 187.264C72.5447 267.818 277.048 226.961 267.831 180.503C267.651 171.808 268.733 169.166 260.001 144.341C283.905 58.2293 280.379 37.2975 258.387 25.3383C229.499 34.6207 216.267 44.8712 195.062 67.2296C163.068 59.839 145.399 58.9671 114.616 66.3288C114.616 66.3288 66.066 16.8202 49.329 26.4314Z" fill="#FF7F00"/>
<mask id="mask3_63_3384" style="mask-type:alpha" maskUnits="userSpaceOnUse" x="35" y="25" width="242" height="209">
<path d="M49.329 26.4314C49.329 26.4314 17.3743 49.8599 49.8326 146.31C46.1957 161.294 43.6701 176.653 47.0309 187.264C72.5447 267.818 277.048 226.961 267.831 180.503C267.651 171.808 268.733 169.166 260.001 144.341C283.905 58.2293 280.379 37.2975 258.387 25.3383C229.499 34.6207 216.267 44.8712 195.062 67.2296C163.068 59.839 145.399 58.9671 114.616 66.3288C114.616 66.3288 66.066 16.8202 49.329 26.4314Z" fill="#FF7F00"/>
</mask>
<g mask="url(#mask3_63_3384)">
<path d="M65.2524 71.0966L38.1746 74.4574C34.5969 37.4529 41.4504 33.4591 53.4488 25.909C64.8106 25.1586 69.8989 28.1468 77.8984 36.3356C81.3838 39.8205 82.1726 42.1891 82.1929 46.9095C75.243 41.6033 72.5341 40.7732 70.012 43.4634L65.2524 71.0966Z" fill="#8E340F"/>
<path d="M244.081 70.1942L271.653 79.7599C279.132 46.1228 275.965 39.1045 266.045 28.9771C255.167 25.6116 249.525 27.338 239.844 33.4478C235.645 36.0291 234.328 38.1502 233.214 42.7371C241.205 39.1878 244.032 39.0087 245.862 42.2106L244.081 70.1942Z" fill="#8E340F"/>
</g>
<g filter="url(#filter4_i_63_3384)">
<path d="M33.3605 183.642C35.7974 182.673 38.1648 183.194 57.4009 188.986C81.0593 204.057 99.8063 208.457 154.73 200.431C190.498 204.946 203.63 218.304 265.057 182.694L276.42 184.533C276.863 194.425 274.162 199.831 264.678 207.318C271.184 206.369 273.674 206.59 275.603 208.603C270.853 224.178 266.237 231.615 245.021 233.2C169.069 286.977 138.463 281.992 65.67 234.262C35.8708 227.258 32.7705 220.087 34.4719 208.442L44.0237 208.558C37.2006 200.124 33.7048 193.938 33.3605 183.642Z" fill="#FEC792"/>
</g>
<path d="M191.005 131.472C225.712 128.881 239.977 182.86 206.286 199.057C168.902 204.62 154.97 144.795 191.005 131.472Z" fill="#242424"/>
<g filter="url(#filter5_d_63_3384)">
<path d="M188.669 143.61C206.916 146.566 212.211 165.488 195.492 175.017C176.046 171.48 176.349 155.556 188.669 143.61Z" fill="#F4F3F3"/>
</g>
<g filter="url(#filter6_i_63_3384)">
<path d="M209.572 177.117C216.866 178.298 218.982 185.862 212.3 189.671C204.526 188.257 204.647 181.892 209.572 177.117Z" fill="#3E3E3E"/>
</g>
<g filter="url(#filter7_d_63_3384)">
<path d="M184.783 123.655C194.681 125.619 220.672 127.307 220.417 111.102C217.583 109.533 219.122 109.799 215.577 110.892C212.301 112.111 207.674 113.704 204.273 114.031C196.553 114.771 185.597 110.449 178.903 114.575L178.48 116.774C180.1 120.551 181.62 121.24 184.783 123.655Z" fill="#FEC792"/>
</g>
<path d="M120.48 131.09C86.2447 124.824 66.3227 176.981 98.1016 196.668C134.682 206.173 154.895 148.167 120.48 131.09Z" fill="#242424"/>
<g filter="url(#filter8_d_63_3384)">
<path d="M124.773 139.108C107.242 140.058 100.331 157.393 115.158 168.081C133.88 166.704 135.201 151.634 124.773 139.108Z" fill="#F4F3F3"/>
</g>
<g filter="url(#filter9_i_63_3384)">
<path d="M96.1191 174.247C87.8341 174.696 84.5681 182.888 91.5751 187.939C100.423 187.288 101.048 180.166 96.1191 174.247Z" fill="#3E3E3E"/>
</g>
<g filter="url(#filter10_d_63_3384)">
<path d="M124.792 104.04C115.159 101.035 89.4942 96.5939 88.0255 112.735C90.6768 114.595 89.1748 114.168 92.816 113.457C96.2025 112.594 100.973 111.502 104.39 111.538C112.144 111.623 122.579 117.085 129.673 113.694L130.328 111.552C129.119 107.625 127.681 106.777 124.792 104.04Z" fill="#FEC792"/>
</g>
<path d="M49.329 26.4314C49.329 26.4314 17.3743 49.8599 49.8326 146.31C46.0272 159.371 44.2447 166.925 43.1455 181.772C38.8255 180.424 36.1559 180.537 30.9941 182.357C29.8183 188.612 32.0686 194.082 38.3564 205.374C35.4851 205.136 34.0436 205.469 32.0471 207.653C32.1677 224.718 43.6762 229.389 65.3194 237.241C137.464 281.599 177.058 280.801 246.219 235.858C268.651 231.185 274.391 224.054 278.758 207.463C276.724 205.335 275.148 204.584 271.046 204.543C277.626 196.762 279.123 191.696 279.253 181.846C275.003 181.747 272.753 181.956 267.831 180.503C267.651 171.808 268.733 169.166 260.001 144.341C283.905 58.2293 280.379 37.2975 258.387 25.3383C229.499 34.6207 216.267 44.8712 195.062 67.2296C163.068 59.839 145.399 58.9671 114.616 66.3288C114.616 66.3288 66.066 16.8202 49.329 26.4314Z" stroke="black" stroke-width="6"/>
<path d="M200.415 221.081C200.344 221.576 200.273 222.071 200.202 222.566C199.422 222.623 198.669 222.666 197.94 222.698C194.934 222.813 192.016 222.678 189.101 222.364C184.075 221.892 178.94 221.226 175.14 223.514C171.257 225.891 167.942 230.221 164.316 233.878C163.795 234.423 163.3 234.93 162.76 235.484C162.378 235.161 161.996 234.839 161.614 234.516C162.066 233.894 162.477 233.32 162.916 232.712C166.05 228.575 168.564 224.071 173.288 220.597C178.432 217.132 184.445 217.958 189.526 218.387C192.537 218.711 195.411 219.38 198.276 220.322C198.97 220.554 199.682 220.808 200.415 221.081Z" fill="#242424"/>
<ellipse cx="155.574" cy="200.105" rx="15" ry="8" transform="rotate(4.47551 155.574 200.105)" fill="#242424"/>
<path d="M53.216 45.0125C43.6064 53.9515 57.2818 143.159 60.9032 129.488C64.5245 115.817 88.9421 79.42 98.7275 77.55C107.286 68.9909 62.8257 36.0735 53.216 45.0125Z" fill="#FEC792" stroke="black" stroke-width="6"/>
<path d="M258.798 43.5104C270.862 47.9498 253.567 140.144 249.009 126.756C244.452 113.368 224.504 77.9475 214.613 76.7585C205.484 68.8116 246.734 39.071 258.798 43.5104Z" fill="#FEC792" stroke="black" stroke-width="6"/>
<path d="M61.2936 74.7946C67.7058 64.9538 72.6283 61.0305 89.7438 64.0435L98.4649 75.5053L67.6633 106.254C66.4042 94.1708 65.1502 87.3394 75.1978 76.4295C70.0658 73.2561 66.9731 73.311 61.2936 74.7946Z" fill="#FF7F00" stroke="black" stroke-width="5" stroke-linejoin="round"/>
<path d="M250.986 79.9829C247.031 68.9231 243.153 63.965 225.805 62.9256L214.663 72.0518C224.852 81.9934 232.272 87.1011 242.269 107.015C246.297 95.5536 244.324 91.291 237.081 78.3479C242.81 76.4515 245.805 77.2224 250.986 79.9829Z" fill="#FF7F00" stroke="black" stroke-width="5" stroke-linejoin="round"/>
<mask id="path-44-outside-1_63_3384" maskUnits="userSpaceOnUse" x="293.9" y="73.1235" width="70.2851" height="95.054" fill="black">
<rect fill="white" x="293.9" y="73.1235" width="70.2851" height="95.054"/>
<path d="M341.693 126.945C341.452 127.064 338.615 128.437 333.183 131.064C329.715 132.714 327.015 134.315 325.083 135.867C323.336 137.26 321.568 137.81 319.779 137.518C318.021 137.231 316.582 136.346 315.463 134.865C314.348 133.353 313.927 131.764 314.199 130.099C314.603 127.632 317.043 125.197 321.52 122.793C325.614 120.803 329.71 118.796 333.808 116.775C338.281 114.402 340.716 111.998 341.114 109.562C341.583 106.693 340.556 103.771 338.035 100.794C335.549 97.7912 332.733 96.0328 329.587 95.5187C327.922 95.2465 325.483 95.8297 322.272 97.268C319.065 98.6756 316.861 99.2811 315.658 99.0845C313.838 98.7871 312.405 97.8721 311.357 96.3393C310.345 94.7807 309.973 93.1841 310.24 91.5495C310.744 88.4654 313.903 86.0845 319.719 84.4067C324.641 82.9629 328.614 82.488 331.636 82.9819C338.328 84.0756 343.97 87.5307 348.561 93.3472C353.182 99.1688 354.972 105.272 353.928 111.656C352.895 117.978 348.817 123.075 341.693 126.945ZM314.052 156.578C312.294 156.291 310.781 155.474 309.513 154.126C308.142 152.636 307.605 150.981 307.902 149.161C308.245 147.064 309.179 145.222 310.705 143.635C312.543 141.687 314.711 140.917 317.209 141.325C319.307 141.668 320.813 142.721 321.728 144.486C322.441 145.932 322.654 147.535 322.367 149.293C322.06 151.174 321.263 152.849 319.979 154.317C318.34 156.202 316.365 156.956 314.052 156.578Z"/>
</mask>
<path d="M341.693 126.945C341.452 127.064 338.615 128.437 333.183 131.064C329.715 132.714 327.015 134.315 325.083 135.867C323.336 137.26 321.568 137.81 319.779 137.518C318.021 137.231 316.582 136.346 315.463 134.865C314.348 133.353 313.927 131.764 314.199 130.099C314.603 127.632 317.043 125.197 321.52 122.793C325.614 120.803 329.71 118.796 333.808 116.775C338.281 114.402 340.716 111.998 341.114 109.562C341.583 106.693 340.556 103.771 338.035 100.794C335.549 97.7912 332.733 96.0328 329.587 95.5187C327.922 95.2465 325.483 95.8297 322.272 97.268C319.065 98.6756 316.861 99.2811 315.658 99.0845C313.838 98.7871 312.405 97.8721 311.357 96.3393C310.345 94.7807 309.973 93.1841 310.24 91.5495C310.744 88.4654 313.903 86.0845 319.719 84.4067C324.641 82.9629 328.614 82.488 331.636 82.9819C338.328 84.0756 343.97 87.5307 348.561 93.3472C353.182 99.1688 354.972 105.272 353.928 111.656C352.895 117.978 348.817 123.075 341.693 126.945ZM314.052 156.578C312.294 156.291 310.781 155.474 309.513 154.126C308.142 152.636 307.605 150.981 307.902 149.161C308.245 147.064 309.179 145.222 310.705 143.635C312.543 141.687 314.711 140.917 317.209 141.325C319.307 141.668 320.813 142.721 321.728 144.486C322.441 145.932 322.654 147.535 322.367 149.293C322.06 151.174 321.263 152.849 319.979 154.317C318.34 156.202 316.365 156.956 314.052 156.578Z" fill="#FFBF00"/>
<path d="M341.693 126.945L343.905 131.429L343.993 131.386L344.08 131.338L341.693 126.945ZM333.183 131.064L335.331 135.579L335.345 135.572L335.36 135.565L333.183 131.064ZM325.083 135.867L328.2 139.778L328.207 139.771L328.215 139.765L325.083 135.867ZM315.463 134.865L311.438 137.832L311.456 137.856L311.474 137.88L315.463 134.865ZM321.52 122.793L319.333 118.297L319.244 118.341L319.156 118.388L321.52 122.793ZM333.808 116.775L336.02 121.259L336.086 121.226L336.151 121.192L333.808 116.775ZM338.035 100.794L334.183 103.982L334.201 104.004L334.219 104.026L338.035 100.794ZM322.272 97.268L324.282 101.846L324.299 101.839L324.316 101.831L322.272 97.268ZM311.357 96.3393L307.163 99.0619L307.196 99.1118L307.229 99.1609L311.357 96.3393ZM319.719 84.4067L321.105 89.2107L321.116 89.2077L321.126 89.2046L319.719 84.4067ZM348.561 93.3472L344.636 96.4449L344.64 96.4505L344.645 96.456L348.561 93.3472ZM309.513 154.126L305.833 157.512L305.852 157.533L305.872 157.554L309.513 154.126ZM310.705 143.635L314.309 147.1L314.325 147.083L314.341 147.066L310.705 143.635ZM321.728 144.486L326.212 142.274L326.189 142.229L326.166 142.184L321.728 144.486ZM319.979 154.317L316.216 151.024L316.21 151.031L316.204 151.038L319.979 154.317ZM341.693 126.945L339.481 122.461C339.481 122.461 339.48 122.461 339.477 122.463C339.474 122.464 339.47 122.466 339.466 122.468C339.456 122.473 339.443 122.48 339.426 122.488C339.394 122.503 339.35 122.525 339.296 122.551C339.187 122.604 339.036 122.677 338.845 122.77C338.461 122.956 337.915 123.22 337.206 123.563C335.789 124.249 333.722 125.249 331.006 126.563L333.183 131.064L335.36 135.565C340.772 132.948 343.64 131.56 343.905 131.429L341.693 126.945ZM333.183 131.064L331.035 126.549C327.385 128.285 324.304 130.08 321.951 131.97L325.083 135.867L328.215 139.765C329.727 138.55 332.045 137.142 335.331 135.579L333.183 131.064ZM325.083 135.867L321.967 131.957C321.047 132.691 320.665 132.596 320.585 132.583L319.779 137.518L318.973 142.452C322.47 143.024 325.625 141.829 328.2 139.778L325.083 135.867ZM319.779 137.518L320.585 132.583C320.154 132.513 319.833 132.355 319.452 131.85L315.463 134.865L311.474 137.88C313.332 140.338 315.888 141.948 318.973 142.452L319.779 137.518ZM315.463 134.865L319.488 131.899C319.073 131.336 319.104 131.085 319.134 130.905L314.199 130.099L309.265 129.293C308.75 132.443 309.624 135.371 311.438 137.832L315.463 134.865ZM314.199 130.099L319.134 130.905C319.113 131.034 319.111 130.712 319.864 129.961C320.618 129.209 321.892 128.268 323.885 127.199L321.52 122.793L319.156 118.388C316.671 119.722 314.486 121.2 312.8 122.883C311.112 124.567 309.689 126.697 309.265 129.293L314.199 130.099ZM321.52 122.793L323.707 127.29C327.809 125.295 331.913 123.285 336.02 121.259L333.808 116.775L331.596 112.29C327.506 114.308 323.418 116.31 319.333 118.297L321.52 122.793ZM333.808 116.775L336.151 121.192C338.632 119.876 340.815 118.415 342.502 116.75C344.189 115.085 345.624 112.966 346.048 110.368L341.114 109.562L336.179 108.755C336.206 108.594 336.224 108.895 335.476 109.634C334.727 110.373 333.457 111.301 331.465 112.357L333.808 116.775ZM341.114 109.562L346.048 110.368C346.827 105.603 344.975 101.252 341.85 97.5621L338.035 100.794L334.219 104.026C336.137 106.29 336.338 107.784 336.179 108.755L341.114 109.562ZM338.035 100.794L341.886 97.6055C338.809 93.8882 334.983 91.3341 330.394 90.5842L329.587 95.5187L328.781 100.453C330.483 100.731 332.289 101.694 334.183 103.982L338.035 100.794ZM329.587 95.5187L330.394 90.5842C327.168 90.057 323.549 91.2174 320.228 92.7048L322.272 97.268L324.316 101.831C325.742 101.193 326.849 100.812 327.672 100.615C328.531 100.409 328.84 100.463 328.781 100.453L329.587 95.5187ZM322.272 97.268L320.262 92.6897C318.778 93.3414 317.669 93.7422 316.889 93.9563C316.504 94.0622 316.267 94.1034 316.152 94.1172C316.019 94.1332 316.155 94.0995 316.464 94.15L315.658 99.0845L314.852 104.019C316.542 104.295 318.245 103.954 319.538 103.599C320.962 103.208 322.56 102.602 324.282 101.846L322.272 97.268ZM315.658 99.0845L316.464 94.15C316.005 94.0749 315.767 93.9306 315.485 93.5177L311.357 96.3393L307.229 99.1609C309.042 101.814 311.672 103.499 314.852 104.019L315.658 99.0845ZM311.357 96.3393L315.551 93.6166C315.127 92.9643 315.133 92.6107 315.174 92.3559L310.24 91.5495L305.305 90.7431C304.813 93.7574 305.563 96.5971 307.163 99.0619L311.357 96.3393ZM310.24 91.5495L315.174 92.3559C315.179 92.3297 315.189 92.2721 315.269 92.1525C315.36 92.0167 315.565 91.769 315.997 91.444C316.902 90.7615 318.505 89.9608 321.105 89.2107L319.719 84.4067L318.333 79.6026C315.117 80.5304 312.233 81.759 309.979 83.4575C307.656 85.2074 305.816 87.6166 305.305 90.7431L310.24 91.5495ZM319.719 84.4067L321.126 89.2046C325.753 87.8473 328.884 87.5985 330.83 87.9164L331.636 82.9819L332.442 78.0473C328.343 77.3775 323.529 78.0785 318.312 79.6088L319.719 84.4067ZM331.636 82.9819L330.83 87.9164C336.171 88.7893 340.741 91.5099 344.636 96.4449L348.561 93.3472L352.486 90.2495C347.199 83.5514 340.486 79.3618 332.442 78.0473L331.636 82.9819ZM348.561 93.3472L344.645 96.456C348.534 101.355 349.775 106.068 348.994 110.849L353.928 111.656L358.863 112.462C360.168 104.475 357.831 96.9821 352.477 90.2384L348.561 93.3472ZM353.928 111.656L348.994 110.849C348.274 115.251 345.468 119.204 339.306 122.552L341.693 126.945L344.08 131.338C352.166 126.945 357.516 120.705 358.863 112.462L353.928 111.656ZM314.052 156.578L314.858 151.644C314.229 151.541 313.7 151.279 313.154 150.699L309.513 154.126L305.872 157.554C307.862 159.668 310.359 161.041 313.245 161.513L314.052 156.578ZM309.513 154.126L313.193 150.741C312.915 150.439 312.851 150.264 312.838 150.224C312.83 150.199 312.808 150.139 312.837 149.967L307.902 149.161L302.967 148.355C302.396 151.853 303.539 155.018 305.833 157.512L309.513 154.126ZM307.902 149.161L312.837 149.967C313.01 148.909 313.459 147.984 314.309 147.1L310.705 143.635L307.101 140.169C304.899 142.459 303.48 145.219 302.967 148.355L307.902 149.161ZM310.705 143.635L314.341 147.066C315.119 146.243 315.654 146.137 316.403 146.26L317.209 141.325L318.016 136.391C313.769 135.697 309.968 137.131 307.069 140.203L310.705 143.635ZM317.209 141.325L316.403 146.26C316.826 146.329 316.997 146.435 317.046 146.469C317.084 146.496 317.172 146.562 317.289 146.788L321.728 144.486L326.166 142.184C324.468 138.909 321.546 136.968 318.016 136.391L317.209 141.325ZM321.728 144.486L317.243 146.698C317.448 147.112 317.57 147.644 317.432 148.486L322.367 149.293L327.302 150.099C327.738 147.425 327.434 144.752 326.212 142.274L321.728 144.486ZM322.367 149.293L317.432 148.486C317.279 149.423 316.901 150.241 316.216 151.024L319.979 154.317L323.741 157.61C325.626 155.456 326.84 152.925 327.302 150.099L322.367 149.293ZM319.979 154.317L316.204 151.038C315.827 151.472 315.577 151.59 315.486 151.625C315.41 151.654 315.241 151.706 314.858 151.644L314.052 156.578L313.245 161.513C317.401 162.192 321.068 160.686 323.753 157.596L319.979 154.317Z" fill="black" mask="url(#path-44-outside-1_63_3384)"/>
<ellipse opacity="0.4" cx="155.688" cy="444.5" rx="78" ry="5.5" fill="black"/>
<defs>
<filter id="filter0_i_63_3384" x="171.481" y="249.375" width="175.158" height="127.055" filterUnits="userSpaceOnUse" color-interpolation-filters="sRGB">
<feFlood flood-opacity="0" result="BackgroundImageFix"/>
<feBlend mode="normal" in="SourceGraphic" in2="BackgroundImageFix" result="shape"/>
<feColorMatrix in="SourceAlpha" type="matrix" values="0 0 0 0 0 0 0 0 0 0 0 0 0 0 0 0 0 0 127 0" result="hardAlpha"/>
<feOffset dx="-7" dy="-19"/>
<feComposite in2="hardAlpha" operator="arithmetic" k2="-1" k3="1"/>
<feColorMatrix type="matrix" values="0 0 0 0 0 0 0 0 0 0 0 0 0 0 0 0 0 0 0.25 0"/>
<feBlend mode="normal" in2="shape" result="effect1_innerShadow_63_3384"/>
</filter>
<filter id="filter1_i_63_3384" x="104.131" y="417.683" width="46.9756" height="25.9979" filterUnits="userSpaceOnUse" color-interpolation-filters="sRGB">
<feFlood flood-opacity="0" result="BackgroundImageFix"/>
<feBlend mode="normal" in="SourceGraphic" in2="BackgroundImageFix" result="shape"/>
<feColorMatrix in="SourceAlpha" type="matrix" values="0 0 0 0 0 0 0 0 0 0 0 0 0 0 0 0 0 0 127 0" result="hardAlpha"/>
<feOffset dy="-9"/>
<feComposite in2="hardAlpha" operator="arithmetic" k2="-1" k3="1"/>
<feColorMatrix type="matrix" values="0 0 0 0 0 0 0 0 0 0 0 0 0 0 0 0 0 0 0.25 0"/>
<feBlend mode="normal" in2="shape" result="effect1_innerShadow_63_3384"/>
</filter>
<filter id="filter2_i_63_3384" x="160.131" y="417.683" width="46.9756" height="25.9979" filterUnits="userSpaceOnUse" color-interpolation-filters="sRGB">
<feFlood flood-opacity="0" result="BackgroundImageFix"/>
<feBlend mode="normal" in="SourceGraphic" in2="BackgroundImageFix" result="shape"/>
<feColorMatrix in="SourceAlpha" type="matrix" values="0 0 0 0 0 0 0 0 0 0 0 0 0 0 0 0 0 0 127 0" result="hardAlpha"/>
<feOffset dy="-9"/>
<feComposite in2="hardAlpha" operator="arithmetic" k2="-1" k3="1"/>
<feColorMatrix type="matrix" values="0 0 0 0 0 0 0 0 0 0 0 0 0 0 0 0 0 0 0.25 0"/>
<feBlend mode="normal" in2="shape" result="effect1_innerShadow_63_3384"/>
</filter>
<filter id="filter3_d_63_3384" x="103.008" y="219.001" width="105.415" height="104.723" filterUnits="userSpaceOnUse" color-interpolation-filters="sRGB">
<feFlood flood-opacity="0" result="BackgroundImageFix"/>
<feColorMatrix in="SourceAlpha" type="matrix" values="0 0 0 0 0 0 0 0 0 0 0 0 0 0 0 0 0 0 127 0" result="hardAlpha"/>
<feOffset dy="3"/>
<feComposite in2="hardAlpha" operator="out"/>
<feColorMatrix type="matrix" values="0 0 0 0 0 0 0 0 0 0 0 0 0 0 0 0 0 0 0.25 0"/>
<feBlend mode="normal" in2="BackgroundImageFix" result="effect1_dropShadow_63_3384"/>
<feBlend mode="normal" in="SourceGraphic" in2="effect1_dropShadow_63_3384" result="shape"/>
</filter>
<filter id="filter4_i_63_3384" x="33.3604" y="182.694" width="243.105" height="89.1163" filterUnits="userSpaceOnUse" color-interpolation-filters="sRGB">
<feFlood flood-opacity="0" result="BackgroundImageFix"/>
<feBlend mode="normal" in="SourceGraphic" in2="BackgroundImageFix" result="shape"/>
<feColorMatrix in="SourceAlpha" type="matrix" values="0 0 0 0 0 0 0 0 0 0 0 0 0 0 0 0 0 0 127 0" result="hardAlpha"/>
<feOffset dx="-1" dy="-9"/>
<feComposite in2="hardAlpha" operator="arithmetic" k2="-1" k3="1"/>
<feColorMatrix type="matrix" values="0 0 0 0 0 0 0 0 0 0 0 0 0 0 0 0 0 0 0.25 0"/>
<feBlend mode="normal" in2="shape" result="effect1_innerShadow_63_3384"/>
</filter>
<filter id="filter5_d_63_3384" x="176.042" y="143.61" width="33.5391" height="39.4073" filterUnits="userSpaceOnUse" color-interpolation-filters="sRGB">
<feFlood flood-opacity="0" result="BackgroundImageFix"/>
<feColorMatrix in="SourceAlpha" type="matrix" values="0 0 0 0 0 0 0 0 0 0 0 0 0 0 0 0 0 0 127 0" result="hardAlpha"/>
<feOffset dy="4"/>
<feGaussianBlur stdDeviation="2"/>
<feComposite in2="hardAlpha" operator="out"/>
<feColorMatrix type="matrix" values="0 0 0 0 0 0 0 0 0 0 0 0 0 0 0 0 0 0 0.25 0"/>
<feBlend mode="normal" in2="BackgroundImageFix" result="effect1_dropShadow_63_3384"/>
<feBlend mode="normal" in="SourceGraphic" in2="effect1_dropShadow_63_3384" result="shape"/>
</filter>
<filter id="filter6_i_63_3384" x="206.124" y="177.117" width="10.2085" height="16.5543" filterUnits="userSpaceOnUse" color-interpolation-filters="sRGB">
<feFlood flood-opacity="0" result="BackgroundImageFix"/>
<feBlend mode="normal" in="SourceGraphic" in2="BackgroundImageFix" result="shape"/>
<feColorMatrix in="SourceAlpha" type="matrix" values="0 0 0 0 0 0 0 0 0 0 0 0 0 0 0 0 0 0 127 0" result="hardAlpha"/>
<feOffset dy="4"/>
<feGaussianBlur stdDeviation="2"/>
<feComposite in2="hardAlpha" operator="arithmetic" k2="-1" k3="1"/>
<feColorMatrix type="matrix" values="0 0 0 0 0 0 0 0 0 0 0 0 0 0 0 0 0 0 0.25 0"/>
<feBlend mode="normal" in2="shape" result="effect1_innerShadow_63_3384"/>
</filter>
<filter id="filter7_d_63_3384" x="178.48" y="109.999" width="42.939" height="17.8798" filterUnits="userSpaceOnUse" color-interpolation-filters="sRGB">
<feFlood flood-opacity="0" result="BackgroundImageFix"/>
<feColorMatrix in="SourceAlpha" type="matrix" values="0 0 0 0 0 0 0 0 0 0 0 0 0 0 0 0 0 0 127 0" result="hardAlpha"/>
<feOffset dx="1" dy="3"/>
<feComposite in2="hardAlpha" operator="out"/>
<feColorMatrix type="matrix" values="0 0 0 0 0 0 0 0 0 0 0 0 0 0 0 0 0 0 0.25 0"/>
<feBlend mode="normal" in2="BackgroundImageFix" result="effect1_dropShadow_63_3384"/>
<feBlend mode="normal" in="SourceGraphic" in2="effect1_dropShadow_63_3384" result="shape"/>
</filter>
<filter id="filter8_d_63_3384" x="103.062" y="139.108" width="32.2251" height="36.9722" filterUnits="userSpaceOnUse" color-interpolation-filters="sRGB">
<feFlood flood-opacity="0" result="BackgroundImageFix"/>
<feColorMatrix in="SourceAlpha" type="matrix" values="0 0 0 0 0 0 0 0 0 0 0 0 0 0 0 0 0 0 127 0" result="hardAlpha"/>
<feOffset dy="4"/>
<feGaussianBlur stdDeviation="2"/>
<feComposite in2="hardAlpha" operator="out"/>
<feColorMatrix type="matrix" values="0 0 0 0 0 0 0 0 0 0 0 0 0 0 0 0 0 0 0.25 0"/>
<feBlend mode="normal" in2="BackgroundImageFix" result="effect1_dropShadow_63_3384"/>
<feBlend mode="normal" in="SourceGraphic" in2="effect1_dropShadow_63_3384" result="shape"/>
</filter>
<filter id="filter9_i_63_3384" x="87.749" y="174.247" width="11.4482" height="17.6919" filterUnits="userSpaceOnUse" color-interpolation-filters="sRGB">
<feFlood flood-opacity="0" result="BackgroundImageFix"/>
<feBlend mode="normal" in="SourceGraphic" in2="BackgroundImageFix" result="shape"/>
<feColorMatrix in="SourceAlpha" type="matrix" values="0 0 0 0 0 0 0 0 0 0 0 0 0 0 0 0 0 0 127 0" result="hardAlpha"/>
<feOffset dy="4"/>
<feGaussianBlur stdDeviation="2"/>
<feComposite in2="hardAlpha" operator="arithmetic" k2="-1" k3="1"/>
<feColorMatrix type="matrix" values="0 0 0 0 0 0 0 0 0 0 0 0 0 0 0 0 0 0 0.25 0"/>
<feBlend mode="normal" in2="shape" result="effect1_innerShadow_63_3384"/>
</filter>
<filter id="filter10_d_63_3384" x="88.0254" y="101.115" width="43.3027" height="16.6873" filterUnits="userSpaceOnUse" color-interpolation-filters="sRGB">
<feFlood flood-opacity="0" result="BackgroundImageFix"/>
<feColorMatrix in="SourceAlpha" type="matrix" values="0 0 0 0 0 0 0 0 0 0 0 0 0 0 0 0 0 0 127 0" result="hardAlpha"/>
<feOffset dx="1" dy="3"/>
<feComposite in2="hardAlpha" operator="out"/>
<feColorMatrix type="matrix" values="0 0 0 0 0 0 0 0 0 0 0 0 0 0 0 0 0 0 0.25 0"/>
<feBlend mode="normal" in2="BackgroundImageFix" result="effect1_dropShadow_63_3384"/>
<feBlend mode="normal" in="SourceGraphic" in2="effect1_dropShadow_63_3384" result="shape"/>
</filter>
</defs>
</svg>
