<svg width="397" height="463" viewBox="0 0 397 463" fill="none" xmlns="http://www.w3.org/2000/svg">
<g filter="url(#filter0_i_63_3620)">
<path d="M217.427 387.087C322.388 479.61 367.595 361.868 360.859 367.107C301.82 430.191 321.593 292.088 245.342 324.046L217.427 387.087Z" fill="#FF7F00" stroke="black" stroke-width="6"/>
<mask id="mask0_63_3620" style="mask-type:alpha" maskUnits="userSpaceOnUse" x="222" y="322" width="133" height="99">
<path d="M222.123 385.804C308.712 469.343 360.386 373.198 354.105 378.082C297.972 417.922 316.379 299.321 248.115 326.976L222.123 385.804Z" fill="#FF7F00"/>
</mask>
<g mask="url(#mask0_63_3620)">
<path d="M382.439 413.375C268.953 427.817 283.204 365.578 285.193 371.905C313.316 405.497 351.862 322.442 387.325 376.316L382.439 413.375Z" fill="#FEC792"/>
<path d="M396.351 405.099C282.865 419.541 297.116 357.302 299.104 363.629C327.228 397.221 365.774 314.166 401.237 368.04L396.351 405.099Z" fill="#FEC792"/>
<path d="M381.646 436.884C268.16 451.326 282.411 389.087 284.399 395.414C312.523 429.006 351.069 345.951 386.531 399.825L381.646 436.884Z" fill="#FEC792"/>
</g>
</g>
<path d="M43.8971 278.632C43.8971 278.632 95.1406 299.789 125.628 336.585L154.613 290.145C124.721 259.991 94.4385 236.756 57.5718 238.832C20.7051 240.907 26.8445 272.688 43.8971 278.632Z" fill="#FF7F00" stroke="black" stroke-width="5"/>
<mask id="mask1_63_3620" style="mask-type:alpha" maskUnits="userSpaceOnUse" x="32" y="240" width="118" height="93">
<path d="M50.8075 279.684C50.8075 279.684 97.6904 299.106 125.608 332.822L149.471 289.319C122.105 261.684 89.0319 238.041 60.3623 241.25C21.6714 242.223 28.9166 273.824 50.8075 279.684Z" fill="#FF7F00"/>
</mask>
<g mask="url(#mask1_63_3620)">
<circle cx="30.5" cy="30.5" r="30.5" transform="matrix(0.530843 0.84747 0.84747 -0.530843 13.2017 250.731)" fill="#882E15"/>
</g>
<path d="M124.649 377.275C98.4362 332.025 136.146 332.949 136.146 272L235.939 272C254.333 336.181 270.889 344.492 248.815 377.275C246.022 401.761 244.08 415.527 231.34 440.993C217.332 445.341 209.478 445.844 195.47 440.993C189.678 429.473 188.757 417.425 187.192 395.744C184.492 424.917 182.598 437.21 177.535 440.993C165.125 446.051 157.851 446.614 143.964 440.993C131.761 420.194 127.914 405.908 124.649 377.275Z" fill="#FF7F00" stroke="black" stroke-width="5" stroke-linejoin="round"/>
<path d="M221.88 327.181C221.88 355.899 202.405 379.181 178.38 379.181C140.941 382.428 116.873 360.258 134.88 327.181C134.88 298.462 154.356 275.181 178.38 275.181C202.405 275.181 221.88 298.462 221.88 327.181Z" fill="#FFD4A9"/>
<path d="M204.429 392.267C203.381 392.567 202.391 392.845 201.337 393.114C192.081 395.505 182.253 396.62 172.54 394.984C162.815 393.396 153.881 389.091 145.931 383.809C145.026 383.212 144.175 382.624 143.285 382C144.322 382.325 145.309 382.627 146.339 382.951C155.461 385.8 164.342 388.583 173.361 390.052C182.375 391.574 191.677 391.877 201.231 392.17C202.314 392.2 203.339 392.237 204.429 392.267Z" fill="black"/>
<g filter="url(#filter1_d_63_3620)">
<path d="M172.98 256.117C125.497 286.107 150.133 305.254 148.931 302.233C149.211 280.707 189.491 300.154 186.285 268.642L172.98 256.117Z" fill="#FEBB7A"/>
<path d="M190.42 259.607C224.809 303.764 195.072 313.502 197.238 311.064C204.352 290.72 159.796 295.487 173.612 266.921L190.42 259.607Z" fill="#FEBB7A"/>
<path d="M190.756 276.016C197.206 325.952 174.733 313.702 155.795 328.891C172.965 299.982 140.769 285.324 172.438 264.806L190.756 276.016Z" fill="#FEBB7A"/>
<path d="M188.834 239.551C108.061 260.117 134.089 298.626 133.774 293.791C144.019 263.417 191.999 309.576 201.89 263.444L188.834 239.551Z" fill="#FEBB7A"/>
<path d="M192.377 252.767C247.73 288.074 218.519 310.524 219.973 306.978C219.949 281.691 172.359 304.468 176.571 267.458L192.377 252.767Z" fill="#FEBB7A"/>
<path d="M188.507 237.577C189.339 237.439 190.178 237.84 190.589 238.592L199.692 255.249C222.436 271.206 228.593 284.685 228.387 294.485C228.276 299.765 226.305 303.747 224.414 306.192C223.486 307.392 222.513 308.305 221.698 308.812C221.489 308.943 221.241 309.077 220.971 309.177C220.759 309.255 220.267 309.416 219.677 309.31C219.342 309.249 218.925 309.092 218.564 308.74C218.198 308.383 218.022 307.957 217.956 307.591C217.896 307.263 217.92 306.965 217.969 306.723C217.927 304.025 217.276 302.107 216.285 300.677C215.253 299.188 213.74 298.06 211.762 297.161C210.944 296.789 210.059 296.465 209.117 296.172C209.068 298.973 208.573 301.407 207.785 303.51C206.181 307.792 203.434 310.482 201.182 311.941C200.08 312.654 199.008 313.13 198.165 313.317C197.948 313.365 197.69 313.406 197.418 313.41C197.207 313.413 196.701 313.402 196.188 313.109C195.896 312.941 195.56 312.656 195.34 312.208C195.116 311.755 195.092 311.3 195.15 310.939C195.2 310.627 195.312 310.367 195.429 310.164C196.13 308.044 196.14 306.385 195.769 305.024C195.38 303.596 194.521 302.301 193.215 301.04C193.2 301.025 193.185 301.011 193.17 300.997C193.012 301.937 192.829 302.832 192.62 303.684C191.014 310.246 187.948 314.289 183.951 317.117C180.097 319.843 175.392 321.399 170.862 323.114C166.236 324.866 161.525 326.859 157.047 330.451C156.293 331.056 155.213 331.035 154.484 330.401C153.754 329.767 153.582 328.701 154.076 327.87C162.203 314.187 158.696 304.107 156.717 294.089C156.707 294.037 156.698 293.984 156.687 293.932C156.508 294.005 156.331 294.08 156.158 294.158C154.495 294.907 153.24 295.839 152.382 297.054C151.564 298.214 151.004 299.78 150.938 302.011C150.978 302.241 150.994 302.522 150.935 302.83C150.866 303.189 150.688 303.607 150.326 303.955C149.969 304.298 149.56 304.452 149.23 304.511C148.649 304.615 148.169 304.456 147.97 304.382C147.715 304.287 147.486 304.161 147.297 304.042C146.566 303.583 145.719 302.772 144.927 301.73C143.305 299.598 141.641 296.141 141.6 291.572C141.584 289.878 141.792 288.062 142.287 286.132C141.632 286.451 141.015 286.824 140.437 287.258C138.554 288.672 136.93 290.833 135.76 294.173C135.731 294.441 135.659 294.762 135.483 295.083C135.301 295.414 134.996 295.765 134.533 295.99C134.076 296.213 133.626 296.234 133.28 296.186C132.669 296.1 132.232 295.783 132.031 295.623C131.783 295.425 131.564 295.194 131.379 294.971C130.656 294.1 129.88 292.677 129.263 290.906C128.008 287.308 127.263 281.861 129.223 275.599C133.167 263 147.726 247.954 188.341 237.612L188.507 237.577ZM147.046 302.899L147.073 302.972C147.061 302.943 147.052 302.912 147.042 302.882C147.044 302.888 147.045 302.894 147.046 302.899ZM131.777 293.854L131.779 293.921L131.777 293.849C131.777 293.851 131.777 293.852 131.777 293.854Z" stroke="black" stroke-width="4" stroke-linejoin="round"/>
</g>
<path d="M116.291 27.146C116.291 27.146 80.7516 44.6663 95.9588 145.289C89.774 159.413 84.6184 174.099 86.0844 185.133C97.2145 268.895 305.706 264.19 304.701 216.837C306.034 208.243 307.56 205.83 303.273 179.865C341.774 99.2159 341.939 77.99 322.359 62.3917C292.298 66.5138 277.486 74.3096 252.719 92.6436C222.496 79.8068 205.247 75.8782 173.653 77.7798C173.653 77.7798 134.443 20.5889 116.291 27.146Z" fill="#FF7F00"/>
<mask id="mask2_63_3620" style="mask-type:alpha" maskUnits="userSpaceOnUse" x="85" y="26" width="251" height="225">
<path d="M116.291 27.146C116.291 27.146 80.7516 44.6663 95.9588 145.289C89.774 159.413 84.6184 174.099 86.0844 185.133C97.2145 268.895 305.706 264.19 304.701 216.837C306.034 208.243 307.56 205.83 303.273 179.865C341.774 99.2159 341.939 77.99 322.359 62.3917C292.298 66.5138 277.486 74.3096 252.719 92.6436C222.496 79.8068 205.247 75.8782 173.653 77.7798C173.653 77.7798 134.443 20.5889 116.291 27.146Z" fill="#FF7F00"/>
</mask>
<g mask="url(#mask2_63_3620)">
<path d="M124.212 73.8985L96.9619 72.5037C99.8678 35.4403 107.311 32.698 120.439 27.3473C131.758 28.5824 136.25 32.4092 142.705 41.8633C145.532 45.9007 145.897 48.3704 145.097 53.0225C139.175 46.5895 136.651 45.3014 133.7 47.5125L124.212 73.8985Z" fill="#8E340F"/>
<path d="M300.478 104.08L325.968 118.29C339.178 86.4644 337.278 79.0026 329.268 67.3057C319.141 62.1015 313.284 62.8212 302.689 67.1562C298.106 68.9687 296.44 70.8287 294.546 75.1522C303.032 73.0453 305.848 73.3602 307.093 76.8312L300.478 104.08Z" fill="#8E340F"/>
</g>
<g filter="url(#filter2_i_63_3620)">
<path d="M73.2511 179.191C75.8194 178.66 78.0603 179.584 95.9973 188.631C116.678 207.582 134.375 215.173 189.858 216.812C224.298 227.473 234.909 242.909 301.588 218.513L312.459 222.299C311.177 232.117 307.577 236.971 296.937 242.697C303.509 242.892 305.922 243.543 307.473 245.86C300.089 260.373 294.251 266.895 273.083 264.769C188.942 304.533 159.667 294.306 96.2745 234.655C68.1453 222.58 66.3381 214.98 70.0369 203.807L79.4232 205.581C74.1693 196.089 71.8014 189.391 73.2511 179.191Z" fill="#FEC792"/>
</g>
<path d="M237.56 155.204C272.19 158.682 276.86 214.318 240.867 224.416C203.085 223.399 199.759 162.063 237.56 155.204Z" fill="#242424"/>
<g filter="url(#filter3_d_63_3620)">
<path d="M239.985 165L241.927 181.81L253.38 188.171L241.927 194.532L236.924 214L228.504 192.729L222.38 187.411L229.269 184.372L239.985 165Z" fill="#FFBF00"/>
</g>
<g filter="url(#filter4_d_63_3620)">
<path d="M233.615 130.12C243.704 129.905 269.594 132.759 266.527 148.674C263.463 149.725 265.025 149.732 261.724 148.039C258.71 146.269 254.43 143.897 251.137 142.983C243.663 140.914 232.123 143.266 226.248 138.04L226.213 135.801C228.464 132.363 230.081 131.948 233.615 130.12Z" fill="#FEC792"/>
</g>
<path d="M168.175 142.574C135.549 130.455 106.868 178.357 134.743 203.267C169.116 218.983 199.1 165.371 168.175 142.574Z" fill="#242424"/>
<g filter="url(#filter5_d_63_3620)">
<path d="M156.523 150.594L153.733 166.933L162.684 176.028L150.25 178.899L140.249 195.851L138.213 173.556L133.952 166.89L141.215 165.904L156.523 150.594Z" fill="#FFBF00"/>
</g>
<g filter="url(#filter6_d_63_3620)">
<path d="M155.023 115.854C165.114 115.969 190.896 119.668 187.31 135.474C184.214 136.425 185.775 136.482 182.531 134.682C179.576 132.815 175.376 130.304 172.114 129.283C164.713 126.97 153.101 128.945 147.4 123.529L147.439 121.29C149.801 117.928 151.431 117.566 155.023 115.854Z" fill="#FEC792"/>
</g>
<path d="M116.291 27.146C116.291 27.146 80.7516 44.6663 95.9588 145.289C89.9421 157.49 86.8743 164.619 83.2122 179.05C79.1921 176.972 76.5435 176.619 71.144 177.515C68.8993 183.47 70.165 189.248 74.3953 201.461C71.609 200.728 70.1316 200.805 67.786 202.609C64.9398 219.436 75.4619 226.035 95.4116 237.528C158.752 293.746 197.883 299.839 273.8 267.595C296.703 266.891 303.595 260.866 310.777 245.286C309.144 242.837 307.723 241.823 303.69 241.07C311.522 234.55 313.877 229.822 315.716 220.144C311.548 219.308 309.295 219.123 304.701 216.837C306.034 208.243 307.56 205.83 303.273 179.865C341.774 99.2159 341.939 77.99 322.359 62.3917C292.298 66.5138 277.486 74.3096 252.719 92.6436C222.496 79.8068 205.247 75.8782 173.653 77.7798C173.653 77.7798 134.443 20.5889 116.291 27.146Z" stroke="black" stroke-width="6"/>
<path d="M203.328 251.321C203.342 272.258 159.702 271.425 167.209 243.812C170.851 234.828 177.004 230.009 190.06 231.047C199.764 232.622 203.586 235.169 203.328 251.321Z" fill="#68142C" stroke="#242424" stroke-width="4"/>
<mask id="mask3_63_3620" style="mask-type:alpha" maskUnits="userSpaceOnUse" x="168" y="231" width="34" height="34">
<path d="M201.381 253.425C198.25 267.345 166.156 269.664 168.504 247.239C179.6 246.354 183.369 237.788 190.423 231C193.916 237.758 190.561 245.156 201.381 253.425Z" fill="#68142C"/>
</mask>
<g mask="url(#mask3_63_3620)">
<ellipse cx="178.881" cy="259" rx="10.5" ry="10" fill="#FF8282"/>
<ellipse cx="189.881" cy="261" rx="10.5" ry="10" fill="#FF8282"/>
</g>
<ellipse cx="181.922" cy="214.497" rx="15" ry="8" transform="rotate(14.481 181.922 214.497)" fill="#242424"/>
<path d="M116.891 46.1199C105.874 53.2534 103.843 143.48 109.784 130.646C115.726 117.813 146.096 86.2113 156.057 86.0699C165.972 79.1279 127.908 38.9865 116.891 46.1199Z" fill="#FEC792" stroke="black" stroke-width="6"/>
<path d="M319.607 80.359C330.716 86.8269 297.667 174.614 295.504 160.638C293.341 146.662 279.852 108.314 270.317 105.425C262.708 96.0125 308.498 73.8911 319.607 80.359Z" fill="#FEC792" stroke="black" stroke-width="6"/>
<path d="M119.671 76.8525C127.695 68.2754 133.224 65.2671 149.556 71.2079L156.153 84.0107L120.478 108.94C121.337 96.8219 121.289 89.8766 133.079 80.8783C128.577 76.8615 125.522 76.3782 119.671 76.8525Z" fill="#FF7F00" stroke="black" stroke-width="5" stroke-linejoin="round"/>
<path d="M305.576 114.919C303.604 103.34 300.646 97.784 283.743 93.7463L271.185 100.798C279.492 112.359 285.911 118.678 292.296 140.026C298.254 129.438 297.052 124.898 292.168 110.893C298.138 110.021 300.954 111.301 305.576 114.919Z" fill="#FF7F00" stroke="black" stroke-width="5" stroke-linejoin="round"/>
<path d="M335.801 276.551C335.801 276.551 288.348 294.124 257.861 330.92L240.861 282.42C270.752 252.266 285.26 234.676 322.127 236.751C358.993 238.826 352.854 270.607 335.801 276.551Z" fill="#FF7F00" stroke="black" stroke-width="5"/>
<mask id="mask4_63_3620" style="mask-type:alpha" maskUnits="userSpaceOnUse" x="230" y="238" width="117" height="93">
<path d="M328.891 277.604C328.891 277.604 282.008 297.025 254.09 330.742L230.227 287.239C257.593 259.603 290.666 235.961 319.336 239.17C358.027 240.142 350.782 271.744 328.891 277.604Z" fill="#FF7F00"/>
</mask>
<g mask="url(#mask4_63_3620)">
<circle cx="324.458" cy="258.307" r="30.5" transform="rotate(122.062 324.458 258.307)" fill="#882E15"/>
</g>
<g filter="url(#filter7_i_63_3620)">
<path d="M142.598 453.925C134.128 454.097 130.263 440.827 137.542 435.872C144.821 430.917 147.472 436.189 147.472 436.189C155.797 431.239 160.514 431.798 168.986 436.877C168.986 436.877 176.723 433.075 178.254 437.173C179.785 441.271 180.806 454.738 173.723 454.575L142.598 453.925Z" fill="#882E15" stroke="black" stroke-width="4" stroke-linejoin="round"/>
<path d="M145.604 455.788C146.455 455.263 147.306 454.737 148.157 454.212C148.01 454.022 147.865 453.821 147.727 453.617C145.365 449.891 143.675 444.752 145.477 440.206C145.595 439.962 145.728 439.726 145.88 439.5C145.689 439.694 145.512 439.905 145.349 440.129C142.649 444.473 143.282 450.117 145.22 454.972C145.339 455.245 145.468 455.52 145.604 455.788Z" fill="black"/>
<path d="M159.754 455.288C160.605 454.763 161.456 454.237 162.306 453.712C162.16 453.522 162.015 453.321 161.876 453.117C159.515 449.391 157.825 444.252 159.627 439.706C159.744 439.462 159.878 439.226 160.03 439C159.839 439.194 159.662 439.405 159.498 439.629C156.799 443.973 157.432 449.617 159.369 454.472C159.488 454.745 159.618 455.02 159.754 455.288Z" fill="black"/>
</g>
<g filter="url(#filter8_i_63_3620)">
<path d="M200.255 453.85C195.476 451.864 191.678 438.55 195.2 435.797C198.722 433.044 205.13 436.114 205.13 436.114C213.455 431.164 218.171 431.723 226.644 436.802C226.644 436.802 234.127 434.507 235.912 437.098C237.696 439.69 236.365 443.881 235.594 447.028C233.409 452.512 231.704 454.805 226.073 454.676L200.255 453.85Z" fill="#882E15" stroke="black" stroke-width="4" stroke-linejoin="round"/>
<path d="M208.809 440.476C204.576 444.962 202.707 446.943 207.441 453.632C210.131 452.393 203.35 446.875 208.857 440.425L208.809 440.476Z" stroke="black" stroke-width="2" stroke-linejoin="round"/>
<path d="M220.808 440.86C224.745 445.607 226.484 447.703 221.332 454.076C218.727 452.668 225.847 447.594 220.762 440.805L220.808 440.86Z" stroke="black" stroke-width="2" stroke-linejoin="round"/>
</g>
<path opacity="0.2" d="M247.706 266.234C244.904 272.936 217.772 295.957 183.765 291.958C149.757 287.96 127.528 273.563 127.915 270.272C128.302 266.981 157.241 286.326 185.166 280.04C207.222 285.135 248.093 262.942 247.706 266.234Z" fill="black"/>
<g opacity="0.5" filter="url(#filter9_d_63_3620)">
<path d="M54.232 51.3481L49.9472 76.4449L63.6955 90.4152L44.5973 94.8246L29.2352 120.864L26.1073 86.6175L19.5631 76.3786L30.7192 74.8636L54.232 51.3481Z" fill="#FFBF00"/>
<path d="M58.0771 116.477L56.0496 128.353L62.5551 134.963L53.518 137.05L46.2489 149.371L44.7688 133.166L41.6721 128.321L46.9511 127.604L58.0771 116.477Z" fill="#FFBF00"/>
<path d="M27.6039 139.959L26.4617 146.649L30.1265 150.373L25.0355 151.548L20.9404 158.49L20.1066 149.361L18.3621 146.631L21.336 146.227L27.6039 139.959Z" fill="#FFBF00"/>
<path d="M15.8293 103.024L14.3673 111.588L19.0583 116.354L12.5419 117.859L7.3002 126.744L6.23295 115.059L4 111.565L7.80656 111.048L15.8293 103.024Z" fill="#FFBF00"/>
</g>
<g opacity="0.5" filter="url(#filter10_d_63_3620)">
<path d="M382.613 131L378.328 156.097L392.076 170.067L372.978 174.477L357.616 200.516L354.488 166.269L347.944 156.031L359.1 154.516L382.613 131Z" fill="#FFBF00"/>
<path d="M386.458 196.129L384.43 208.005L390.936 214.615L381.899 216.702L374.63 229.023L373.15 212.818L370.053 207.973L375.332 207.256L386.458 196.129Z" fill="#FFBF00"/>
<path d="M355.985 219.611L354.843 226.301L358.507 230.025L353.416 231.2L349.321 238.142L348.487 229.013L346.743 226.283L349.717 225.879L355.985 219.611Z" fill="#FFBF00"/>
<path d="M344.21 182.676L342.748 191.24L347.439 196.006L340.923 197.511L335.681 206.396L334.614 194.711L332.381 191.217L336.187 190.7L344.21 182.676Z" fill="#FFBF00"/>
</g>
<ellipse opacity="0.4" cx="185.381" cy="457.5" rx="78" ry="5.5" fill="black"/>
<defs>
<filter id="filter0_i_63_3620" x="213.794" y="316.173" width="150.718" height="109.5" filterUnits="userSpaceOnUse" color-interpolation-filters="sRGB">
<feFlood flood-opacity="0" result="BackgroundImageFix"/>
<feBlend mode="normal" in="SourceGraphic" in2="BackgroundImageFix" result="shape"/>
<feColorMatrix in="SourceAlpha" type="matrix" values="0 0 0 0 0 0 0 0 0 0 0 0 0 0 0 0 0 0 127 0" result="hardAlpha"/>
<feOffset dx="-7" dy="-19"/>
<feComposite in2="hardAlpha" operator="arithmetic" k2="-1" k3="1"/>
<feColorMatrix type="matrix" values="0 0 0 0 0 0 0 0 0 0 0 0 0 0 0 0 0 0 0.25 0"/>
<feBlend mode="normal" in2="shape" result="effect1_innerShadow_63_3620"/>
</filter>
<filter id="filter1_d_63_3620" x="126.02" y="235.55" width="104.372" height="100.341" filterUnits="userSpaceOnUse" color-interpolation-filters="sRGB">
<feFlood flood-opacity="0" result="BackgroundImageFix"/>
<feColorMatrix in="SourceAlpha" type="matrix" values="0 0 0 0 0 0 0 0 0 0 0 0 0 0 0 0 0 0 127 0" result="hardAlpha"/>
<feOffset dy="3"/>
<feComposite in2="hardAlpha" operator="out"/>
<feColorMatrix type="matrix" values="0 0 0 0 0 0 0 0 0 0 0 0 0 0 0 0 0 0 0.25 0"/>
<feBlend mode="normal" in2="BackgroundImageFix" result="effect1_dropShadow_63_3620"/>
<feBlend mode="normal" in="SourceGraphic" in2="effect1_dropShadow_63_3620" result="shape"/>
</filter>
<filter id="filter2_i_63_3620" x="68.6113" y="179.072" width="243.847" height="109.454" filterUnits="userSpaceOnUse" color-interpolation-filters="sRGB">
<feFlood flood-opacity="0" result="BackgroundImageFix"/>
<feBlend mode="normal" in="SourceGraphic" in2="BackgroundImageFix" result="shape"/>
<feColorMatrix in="SourceAlpha" type="matrix" values="0 0 0 0 0 0 0 0 0 0 0 0 0 0 0 0 0 0 127 0" result="hardAlpha"/>
<feOffset dx="-1" dy="-9"/>
<feComposite in2="hardAlpha" operator="arithmetic" k2="-1" k3="1"/>
<feColorMatrix type="matrix" values="0 0 0 0 0 0 0 0 0 0 0 0 0 0 0 0 0 0 0.25 0"/>
<feBlend mode="normal" in2="shape" result="effect1_innerShadow_63_3620"/>
</filter>
<filter id="filter3_d_63_3620" x="218.38" y="161" width="39" height="57" filterUnits="userSpaceOnUse" color-interpolation-filters="sRGB">
<feFlood flood-opacity="0" result="BackgroundImageFix"/>
<feColorMatrix in="SourceAlpha" type="matrix" values="0 0 0 0 0 0 0 0 0 0 0 0 0 0 0 0 0 0 127 0" result="hardAlpha"/>
<feOffset/>
<feGaussianBlur stdDeviation="2"/>
<feComposite in2="hardAlpha" operator="out"/>
<feColorMatrix type="matrix" values="0 0 0 0 1 0 0 0 0 0.666667 0 0 0 0 0 0 0 0 1 0"/>
<feBlend mode="normal" in2="BackgroundImageFix" result="effect1_dropShadow_63_3620"/>
<feBlend mode="normal" in="SourceGraphic" in2="effect1_dropShadow_63_3620" result="shape"/>
</filter>
<filter id="filter4_d_63_3620" x="226.213" y="130.109" width="41.5645" height="22.2899" filterUnits="userSpaceOnUse" color-interpolation-filters="sRGB">
<feFlood flood-opacity="0" result="BackgroundImageFix"/>
<feColorMatrix in="SourceAlpha" type="matrix" values="0 0 0 0 0 0 0 0 0 0 0 0 0 0 0 0 0 0 127 0" result="hardAlpha"/>
<feOffset dx="1" dy="3"/>
<feComposite in2="hardAlpha" operator="out"/>
<feColorMatrix type="matrix" values="0 0 0 0 0 0 0 0 0 0 0 0 0 0 0 0 0 0 0.25 0"/>
<feBlend mode="normal" in2="BackgroundImageFix" result="effect1_dropShadow_63_3620"/>
<feBlend mode="normal" in="SourceGraphic" in2="effect1_dropShadow_63_3620" result="shape"/>
</filter>
<filter id="filter5_d_63_3620" x="129.952" y="146.594" width="36.7314" height="53.2568" filterUnits="userSpaceOnUse" color-interpolation-filters="sRGB">
<feFlood flood-opacity="0" result="BackgroundImageFix"/>
<feColorMatrix in="SourceAlpha" type="matrix" values="0 0 0 0 0 0 0 0 0 0 0 0 0 0 0 0 0 0 127 0" result="hardAlpha"/>
<feOffset/>
<feGaussianBlur stdDeviation="2"/>
<feComposite in2="hardAlpha" operator="out"/>
<feColorMatrix type="matrix" values="0 0 0 0 1 0 0 0 0 0.666667 0 0 0 0 0 0 0 0 1 0"/>
<feBlend mode="normal" in2="BackgroundImageFix" result="effect1_dropShadow_63_3620"/>
<feBlend mode="normal" in="SourceGraphic" in2="effect1_dropShadow_63_3620" result="shape"/>
</filter>
<filter id="filter6_d_63_3620" x="147.4" y="115.854" width="41.249" height="23.2739" filterUnits="userSpaceOnUse" color-interpolation-filters="sRGB">
<feFlood flood-opacity="0" result="BackgroundImageFix"/>
<feColorMatrix in="SourceAlpha" type="matrix" values="0 0 0 0 0 0 0 0 0 0 0 0 0 0 0 0 0 0 127 0" result="hardAlpha"/>
<feOffset dx="1" dy="3"/>
<feComposite in2="hardAlpha" operator="out"/>
<feColorMatrix type="matrix" values="0 0 0 0 0 0 0 0 0 0 0 0 0 0 0 0 0 0 0.25 0"/>
<feBlend mode="normal" in2="BackgroundImageFix" result="effect1_dropShadow_63_3620"/>
<feBlend mode="normal" in="SourceGraphic" in2="effect1_dropShadow_63_3620" result="shape"/>
</filter>
<filter id="filter7_i_63_3620" x="131.712" y="430.758" width="49.6499" height="25.8188" filterUnits="userSpaceOnUse" color-interpolation-filters="sRGB">
<feFlood flood-opacity="0" result="BackgroundImageFix"/>
<feBlend mode="normal" in="SourceGraphic" in2="BackgroundImageFix" result="shape"/>
<feColorMatrix in="SourceAlpha" type="matrix" values="0 0 0 0 0 0 0 0 0 0 0 0 0 0 0 0 0 0 127 0" result="hardAlpha"/>
<feOffset dy="-9"/>
<feComposite in2="hardAlpha" operator="arithmetic" k2="-1" k3="1"/>
<feColorMatrix type="matrix" values="0 0 0 0 0 0 0 0 0 0 0 0 0 0 0 0 0 0 0.25 0"/>
<feBlend mode="normal" in2="shape" result="effect1_innerShadow_63_3620"/>
</filter>
<filter id="filter8_i_63_3620" x="191.823" y="430.683" width="46.9756" height="25.9979" filterUnits="userSpaceOnUse" color-interpolation-filters="sRGB">
<feFlood flood-opacity="0" result="BackgroundImageFix"/>
<feBlend mode="normal" in="SourceGraphic" in2="BackgroundImageFix" result="shape"/>
<feColorMatrix in="SourceAlpha" type="matrix" values="0 0 0 0 0 0 0 0 0 0 0 0 0 0 0 0 0 0 127 0" result="hardAlpha"/>
<feOffset dy="-9"/>
<feComposite in2="hardAlpha" operator="arithmetic" k2="-1" k3="1"/>
<feColorMatrix type="matrix" values="0 0 0 0 0 0 0 0 0 0 0 0 0 0 0 0 0 0 0.25 0"/>
<feBlend mode="normal" in2="shape" result="effect1_innerShadow_63_3620"/>
</filter>
<filter id="filter9_d_63_3620" x="0" y="47.3481" width="67.6953" height="115.142" filterUnits="userSpaceOnUse" color-interpolation-filters="sRGB">
<feFlood flood-opacity="0" result="BackgroundImageFix"/>
<feColorMatrix in="SourceAlpha" type="matrix" values="0 0 0 0 0 0 0 0 0 0 0 0 0 0 0 0 0 0 127 0" result="hardAlpha"/>
<feOffset/>
<feGaussianBlur stdDeviation="2"/>
<feComposite in2="hardAlpha" operator="out"/>
<feColorMatrix type="matrix" values="0 0 0 0 1 0 0 0 0 0.666667 0 0 0 0 0 0 0 0 1 0"/>
<feBlend mode="normal" in2="BackgroundImageFix" result="effect1_dropShadow_63_3620"/>
<feBlend mode="normal" in="SourceGraphic" in2="effect1_dropShadow_63_3620" result="shape"/>
</filter>
<filter id="filter10_d_63_3620" x="328.381" y="127" width="67.6953" height="115.142" filterUnits="userSpaceOnUse" color-interpolation-filters="sRGB">
<feFlood flood-opacity="0" result="BackgroundImageFix"/>
<feColorMatrix in="SourceAlpha" type="matrix" values="0 0 0 0 0 0 0 0 0 0 0 0 0 0 0 0 0 0 127 0" result="hardAlpha"/>
<feOffset/>
<feGaussianBlur stdDeviation="2"/>
<feComposite in2="hardAlpha" operator="out"/>
<feColorMatrix type="matrix" values="0 0 0 0 1 0 0 0 0 0.666667 0 0 0 0 0 0 0 0 1 0"/>
<feBlend mode="normal" in2="BackgroundImageFix" result="effect1_dropShadow_63_3620"/>
<feBlend mode="normal" in="SourceGraphic" in2="effect1_dropShadow_63_3620" result="shape"/>
</filter>
</defs>
</svg>
