<svg width="401" height="397" viewBox="0 0 401 397" fill="none" xmlns="http://www.w3.org/2000/svg">
<path opacity="0.2" d="M253.156 253.235C250.354 259.938 223.221 282.959 189.214 278.96C155.207 274.961 132.977 260.564 133.364 257.273C133.751 253.982 162.69 273.328 190.615 267.042C212.671 272.137 253.543 249.944 253.156 253.235Z" fill="black"/>
<g filter="url(#filter0_d_63_3696)">
<path d="M182.458 244.195C140.109 281.083 167.379 296.244 165.731 293.442C162.722 272.125 205.497 285.195 197.519 254.543L182.458 244.195Z" fill="#FEBB7A"/>
<path d="M200.226 244.982C240.953 283.371 213.051 297.535 214.819 294.795C218.744 273.603 175.439 285.117 184.731 254.777L200.226 244.982Z" fill="#FEBB7A"/>
<path d="M203.063 261.148C217.061 309.513 192.981 300.838 176.584 318.74C189.139 287.549 155.083 277.977 183.248 252.865L203.063 261.148Z" fill="#FEBB7A"/>
<path d="M195.597 225.403C118.91 258.06 150.512 292.144 149.463 287.413C154.951 255.831 209.415 294.125 212.148 247.023L195.597 225.403Z" fill="#FEBB7A"/>
<path d="M201.116 237.923C261.21 264.366 235.769 291.013 236.665 287.286C232.781 262.299 189.225 292.075 187.738 254.856L201.116 237.923Z" fill="#FEBB7A"/>
<path d="M194.972 223.503C195.774 223.239 196.664 223.507 197.185 224.187L208.723 239.259C233.637 251.557 241.78 263.938 243.072 273.655C243.768 278.89 242.429 283.126 240.933 285.832C240.199 287.159 239.377 288.21 238.649 288.836C238.462 288.997 238.238 289.167 237.986 289.307C237.788 289.417 237.327 289.651 236.728 289.636C236.388 289.627 235.951 289.535 235.541 289.242C235.124 288.946 234.885 288.551 234.764 288.2C234.655 287.885 234.634 287.586 234.645 287.34C234.192 284.68 233.255 282.884 232.057 281.622C230.811 280.308 229.143 279.424 227.051 278.837C226.185 278.595 225.262 278.41 224.286 278.264C224.665 281.04 224.547 283.521 224.09 285.72C223.159 290.196 220.855 293.274 218.851 295.06C217.871 295.932 216.884 296.567 216.08 296.88C215.873 296.96 215.624 297.041 215.356 297.086C215.148 297.121 214.646 297.188 214.094 296.976C213.78 296.855 213.404 296.624 213.118 296.216C212.828 295.802 212.735 295.356 212.737 294.991C212.739 294.675 212.809 294.4 212.894 294.182C213.264 291.979 213.021 290.339 212.446 289.05C211.844 287.699 210.796 286.55 209.313 285.502C209.297 285.491 209.279 285.479 209.263 285.467C209.249 286.42 209.206 287.332 209.129 288.207C208.544 294.937 206.131 299.401 202.612 302.805C199.219 306.088 194.808 308.344 190.593 310.731C186.288 313.168 181.937 315.857 178.059 320.091C177.406 320.804 176.337 320.948 175.519 320.433C174.7 319.918 174.368 318.89 174.729 317.993C180.672 303.23 175.668 293.804 172.183 284.205C172.164 284.155 172.147 284.104 172.129 284.054C171.962 284.154 171.799 284.255 171.641 284.358C170.112 285.352 169.013 286.466 168.351 287.798C167.719 289.068 167.405 290.702 167.68 292.916C167.755 293.138 167.814 293.413 167.802 293.727C167.789 294.092 167.677 294.532 167.373 294.931C167.072 295.325 166.691 295.539 166.374 295.648C165.816 295.839 165.317 295.756 165.109 295.713C164.842 295.658 164.597 295.568 164.392 295.48C163.6 295.137 162.639 294.465 161.697 293.557C159.768 291.697 157.596 288.535 156.858 284.026C156.584 282.354 156.512 280.527 156.707 278.544C156.108 278.96 155.555 279.423 155.05 279.94C153.405 281.624 152.13 284.008 151.483 287.488C151.496 287.757 151.474 288.085 151.349 288.429C151.219 288.784 150.971 289.178 150.549 289.471C150.131 289.76 149.689 289.85 149.34 289.855C148.724 289.864 148.243 289.617 148.02 289.489C147.744 289.332 147.493 289.137 147.276 288.945C146.428 288.195 145.444 286.906 144.564 285.251C142.775 281.887 141.207 276.617 142.188 270.129C144.162 257.076 156.253 239.983 194.813 223.563L194.972 223.503ZM163.97 294.388L164.007 294.457C163.991 294.429 163.978 294.4 163.963 294.372C163.966 294.378 163.967 294.383 163.97 294.388ZM147.499 287.78L147.511 287.846L147.498 287.776C147.498 287.777 147.499 287.778 147.499 287.78Z" stroke="black" stroke-width="4" stroke-linejoin="round"/>
</g>
<path d="M91.4796 26.5626C91.4796 26.5626 59.0317 49.3032 89.4221 146.425C85.4659 161.327 82.6128 176.629 85.7461 187.309C109.533 268.391 314.863 231.912 306.64 185.267C306.646 176.57 307.785 173.952 299.584 148.946C325.322 63.3648 322.245 42.3624 300.513 29.9361C271.433 38.5992 257.986 48.5647 236.307 70.465C204.479 62.3926 186.832 61.1434 155.9 67.8458C155.9 67.8458 108.418 17.3112 91.4796 26.5626Z" fill="#FF7F00"/>
<mask id="mask0_63_3696" style="mask-type:alpha" maskUnits="userSpaceOnUse" x="76" y="25" width="242" height="211">
<path d="M91.4796 26.5626C91.4796 26.5626 59.0317 49.3032 89.4221 146.425C85.4659 161.327 82.6128 176.629 85.7461 187.309C109.533 268.391 314.863 231.912 306.64 185.267C306.646 176.57 307.785 173.952 299.584 148.946C325.322 63.3648 322.245 42.3624 300.513 29.9361C271.433 38.5992 257.986 48.5647 236.307 70.465C204.479 62.3926 186.832 61.1434 155.9 67.8458C155.9 67.8458 108.418 17.3112 91.4796 26.5626Z" fill="#FF7F00"/>
</mask>
<g mask="url(#mask0_63_3696)">
<path d="M106.445 71.5579L79.3019 74.3394C76.5156 37.2669 83.4528 33.4204 95.6098 26.1284C106.985 25.6209 112.008 28.7171 119.831 37.075C123.241 40.6335 123.979 43.0184 123.899 47.7382C117.064 42.2847 114.373 41.3969 111.794 44.0326L106.445 71.5579Z" fill="#8E340F"/>
<path d="M285.253 74.4762L312.614 84.6287C320.81 51.1591 317.793 44.0748 308.092 33.7378C297.289 30.1406 291.61 31.7461 281.801 37.6477C277.548 40.1387 276.187 42.2311 274.974 46.7932C283.039 43.4154 285.87 43.2968 287.63 46.537L285.253 74.4762Z" fill="#8E340F"/>
</g>
<g filter="url(#filter1_i_63_3696)">
<path d="M72.156 183.397C74.6132 182.48 76.9689 183.051 96.0768 189.253C119.408 204.825 138.057 209.625 193.139 202.774C228.803 208.053 241.646 221.688 303.82 187.398L315.141 189.48C315.372 199.379 312.556 204.726 302.915 212.009C309.44 211.199 311.924 211.473 313.81 213.527C308.729 228.996 303.954 236.334 282.71 237.465C205.626 289.607 175.133 283.969 103.377 234.695C73.734 227.056 70.7876 219.821 72.7374 208.214L82.2845 208.534C75.6432 199.956 72.2803 193.697 72.156 183.397Z" fill="#FEC792"/>
</g>
<path d="M91.4796 26.5626C91.4796 26.5626 59.0317 49.3032 89.4221 146.425C85.3385 159.401 83.395 166.915 81.9789 181.736C77.6886 180.296 75.0172 180.352 69.8177 182.061C68.5086 188.289 70.6416 193.806 76.6867 205.23C73.8211 204.931 72.3728 205.233 70.3301 207.374C70.0861 224.438 81.4922 229.353 102.963 237.666C174.143 283.555 213.745 283.603 283.85 240.148C306.378 235.955 312.268 228.949 316.988 212.455C315.001 210.283 313.442 209.499 309.341 209.37C316.086 201.731 317.69 196.698 318.031 186.854C313.784 186.664 311.53 186.825 306.64 185.267C306.646 176.57 307.785 173.952 299.584 148.946C325.322 63.3648 322.245 42.3624 300.513 29.9361C271.433 38.5992 257.986 48.5647 236.307 70.465C204.479 62.3926 186.832 61.1434 155.9 67.8458C155.9 67.8458 108.418 17.3112 91.4796 26.5626Z" stroke="black" stroke-width="6"/>
<path d="M204.8 228.99C206.938 242.766 177.599 246.737 179.824 227.788C186.741 226.141 190.062 222.047 193.844 217.022C196.716 220.999 197.153 224.76 204.8 228.99Z" fill="#68142C" stroke="#242424" stroke-width="4"/>
<mask id="mask1_63_3696" style="mask-type:alpha" maskUnits="userSpaceOnUse" x="181" y="217" width="22" height="22">
<path d="M202.976 230.283C202.373 239.483 182.343 244.095 181.611 229.536C188.529 227.888 190.062 222.047 193.845 217.022C196.717 220.999 195.329 226.054 202.976 230.283Z" fill="#68142C"/>
</mask>
<g mask="url(#mask1_63_3696)">
<circle cx="188.574" cy="238.579" r="6.5" transform="rotate(-8.7813 188.574 238.579)" fill="#FF8282"/>
<circle cx="195.644" cy="238.499" r="6.5" transform="rotate(-8.7813 195.644 238.499)" fill="#FF8282"/>
</g>
<path d="M193.515 206.209C197.474 229.906 167.695 235.599 158.498 217.176" stroke="#242424" stroke-width="4"/>
<path d="M194.58 206.256C188.549 229.513 217.712 237.806 228.496 220.264" stroke="#242424" stroke-width="4"/>
<g filter="url(#filter2_d_63_3696)">
<path d="M223.15 110.419C233.088 108.667 259.11 107.534 258.508 123.731C255.641 125.238 257.186 125.006 253.665 123.836C250.416 122.548 245.824 120.857 242.43 120.456C234.728 119.552 223.682 123.639 217.078 119.371L216.702 117.163C218.402 113.422 219.936 112.765 223.15 110.419Z" fill="#FEC792"/>
</g>
<path d="M220.183 164.833C219.119 163.14 218.054 161.447 216.989 159.754C218.114 159.125 219.175 158.619 220.27 158.122C239.097 148.335 266.386 153.061 275.203 172.864C275.74 173.836 276.262 174.85 276.768 175.908C276.173 174.897 275.566 173.935 274.947 173.02C264.09 154.285 239.331 152.94 222.83 163.215C221.913 163.731 220.892 164.341 220.183 164.833Z" fill="#242424"/>
<path d="M160.379 132.717C126.285 125.721 105.253 177.44 136.604 197.802C172.973 208.087 194.421 150.526 160.379 132.717Z" fill="#242424"/>
<g filter="url(#filter3_d_63_3696)">
<path d="M157.108 143.57C139.561 144.145 132.281 161.328 146.876 172.33C165.624 171.353 167.266 156.316 157.108 143.57Z" fill="#F4F3F3"/>
</g>
<g filter="url(#filter4_i_63_3696)">
<path d="M137.877 177.687C129.585 177.959 126.144 186.079 133.042 191.279C141.902 190.817 142.678 183.711 137.877 177.687Z" fill="#3E3E3E"/>
</g>
<g filter="url(#filter5_d_63_3696)">
<path d="M171.617 109.948C162.05 106.737 136.486 101.749 134.673 117.855C137.284 119.771 135.791 119.312 139.447 118.679C142.851 117.888 147.644 116.898 151.059 117.007C158.81 117.258 169.125 122.942 176.291 119.703L176.991 117.576C175.866 113.624 174.446 112.746 171.617 109.948Z" fill="#FEC792"/>
</g>
<ellipse cx="193.989" cy="202.467" rx="15" ry="8" transform="rotate(5.69966 193.989 202.467)" fill="#242424"/>
<path d="M94.9691 45.2226C85.1707 53.9542 96.9372 143.434 100.85 129.843C104.762 116.253 129.952 80.3855 139.775 78.725C148.514 70.3507 104.768 36.4909 94.9691 45.2226Z" fill="#FEC792" stroke="black" stroke-width="6"/>
<path d="M300.496 48.1154C312.462 52.8115 293.202 144.615 288.931 131.133C284.66 117.651 265.474 81.8119 255.61 80.4119C246.653 72.2718 288.529 43.4192 300.496 48.1154Z" fill="#FEC792" stroke="black" stroke-width="6"/>
<path d="M102.408 75.1704C109.029 65.4689 114.034 61.6516 131.082 65.0296L139.556 76.6751L108.104 106.758C107.104 94.6514 105.996 87.7947 116.274 77.102C111.211 73.8197 108.118 73.8085 102.408 75.1704Z" fill="#FF7F00" stroke="black" stroke-width="5" stroke-linejoin="round"/>
<path d="M291.906 84.4126C288.189 73.2709 284.417 68.231 267.096 66.8212L255.761 75.7073C265.736 85.8643 273.045 91.1294 282.614 111.252C286.885 99.8796 285.005 95.5757 278.04 82.4809C283.807 80.7073 286.786 81.542 291.906 84.4126Z" fill="#FF7F00" stroke="black" stroke-width="5" stroke-linejoin="round"/>
<path d="M330.252 162.749C330.197 164.081 330.141 165.413 330.086 166.746C329.736 166.698 329.406 166.654 329.066 166.615C326.048 166.291 322.919 166.164 320.578 167.688C318.203 169.228 317.065 172.498 316.223 175.542C316.127 175.895 316.039 176.226 315.95 176.583C315.973 176.216 315.996 175.873 316.026 175.508C316.334 172.356 316.638 168.831 319.303 166.147C322.055 163.538 325.845 163.097 329.131 162.816C329.506 162.789 329.869 162.767 330.252 162.749Z" fill="black" fill-opacity="0.5"/>
<path d="M329.055 182.222C327.78 182.612 326.505 183.002 325.23 183.393C325.203 183.19 325.178 183 325.148 182.805C324.87 181.069 324.481 179.388 323.408 178.388C322.323 177.344 320.269 177.174 318.391 177.192C318.173 177.195 317.969 177.198 317.75 177.205C317.957 177.132 318.15 177.064 318.357 176.995C320.16 176.437 322.177 175.736 324.438 176.673C326.671 177.7 327.816 179.816 328.753 181.603C328.857 181.809 328.955 182.009 329.055 182.222Z" fill="black" fill-opacity="0.5"/>
<path d="M341.793 173.517C340.995 174.585 340.197 175.653 339.398 176.72C339.044 176.414 338.707 176.127 338.357 175.837C335.231 173.296 331.79 170.846 327.962 170.865C324.098 170.895 320.516 173.707 317.398 176.449C317.04 176.769 316.705 177.071 316.351 177.399C316.657 177.025 316.943 176.677 317.255 176.31C319.994 173.177 323.031 169.683 327.781 168.873C332.561 168.191 336.868 170.545 340.557 172.739C340.973 172.994 341.374 173.245 341.793 173.517Z" fill="black" fill-opacity="0.5"/>
<mask id="path-30-outside-1_63_3696" maskUnits="userSpaceOnUse" x="-0.168701" y="322" width="402" height="75" fill="black">
<rect fill="white" x="-0.168701" y="322" width="402" height="75"/>
<path d="M87.3313 325H307.831L397.831 394H1.8313L87.3313 325Z"/>
</mask>
<path d="M87.3313 325H307.831L397.831 394H1.8313L87.3313 325Z" fill="#935821"/>
<path d="M87.3313 323.875C87.3313 324.625 87.3313 325.375 87.3313 326.125C101.328 326.375 115.324 326.6 129.32 326.8C185.305 327.6 241.29 328 297.275 328C300.794 328 304.313 328 307.831 327.999L306.006 327.38C336.009 350.377 366.023 373.358 396.05 396.323L397.831 391.073C265.831 391.227 133.831 391.629 1.8313 392.278L2.91281 395.34C20.4511 381.044 37.9848 366.741 55.514 352.433C66.357 343.583 77.1983 334.73 88.0378 325.875C87.5668 325.292 87.0958 324.708 86.6248 324.125C75.6806 332.85 64.7381 341.577 53.7974 350.306C36.1103 364.418 18.4278 378.536 0.749785 392.66C-0.651523 393.797 0.0268043 395.727 1.8313 395.722C133.831 396.371 265.831 396.773 397.831 396.927C400.929 396.926 402.072 393.56 399.612 391.677C369.639 368.642 339.654 345.623 309.656 322.62C309.287 322.337 308.296 322 307.831 322.001C304.313 322 300.794 322 297.275 322C241.29 322 185.305 322.4 129.32 323.2C115.324 323.4 101.328 323.625 87.3313 323.875ZM87.3313 326.125V323.875C87.1482 323.878 86.7666 324.009 86.6248 324.125L88.0378 325.875L87.3313 326.125Z" fill="black" mask="url(#path-30-outside-1_63_3696)"/>
<g filter="url(#filter6_i_63_3696)">
<path d="M243.831 266C251.092 275.004 240.078 298.855 240.831 302C248.486 304.964 273.62 302.118 277.329 312.002C279.234 307.068 252.831 257.5 243.831 266Z" fill="#FF7F00"/>
</g>
<path d="M248.592 263.445C246.5 262.715 244.26 262.844 242.458 264.546L241.113 265.817L242.275 267.256C243.67 268.987 244.319 271.618 244.319 274.981C244.319 278.308 243.686 282.059 242.823 285.741C241.963 289.418 240.905 292.907 240.082 295.76C239.676 297.166 239.319 298.448 239.089 299.488C238.974 300.008 238.881 300.509 238.832 300.963C238.788 301.374 238.758 301.928 238.887 302.466L239.131 303.487L240.109 303.865C242.333 304.726 245.63 305.116 249.068 305.416C252.644 305.728 256.509 305.949 260.329 306.392C264.137 306.834 267.659 307.475 270.411 308.549C273.185 309.631 274.82 311.01 275.456 312.704L277.302 317.623L279.194 312.722C279.51 311.904 279.444 310.981 279.345 310.294C279.234 309.52 279.011 308.629 278.717 307.672C278.126 305.75 277.179 303.358 275.987 300.715C273.6 295.42 270.153 288.947 266.364 282.901C262.591 276.882 258.401 271.161 254.508 267.459C252.579 265.625 250.57 264.136 248.592 263.445Z" stroke="black" stroke-width="4"/>
<g filter="url(#filter7_i_63_3696)">
<path d="M141.831 263.5C139.947 273.815 146.938 303.416 141.831 305.5C134.177 308.464 109.168 304.272 105.459 314.156C103.554 309.222 132.831 255 141.831 263.5Z" fill="#FF7F00"/>
</g>
<path d="M136.849 261.183C138.893 260.347 141.173 260.271 143.026 261.885L143.204 262.047L143.994 262.792L143.799 263.859C143.379 266.158 143.437 269.71 143.749 273.976C144.057 278.202 144.589 282.871 145.03 287.393C145.466 291.858 145.816 296.194 145.72 299.566C145.672 301.242 145.512 302.81 145.14 304.082C144.791 305.274 144.099 306.735 142.587 307.352L142.571 307.359L142.554 307.365C140.292 308.24 136.969 308.535 133.542 308.711C129.945 308.895 126.139 308.95 122.31 309.228C118.514 309.504 115.017 309.985 112.29 310.938C109.548 311.896 107.956 313.194 107.331 314.858L105.486 319.777L103.593 314.876C103.264 314.022 103.365 313.046 103.483 312.349C103.618 311.544 103.872 310.608 104.206 309.591C104.876 307.549 105.933 304.98 107.259 302.123C109.913 296.398 113.716 289.35 117.86 282.729C121.99 276.132 126.53 269.845 130.672 265.719C132.724 263.674 134.823 262.013 136.849 261.183Z" stroke="black" stroke-width="4"/>
<g filter="url(#filter8_d_63_3696)">
<path d="M262.461 287.472C262.366 302.74 261.798 311.599 261.158 320.189C260.521 328.752 259.815 337.009 259.433 351.145L259.396 352.52L258.098 352.978L255.135 354.02L255.122 354.025L203.806 371.691L201.071 372.633L201.156 369.741C201.77 348.814 202.195 327.88 202.43 306.943L202.445 305.539L203.772 305.077L259.803 285.57L262.479 284.639L262.461 287.472Z" fill="#971120" stroke="black" stroke-width="4"/>
<path d="M126.542 285.47C133.225 287.296 140.008 289.77 146.704 292.301C153.428 294.843 160.045 297.433 166.517 299.555L166.516 299.555C171.215 301.095 176.772 303.111 181.459 305.151L182.383 305.559L183.544 306.078L183.566 307.35L184.633 369.507L184.684 372.46L181.923 371.411C177.95 369.901 173.977 368.598 169.891 367.234L169.872 367.228C156.612 362.652 140.931 357.794 127.842 352.754L126.567 352.262L126.561 350.894C126.493 333.962 126.135 317.955 124.019 287.539L123.824 284.729L126.542 285.47Z" fill="#971120" stroke="black" stroke-width="4"/>
<path d="M205.291 308.017L203.988 371.071L203.974 371.795L203.5 372.341C200.73 375.534 196.795 376.423 193.118 376.236C189.448 376.049 185.759 374.792 182.986 373.334L182.067 372.851L181.933 371.821C181.673 369.818 181.583 365.758 181.539 361.776C181.494 357.705 181.499 353.64 181.452 351.365L181.324 345.957C181.041 333.341 180.855 320.721 180.765 308.101L180.741 304.811L183.673 306.305C189.855 309.455 196.317 309.566 202.32 306.228L205.364 304.536L205.291 308.017Z" fill="#971120" stroke="black" stroke-width="4"/>
<path d="M250.198 281.647C251.701 281.388 254.097 281.351 255.902 282.62L257.009 283.399L256.697 284.716L256.565 285.275L256.387 286.033L255.742 286.471C255.14 286.879 254.219 287.271 253.341 287.611C252.403 287.974 251.297 288.357 250.194 288.725C247.917 289.483 245.753 290.145 244.623 290.554L244.622 290.553C236.656 293.478 228.672 296.342 220.671 299.146L220.672 299.147C213.442 301.698 205.329 304.064 199.262 307.78L198.958 307.966L198.608 308.036C196.676 308.421 194.784 308.62 192.976 308.839L189.23 309.294L190.956 305.939C191.156 305.552 191.357 305.167 191.559 304.785L191.56 304.784C196.238 295.965 204.185 291.524 212.648 289.016C221.019 286.535 230.299 285.848 237.664 284.801C241.419 284.268 245.995 282.855 249.981 281.698L250.088 281.666L250.198 281.647Z" fill="#F4F3F3" stroke="black" stroke-width="4"/>
<path d="M135.148 281.374C138.203 281.605 141.76 282.715 145.083 283.855C146.723 284.418 148.309 284.987 149.81 285.503L151.584 285.318C152.69 285.203 153.919 285.305 155.002 285.442C156.049 285.575 157.219 285.777 158.014 285.895C163.307 286.432 170.073 287.688 176.397 290.098C182.709 292.505 188.828 296.155 192.455 301.633L192.784 302.14C193.55 303.354 194.26 304.815 193.942 306.881L193.754 308.098L192.583 308.478C191.569 308.807 190.515 308.67 189.701 308.475C188.843 308.27 187.961 307.929 187.159 307.577C186.35 307.222 185.542 306.821 184.848 306.481C184.303 306.214 183.847 305.992 183.469 305.827L183.117 305.681C169.463 300.373 155.693 295.747 141.868 290.657C141.222 290.419 138.549 289.5 136.369 288.687C135.216 288.257 134.057 287.804 133.115 287.393C132.646 287.189 132.203 286.982 131.831 286.783C131.523 286.619 131.05 286.351 130.697 285.99L129.39 284.652L130.637 283.258C131.302 282.515 131.972 282.106 132.753 281.859C133.076 281.757 133.405 281.688 133.652 281.635C133.921 281.576 134.172 281.521 134.463 281.44L134.8 281.347L135.148 281.374Z" fill="#F4F3F3" stroke="black" stroke-width="4"/>
<path d="M258.378 283.23C258.668 283.195 259.114 283.155 259.6 283.242C260.847 283.463 261.56 284.329 262.022 285.201L262.783 286.642L261.526 287.679C261.263 287.897 260.961 288.043 260.813 288.113C260.615 288.208 260.386 288.306 260.147 288.401C259.665 288.594 259.05 288.817 258.36 289.056C256.976 289.535 255.206 290.107 253.42 290.673C249.8 291.818 246.185 292.915 245.194 293.259L235.372 296.74C225.554 300.234 215.747 303.768 205.954 307.344L205.953 307.343C205.418 307.553 204.477 307.911 203.469 307.612C202.937 307.454 202.551 307.167 202.287 306.933C202.043 306.715 201.81 306.454 201.631 306.254L200.705 305.219L201.35 303.99C201.684 303.353 202.264 302.986 202.498 302.841C202.83 302.636 203.212 302.45 203.586 302.286C204.342 301.954 205.277 301.619 206.19 301.314C207.111 301.005 208.061 300.711 208.857 300.465C209.683 300.21 210.292 300.022 210.611 299.908C226.06 294.21 241.57 288.72 257.138 283.437L257.331 283.372L257.533 283.346C257.669 283.329 257.797 283.311 257.937 283.29C258.068 283.271 258.225 283.248 258.378 283.23Z" fill="#971120" stroke="black" stroke-width="4"/>
<path d="M126.22 283.068C127.879 282.957 129.168 283.257 130.559 283.749C147.836 289.867 164.949 296.179 182.22 302.174L182.221 302.174C182.53 302.281 182.877 302.398 183.151 302.509C183.449 302.629 183.825 302.804 184.186 303.105C184.896 303.696 185.22 304.529 185.453 305.083L186.646 307.927L183.562 307.856C183.42 307.853 182.916 307.85 182.374 307.81C181.937 307.778 181.296 307.712 180.704 307.533L180.454 307.45C162.393 300.784 144.293 294.52 126.168 287.931L125.424 287.66L125.066 286.954C124.9 286.625 124.731 286.289 124.567 285.965L123.207 283.268L126.22 283.068Z" fill="#971120" stroke="black" stroke-width="4"/>
<path d="M184.794 303.981C189.905 306.272 194.551 306.744 199.601 304.604C199.789 304.525 199.926 304.458 200.082 304.383C200.218 304.317 200.453 304.203 200.719 304.114C201.209 303.952 201.668 303.92 202.132 303.943L202.599 303.981L203.469 304.077L203.99 304.78L204.613 305.624L205.992 307.487L203.946 308.578C201.573 309.843 197.273 310.959 193.203 311.26C191.146 311.412 189.026 311.365 187.148 310.971C185.309 310.585 183.425 309.806 182.206 308.257L181.662 307.565L181.804 306.697L182.001 305.484L182.42 302.917L184.794 303.981Z" fill="#971120" stroke="black" stroke-width="4"/>
</g>
<g filter="url(#filter9_i_63_3696)">
<path d="M119.638 304.897L120 305.147C120.885 306.665 120.449 310.626 120.383 312.622C125.294 313.584 140.495 315.24 138.401 323.25C134.099 327.419 129.555 325.665 124.55 325.86L124.673 326.859C127.591 328.621 132.599 327.287 135.975 327.194C138.834 327.114 140.274 331.365 139.716 333.612C138.436 338.782 130.577 338.675 126.432 338.157L123.818 337.839L123.531 338.616C126.324 341.303 133.891 338.799 136.838 340.472C138.62 344.918 133.131 346.759 129.668 347.437C127.366 347.312 125.09 346.888 122.898 346.177C112.638 342.748 110.137 335.145 110.888 325.062C111.316 319.309 113.393 315.602 115.301 310.349L114.775 310.137C108.59 316.313 108.87 327.061 109.541 335.186C103.431 321.611 106.862 312.103 119.638 304.897Z" fill="#8E3411"/>
</g>
<path d="M120.775 303.252L121.137 303.502L121.503 303.754L121.727 304.14C122.147 304.86 122.329 305.702 122.424 306.409C122.524 307.154 122.551 307.956 122.548 308.715C122.545 309.438 122.508 310.241 122.471 310.962C125.133 311.421 129.234 312.131 132.713 313.417C134.895 314.224 137.099 315.346 138.623 316.983C140.249 318.729 141.049 321.026 140.336 323.756L140.195 324.297L139.793 324.686C139.345 325.12 138.893 325.499 138.438 325.832C139.611 326.515 140.43 327.637 140.926 328.657C141.73 330.314 142.073 332.421 141.657 334.095C141.09 336.382 139.631 337.849 137.915 338.783L138.435 339.078L138.695 339.728C139.302 341.243 139.348 342.724 138.817 344.073C138.307 345.37 137.351 346.322 136.362 347.01C134.426 348.356 131.848 349.048 130.052 349.399L129.807 349.447L129.56 349.434C127.085 349.299 124.638 348.844 122.281 348.079L122.272 348.076L122.265 348.074C116.722 346.221 113.069 343.152 110.979 339.016C110.417 337.904 109.977 336.731 109.642 335.509L107.718 336.007C104.541 328.95 103.703 322.632 105.614 317.01C107.522 311.397 112.03 306.892 118.655 303.155L119.745 302.539L120.775 303.252Z" stroke="black" stroke-width="4"/>
<g filter="url(#filter10_di_63_3696)">
<path d="M268.03 307.508L267.714 307.597C266.722 308.451 266.067 311.346 265.629 312.768C261.937 312.253 250.83 309.728 250.36 315.877C252.377 319.857 256.003 319.726 259.48 321.078L259.151 321.752C256.668 322.284 253.465 320.129 251.111 319.244C249.117 318.493 247.07 321.137 246.918 322.855C246.564 326.807 252.124 328.639 255.169 329.281L257.087 329.691L257.101 330.308C254.481 331.522 249.76 327.922 247.279 328.384C244.944 331.083 248.363 333.712 250.637 335.03C252.288 335.501 253.994 335.755 255.71 335.787C263.768 335.863 267.375 331.116 269.295 323.834C270.39 319.679 269.827 316.563 269.759 312.401L270.181 312.379C273.037 318.23 270.23 325.732 267.785 331.29C275.384 323.214 275.276 315.685 268.03 307.508Z" fill="#8E340F"/>
<path d="M267.491 305.583L267.175 305.671L266.746 305.791L266.409 306.082C265.863 306.552 265.493 307.172 265.244 307.668C264.978 308.198 264.755 308.78 264.57 309.326C264.443 309.699 264.318 310.115 264.2 310.516C262.215 310.196 259.344 309.766 256.741 309.824C254.979 309.863 253.06 310.121 251.485 310.959C249.777 311.868 248.54 313.438 248.365 315.725L248.323 316.283L248.576 316.782C248.683 316.993 248.797 317.194 248.912 317.388C248.095 317.696 247.406 318.212 246.908 318.711C245.875 319.748 245.052 321.255 244.925 322.678C244.78 324.306 245.289 325.639 246.084 326.709L245.767 327.076C244.899 328.079 244.448 329.235 244.5 330.461C244.55 331.633 245.049 332.631 245.615 333.405C246.716 334.912 248.44 336.069 249.635 336.761L249.849 336.885L250.089 336.954C251.907 337.472 253.784 337.752 255.674 337.786L255.683 337.787L255.691 337.786C260.155 337.828 263.61 336.518 266.198 334.004C266.872 333.35 267.471 332.625 268.01 331.845L269.242 332.66C273.244 328.408 275.454 324.044 275.474 319.446C275.494 314.859 273.331 310.475 269.526 306.182L268.696 305.245L267.491 305.583Z" stroke="black" stroke-width="4"/>
</g>
<defs>
<filter id="filter0_d_63_3696" x="139.885" y="221.403" width="105.376" height="104.338" filterUnits="userSpaceOnUse" color-interpolation-filters="sRGB">
<feFlood flood-opacity="0" result="BackgroundImageFix"/>
<feColorMatrix in="SourceAlpha" type="matrix" values="0 0 0 0 0 0 0 0 0 0 0 0 0 0 0 0 0 0 127 0" result="hardAlpha"/>
<feOffset dy="3"/>
<feComposite in2="hardAlpha" operator="out"/>
<feColorMatrix type="matrix" values="0 0 0 0 0 0 0 0 0 0 0 0 0 0 0 0 0 0 0.25 0"/>
<feBlend mode="normal" in2="BackgroundImageFix" result="effect1_dropShadow_63_3696"/>
<feBlend mode="normal" in="SourceGraphic" in2="effect1_dropShadow_63_3696" result="shape"/>
</filter>
<filter id="filter1_i_63_3696" x="72.156" y="183.05" width="242.998" height="91.1256" filterUnits="userSpaceOnUse" color-interpolation-filters="sRGB">
<feFlood flood-opacity="0" result="BackgroundImageFix"/>
<feBlend mode="normal" in="SourceGraphic" in2="BackgroundImageFix" result="shape"/>
<feColorMatrix in="SourceAlpha" type="matrix" values="0 0 0 0 0 0 0 0 0 0 0 0 0 0 0 0 0 0 127 0" result="hardAlpha"/>
<feOffset dx="-1" dy="-9"/>
<feComposite in2="hardAlpha" operator="arithmetic" k2="-1" k3="1"/>
<feColorMatrix type="matrix" values="0 0 0 0 0 0 0 0 0 0 0 0 0 0 0 0 0 0 0.25 0"/>
<feBlend mode="normal" in2="shape" result="effect1_innerShadow_63_3696"/>
</filter>
<filter id="filter2_d_63_3696" x="216.702" y="109.458" width="42.8164" height="18.3295" filterUnits="userSpaceOnUse" color-interpolation-filters="sRGB">
<feFlood flood-opacity="0" result="BackgroundImageFix"/>
<feColorMatrix in="SourceAlpha" type="matrix" values="0 0 0 0 0 0 0 0 0 0 0 0 0 0 0 0 0 0 127 0" result="hardAlpha"/>
<feOffset dx="1" dy="3"/>
<feComposite in2="hardAlpha" operator="out"/>
<feColorMatrix type="matrix" values="0 0 0 0 0 0 0 0 0 0 0 0 0 0 0 0 0 0 0.25 0"/>
<feBlend mode="normal" in2="BackgroundImageFix" result="effect1_dropShadow_63_3696"/>
<feBlend mode="normal" in="SourceGraphic" in2="effect1_dropShadow_63_3696" result="shape"/>
</filter>
<filter id="filter3_d_63_3696" x="135.072" y="143.57" width="32.2236" height="36.7601" filterUnits="userSpaceOnUse" color-interpolation-filters="sRGB">
<feFlood flood-opacity="0" result="BackgroundImageFix"/>
<feColorMatrix in="SourceAlpha" type="matrix" values="0 0 0 0 0 0 0 0 0 0 0 0 0 0 0 0 0 0 127 0" result="hardAlpha"/>
<feOffset dy="4"/>
<feGaussianBlur stdDeviation="2"/>
<feComposite in2="hardAlpha" operator="out"/>
<feColorMatrix type="matrix" values="0 0 0 0 0 0 0 0 0 0 0 0 0 0 0 0 0 0 0.25 0"/>
<feBlend mode="normal" in2="BackgroundImageFix" result="effect1_dropShadow_63_3696"/>
<feBlend mode="normal" in="SourceGraphic" in2="effect1_dropShadow_63_3696" result="shape"/>
</filter>
<filter id="filter4_i_63_3696" x="129.353" y="177.687" width="11.4478" height="17.5917" filterUnits="userSpaceOnUse" color-interpolation-filters="sRGB">
<feFlood flood-opacity="0" result="BackgroundImageFix"/>
<feBlend mode="normal" in="SourceGraphic" in2="BackgroundImageFix" result="shape"/>
<feColorMatrix in="SourceAlpha" type="matrix" values="0 0 0 0 0 0 0 0 0 0 0 0 0 0 0 0 0 0 127 0" result="hardAlpha"/>
<feOffset dy="4"/>
<feGaussianBlur stdDeviation="2"/>
<feComposite in2="hardAlpha" operator="arithmetic" k2="-1" k3="1"/>
<feColorMatrix type="matrix" values="0 0 0 0 0 0 0 0 0 0 0 0 0 0 0 0 0 0 0.25 0"/>
<feBlend mode="normal" in2="shape" result="effect1_innerShadow_63_3696"/>
</filter>
<filter id="filter5_d_63_3696" x="134.673" y="106.615" width="43.3184" height="17.0829" filterUnits="userSpaceOnUse" color-interpolation-filters="sRGB">
<feFlood flood-opacity="0" result="BackgroundImageFix"/>
<feColorMatrix in="SourceAlpha" type="matrix" values="0 0 0 0 0 0 0 0 0 0 0 0 0 0 0 0 0 0 127 0" result="hardAlpha"/>
<feOffset dx="1" dy="3"/>
<feComposite in2="hardAlpha" operator="out"/>
<feColorMatrix type="matrix" values="0 0 0 0 0 0 0 0 0 0 0 0 0 0 0 0 0 0 0.25 0"/>
<feBlend mode="normal" in2="BackgroundImageFix" result="effect1_dropShadow_63_3696"/>
<feBlend mode="normal" in="SourceGraphic" in2="effect1_dropShadow_63_3696" result="shape"/>
</filter>
<filter id="filter6_i_63_3696" x="236.794" y="261.026" width="44.6333" height="62.2197" filterUnits="userSpaceOnUse" color-interpolation-filters="sRGB">
<feFlood flood-opacity="0" result="BackgroundImageFix"/>
<feBlend mode="normal" in="SourceGraphic" in2="BackgroundImageFix" result="shape"/>
<feColorMatrix in="SourceAlpha" type="matrix" values="0 0 0 0 0 0 0 0 0 0 0 0 0 0 0 0 0 0 127 0" result="hardAlpha"/>
<feOffset dx="-12" dy="-12"/>
<feComposite in2="hardAlpha" operator="arithmetic" k2="-1" k3="1"/>
<feColorMatrix type="matrix" values="0 0 0 0 0 0 0 0 0 0 0 0 0 0 0 0 0 0 0.25 0"/>
<feBlend mode="normal" in2="shape" result="effect1_innerShadow_63_3696"/>
</filter>
<filter id="filter7_i_63_3696" x="101.37" y="258.601" width="46.3655" height="66.7981" filterUnits="userSpaceOnUse" color-interpolation-filters="sRGB">
<feFlood flood-opacity="0" result="BackgroundImageFix"/>
<feBlend mode="normal" in="SourceGraphic" in2="BackgroundImageFix" result="shape"/>
<feColorMatrix in="SourceAlpha" type="matrix" values="0 0 0 0 0 0 0 0 0 0 0 0 0 0 0 0 0 0 127 0" result="hardAlpha"/>
<feOffset dx="10" dy="-12"/>
<feComposite in2="hardAlpha" operator="arithmetic" k2="-1" k3="1"/>
<feColorMatrix type="matrix" values="0 0 0 0 0 0 0 0 0 0 0 0 0 0 0 0 0 0 0.25 0"/>
<feBlend mode="normal" in2="shape" result="effect1_innerShadow_63_3696"/>
</filter>
<filter id="filter8_d_63_3696" x="120.062" y="279.327" width="145.251" height="104.932" filterUnits="userSpaceOnUse" color-interpolation-filters="sRGB">
<feFlood flood-opacity="0" result="BackgroundImageFix"/>
<feColorMatrix in="SourceAlpha" type="matrix" values="0 0 0 0 0 0 0 0 0 0 0 0 0 0 0 0 0 0 127 0" result="hardAlpha"/>
<feOffset dy="6"/>
<feComposite in2="hardAlpha" operator="out"/>
<feColorMatrix type="matrix" values="0 0 0 0 0 0 0 0 0 0 0 0 0 0 0 0 0 0 0.25 0"/>
<feBlend mode="normal" in2="BackgroundImageFix" result="effect1_dropShadow_63_3696"/>
<feBlend mode="normal" in="SourceGraphic" in2="effect1_dropShadow_63_3696" result="shape"/>
</filter>
<filter id="filter9_i_63_3696" x="102.599" y="300.183" width="41.2358" height="51.2749" filterUnits="userSpaceOnUse" color-interpolation-filters="sRGB">
<feFlood flood-opacity="0" result="BackgroundImageFix"/>
<feBlend mode="normal" in="SourceGraphic" in2="BackgroundImageFix" result="shape"/>
<feColorMatrix in="SourceAlpha" type="matrix" values="0 0 0 0 0 0 0 0 0 0 0 0 0 0 0 0 0 0 127 0" result="hardAlpha"/>
<feOffset dy="-10"/>
<feComposite in2="hardAlpha" operator="arithmetic" k2="-1" k3="1"/>
<feColorMatrix type="matrix" values="0 0 0 0 0 0 0 0 0 0 0 0 0 0 0 0 0 0 0.25 0"/>
<feBlend mode="normal" in2="shape" result="effect1_innerShadow_63_3696"/>
</filter>
<filter id="filter10_di_63_3696" x="242.496" y="302.982" width="35.9785" height="39.8055" filterUnits="userSpaceOnUse" color-interpolation-filters="sRGB">
<feFlood flood-opacity="0" result="BackgroundImageFix"/>
<feColorMatrix in="SourceAlpha" type="matrix" values="0 0 0 0 0 0 0 0 0 0 0 0 0 0 0 0 0 0 127 0" result="hardAlpha"/>
<feOffset dx="1" dy="3"/>
<feComposite in2="hardAlpha" operator="out"/>
<feColorMatrix type="matrix" values="0 0 0 0 0 0 0 0 0 0 0 0 0 0 0 0 0 0 0.25 0"/>
<feBlend mode="normal" in2="BackgroundImageFix" result="effect1_dropShadow_63_3696"/>
<feBlend mode="normal" in="SourceGraphic" in2="effect1_dropShadow_63_3696" result="shape"/>
<feColorMatrix in="SourceAlpha" type="matrix" values="0 0 0 0 0 0 0 0 0 0 0 0 0 0 0 0 0 0 127 0" result="hardAlpha"/>
<feOffset dx="-2" dy="-8"/>
<feComposite in2="hardAlpha" operator="arithmetic" k2="-1" k3="1"/>
<feColorMatrix type="matrix" values="0 0 0 0 0 0 0 0 0 0 0 0 0 0 0 0 0 0 0.25 0"/>
<feBlend mode="normal" in2="shape" result="effect2_innerShadow_63_3696"/>
</filter>
</defs>
</svg>
