<svg width="384" height="462" viewBox="0 0 384 462" fill="none" xmlns="http://www.w3.org/2000/svg">
<g filter="url(#filter0_i_63_3455)">
<path d="M204.609 306.996C327.373 198.781 380.248 336.493 372.369 330.366C303.316 256.582 326.442 418.11 237.257 380.731L204.609 306.996Z" fill="#FF7F00" stroke="black" stroke-width="6"/>
<mask id="mask0_63_3455" style="mask-type:alpha" maskUnits="userSpaceOnUse" x="210" y="268" width="156" height="115">
<path d="M210.101 308.497C311.377 210.789 371.815 323.242 364.469 317.529C298.815 270.932 320.345 409.649 240.502 377.304L210.101 308.497Z" fill="#FF7F00"/>
</mask>
<g mask="url(#mask0_63_3455)">
<path d="M397.609 276.25C264.874 259.358 281.542 332.154 283.868 324.754C316.761 285.464 361.845 382.607 403.323 319.595L397.609 276.25Z" fill="#FEC792"/>
<path d="M413.881 285.93C281.145 269.038 297.813 341.833 300.139 334.433C333.033 295.144 378.117 392.287 419.595 329.274L413.881 285.93Z" fill="#FEC792"/>
<path d="M396.682 248.753C263.946 231.862 280.614 304.657 282.94 297.257C315.834 257.968 360.918 355.11 402.396 292.098L396.682 248.753Z" fill="#FEC792"/>
</g>
</g>
<path d="M60.1213 236.202C60.1213 236.202 105.254 268.398 152.621 274.702L128.651 323.919C87.2284 314.594 51.4626 301.264 33.6509 268.919C15.8392 236.574 46.0319 224.906 60.1213 236.202Z" fill="#FF7F00" stroke="black" stroke-width="5"/>
<mask id="mask1_63_3455" style="mask-type:alpha" maskUnits="userSpaceOnUse" x="30" y="234" width="120" height="87">
<path d="M64.6816 241.5C64.6816 241.5 106.028 270.922 149.422 276.683L125.222 320C87.2746 311.478 49.6815 296 37.1817 270C17.4673 236.694 48.0947 226.059 64.6816 241.5Z" fill="#FF7F00"/>
</mask>
<g mask="url(#mask1_63_3455)">
<circle cx="50.6816" cy="255.5" r="30.5" fill="#882E15"/>
</g>
<path d="M122.451 377.275C96.2374 332.025 133.947 332.949 133.948 272L233.74 272C252.135 336.181 268.69 344.492 246.617 377.275C243.823 401.761 241.881 415.527 229.141 440.993C215.133 445.341 207.279 445.844 193.271 440.993C187.479 429.473 186.558 417.425 184.994 395.744C182.293 424.917 180.4 437.21 175.336 440.993C162.927 446.051 155.652 446.614 141.765 440.993C129.562 420.194 125.716 405.908 122.451 377.275Z" fill="#FF7F00" stroke="black" stroke-width="5" stroke-linejoin="round"/>
<path d="M219.681 327.181C219.681 355.899 200.206 379.181 176.181 379.181C138.743 382.428 114.674 360.258 132.681 327.181C132.681 298.462 152.157 275.181 176.181 275.181C200.206 275.181 219.681 298.462 219.681 327.181Z" fill="#FFD4A9"/>
<path d="M185.108 392.187C185.769 392.127 186.416 392.334 186.908 392.779C187.4 393.223 187.697 393.868 187.732 394.556C187.767 395.244 187.538 395.916 187.094 396.408C186.649 396.9 186.026 397.173 185.363 397.18C185.363 397.18 185.363 397.18 185.363 397.18C184.256 397.195 183.214 397.198 182.109 397.193C162.553 397.996 142.641 390.517 128.843 377.133C128.023 376.417 127.253 375.73 126.443 375C127.306 375.666 128.129 376.288 129 376.939C144.027 389.235 163.066 394.625 181.951 392.446C183.022 392.368 184.033 392.283 185.108 392.187Z" fill="black"/>
<path d="M297.182 354C295.682 334.5 270.418 300.153 233.182 272C225.945 275.817 223.32 279.585 227.182 296C238.201 314.319 242.452 326.349 248.182 349.5C249.542 362.271 238.892 370.5 243.682 383.5C247.182 393 259.617 398.097 275.182 394C290.713 387.896 296.9 381.021 297.182 354Z" fill="#FF7F00" stroke="black" stroke-width="5" stroke-linejoin="round"/>
<mask id="mask2_63_3455" style="mask-type:alpha" maskUnits="userSpaceOnUse" x="225" y="272" width="70" height="122">
<path d="M294.682 352.5C292.182 343 269.08 299.827 232.766 272C225.709 275.773 223.149 279.497 226.915 295.723C237.661 313.83 245.093 325.116 250.682 348C252.008 360.624 241.681 370 245.181 381.5C248.297 391.737 265.181 395.5 275.182 391.5C290.182 385.5 295.182 377.5 294.682 352.5Z" fill="#FF7F00"/>
</mask>
<g mask="url(#mask2_63_3455)">
<circle cx="32.5" cy="32.5" r="32.5" transform="matrix(-1 0 0 1 301.182 338)" fill="#882E15"/>
</g>
<path d="M247.379 391.815C247.914 390.237 248.449 388.658 248.984 387.08C249.382 387.259 249.784 387.4 250.2 387.505C258.483 389.161 266.251 378.165 268.342 368.679C268.47 368.124 268.584 367.564 268.682 367C268.666 367.572 268.636 368.145 268.59 368.717C267.449 378.314 263.301 391.725 249.488 392.202C248.777 392.136 248.075 392.007 247.379 391.815Z" fill="black"/>
<path d="M274.271 396.43C273.211 395.143 272.152 393.857 271.092 392.57C271.528 392.265 271.961 391.95 272.387 391.629C279.989 386.097 286.201 376.564 282.751 366.59C282.577 366.046 282.395 365.534 282.182 365C282.47 365.498 282.73 365.978 282.983 366.497C288.097 375.894 283.033 387.975 275.538 395.183C275.124 395.606 274.7 396.023 274.271 396.43Z" fill="black"/>
<g filter="url(#filter1_i_63_3455)">
<path d="M140.399 453.925C131.93 454.097 128.064 440.827 135.344 435.872C142.623 430.917 145.273 436.189 145.273 436.189C153.598 431.239 158.315 431.798 166.788 436.877C166.788 436.877 174.524 433.075 176.055 437.173C177.586 441.271 178.607 454.738 171.524 454.575L140.399 453.925Z" fill="#882E15" stroke="black" stroke-width="4" stroke-linejoin="round"/>
<path d="M143.406 455.788C144.257 455.263 145.107 454.737 145.958 454.212C145.812 454.022 145.667 453.821 145.528 453.617C143.167 449.891 141.476 444.752 143.279 440.206C143.396 439.962 143.529 439.726 143.682 439.5C143.491 439.694 143.313 439.905 143.15 440.129C140.45 444.473 141.083 450.117 143.021 454.972C143.14 455.245 143.27 455.52 143.406 455.788Z" fill="black"/>
<path d="M157.555 455.288C158.406 454.763 159.257 454.237 160.108 453.712C159.961 453.522 159.816 453.321 159.677 453.117C157.316 449.391 155.626 444.252 157.428 439.706C157.545 439.462 157.679 439.226 157.831 439C157.64 439.194 157.463 439.405 157.299 439.629C154.6 443.973 155.233 449.617 157.17 454.472C157.289 454.745 157.419 455.02 157.555 455.288Z" fill="black"/>
</g>
<g filter="url(#filter2_i_63_3455)">
<path d="M198.057 453.85C193.277 451.864 189.479 438.55 193.001 435.797C196.523 433.044 202.931 436.114 202.931 436.114C211.256 431.164 215.973 431.723 224.445 436.802C224.445 436.802 231.928 434.507 233.713 437.098C235.497 439.69 234.166 443.881 233.395 447.028C231.21 452.512 229.505 454.805 223.874 454.676L198.057 453.85Z" fill="#882E15" stroke="black" stroke-width="4" stroke-linejoin="round"/>
<path d="M206.61 440.476C202.377 444.962 200.508 446.943 205.242 453.632C207.933 452.393 201.151 446.875 206.658 440.425L206.61 440.476Z" stroke="black" stroke-width="2" stroke-linejoin="round"/>
<path d="M218.609 440.86C222.547 445.607 224.285 447.703 219.133 454.076C216.528 452.668 223.648 447.594 218.564 440.805L218.609 440.86Z" stroke="black" stroke-width="2" stroke-linejoin="round"/>
</g>
<path opacity="0.2" d="M245.508 266.234C242.706 272.936 215.573 295.957 181.566 291.958C147.558 287.96 125.329 273.563 125.716 270.272C126.103 266.981 155.042 286.326 182.967 280.04C205.023 285.135 245.895 262.942 245.508 266.234Z" fill="black"/>
<g filter="url(#filter3_d_63_3455)">
<path d="M170.782 256.117C123.298 286.107 147.934 305.254 146.732 302.233C147.013 280.707 187.292 300.154 184.086 268.642L170.782 256.117Z" fill="#FEBB7A"/>
<path d="M188.222 259.607C222.611 303.764 192.873 313.502 195.039 311.064C202.153 290.72 157.598 295.487 171.413 266.921L188.222 259.607Z" fill="#FEBB7A"/>
<path d="M188.557 276.016C195.007 325.952 172.534 313.702 153.597 328.891C170.766 299.982 138.57 285.324 170.239 264.806L188.557 276.016Z" fill="#FEBB7A"/>
<path d="M186.636 239.551C105.862 260.117 131.89 298.626 131.576 293.791C141.821 263.417 189.8 309.576 199.692 263.444L186.636 239.551Z" fill="#FEBB7A"/>
<path d="M190.178 252.767C245.531 288.074 216.321 310.524 217.775 306.978C217.751 281.691 170.16 304.468 174.372 267.458L190.178 252.767Z" fill="#FEBB7A"/>
<path d="M186.308 237.577C187.141 237.439 187.979 237.84 188.39 238.592L197.493 255.249C220.237 271.206 226.394 284.685 226.188 294.485C226.077 299.765 224.107 303.747 222.215 306.192C221.287 307.392 220.314 308.305 219.499 308.812C219.29 308.943 219.042 309.077 218.772 309.177C218.56 309.255 218.068 309.416 217.479 309.31C217.143 309.249 216.726 309.092 216.365 308.74C215.999 308.383 215.823 307.957 215.757 307.591C215.697 307.263 215.721 306.965 215.77 306.723C215.729 304.025 215.077 302.107 214.086 300.677C213.055 299.188 211.542 298.06 209.563 297.161C208.745 296.789 207.861 296.465 206.919 296.172C206.869 298.973 206.374 301.407 205.586 303.51C203.983 307.792 201.236 310.482 198.983 311.941C197.882 312.654 196.809 313.13 195.967 313.317C195.749 313.365 195.492 313.406 195.219 313.41C195.008 313.413 194.502 313.402 193.99 313.109C193.697 312.941 193.361 312.656 193.141 312.208C192.918 311.755 192.893 311.3 192.951 310.939C193.001 310.627 193.113 310.367 193.23 310.164C193.932 308.044 193.942 306.385 193.571 305.024C193.181 303.596 192.322 302.301 191.016 301.04C191.001 301.025 190.986 301.011 190.971 300.997C190.813 301.937 190.63 302.832 190.422 303.684C188.816 310.246 185.749 314.289 181.752 317.117C177.898 319.843 173.194 321.399 168.664 323.114C164.037 324.866 159.327 326.859 154.848 330.451C154.094 331.056 153.015 331.035 152.285 330.401C151.555 329.767 151.384 328.701 151.877 327.87C160.004 314.187 156.497 304.107 154.519 294.089C154.508 294.037 154.499 293.984 154.489 293.932C154.309 294.005 154.132 294.08 153.96 294.158C152.297 294.907 151.041 295.839 150.184 297.054C149.365 298.214 148.805 299.78 148.739 302.011C148.78 302.241 148.796 302.522 148.736 302.83C148.667 303.189 148.49 303.607 148.128 303.955C147.771 304.298 147.361 304.452 147.031 304.511C146.45 304.615 145.97 304.456 145.771 304.382C145.516 304.287 145.287 304.161 145.098 304.042C144.368 303.583 143.521 302.772 142.728 301.73C141.106 299.598 139.442 296.141 139.401 291.572C139.386 289.878 139.593 288.062 140.088 286.132C139.434 286.451 138.816 286.824 138.238 287.258C136.355 288.672 134.731 290.833 133.561 294.173C133.533 294.441 133.46 294.762 133.284 295.083C133.102 295.414 132.797 295.765 132.334 295.99C131.877 296.213 131.427 296.234 131.081 296.186C130.471 296.1 130.033 295.783 129.832 295.623C129.584 295.425 129.366 295.194 129.18 294.971C128.457 294.1 127.681 292.677 127.064 290.906C125.81 287.308 125.064 281.861 127.025 275.599C130.968 263 145.527 247.954 186.142 237.612L186.308 237.577ZM144.847 302.899L144.874 302.972C144.862 302.943 144.854 302.912 144.843 302.882C144.845 302.888 144.846 302.894 144.847 302.899ZM129.579 293.854L129.58 293.921L129.578 293.849C129.578 293.851 129.579 293.852 129.579 293.854Z" stroke="black" stroke-width="4" stroke-linejoin="round"/>
</g>
<path d="M114.092 27.146C114.092 27.146 78.5529 44.6663 93.7601 145.289C87.5752 159.413 82.4196 174.099 83.8857 185.133C95.0158 268.895 303.508 264.19 302.502 216.837C303.835 208.243 305.361 205.83 301.074 179.865C339.575 99.2159 339.741 77.99 320.161 62.3917C290.099 66.5138 275.288 74.3096 250.52 92.6436C220.297 79.8068 203.048 75.8782 171.455 77.7798C171.455 77.7798 132.244 20.5889 114.092 27.146Z" fill="#FF7F00"/>
<mask id="mask3_63_3455" style="mask-type:alpha" maskUnits="userSpaceOnUse" x="83" y="26" width="251" height="225">
<path d="M114.092 27.146C114.092 27.146 78.5529 44.6663 93.7601 145.289C87.5752 159.413 82.4196 174.099 83.8857 185.133C95.0158 268.895 303.508 264.19 302.502 216.837C303.835 208.243 305.361 205.83 301.074 179.865C339.575 99.2159 339.741 77.99 320.161 62.3917C290.099 66.5138 275.288 74.3096 250.52 92.6436C220.297 79.8068 203.048 75.8782 171.455 77.7798C171.455 77.7798 132.244 20.5889 114.092 27.146Z" fill="#FF7F00"/>
</mask>
<g mask="url(#mask3_63_3455)">
<path d="M122.013 73.8985L94.7632 72.5037C97.6691 35.4403 105.112 32.698 118.24 27.3473C129.559 28.5824 134.051 32.4092 140.506 41.8633C143.333 45.9007 143.698 48.3704 142.898 53.0225C136.976 46.5895 134.452 45.3014 131.501 47.5125L122.013 73.8985Z" fill="#8E340F"/>
<path d="M298.279 104.08L323.769 118.29C336.979 86.4644 335.079 79.0026 327.07 67.3057C316.942 62.1015 311.085 62.8212 300.49 67.1562C295.907 68.9687 294.242 70.8287 292.347 75.1522C300.833 73.0453 303.649 73.3602 304.894 76.8312L298.279 104.08Z" fill="#8E340F"/>
</g>
<g filter="url(#filter4_i_63_3455)">
<path d="M71.0523 179.191C73.6206 178.66 75.8616 179.584 93.7986 188.631C114.479 207.582 132.176 215.173 187.659 216.812C222.099 227.473 232.71 242.909 299.389 218.513L310.26 222.299C308.978 232.117 305.378 236.971 294.739 242.697C301.31 242.892 303.724 243.543 305.274 245.86C297.891 260.373 292.052 266.895 270.884 264.769C186.743 304.533 157.469 294.306 94.0758 234.655C65.9466 222.58 64.1393 214.98 67.8382 203.807L77.2245 205.581C71.9706 196.089 69.6026 189.391 71.0523 179.191Z" fill="#FEC792"/>
</g>
<path d="M235.363 155.204C269.993 158.682 274.663 214.319 238.67 224.417C200.888 223.4 197.561 162.063 235.363 155.204Z" fill="#242424"/>
<g filter="url(#filter5_d_63_3455)">
<path d="M230.954 166.751C248.41 172.832 250.336 192.387 232.217 198.866C213.68 192.005 216.746 176.376 230.954 166.751Z" fill="#F4F3F3"/>
</g>
<g filter="url(#filter6_i_63_3455)">
<path d="M245.718 203.38C252.695 205.811 253.466 213.628 246.223 216.218C238.813 213.475 240.039 207.227 245.718 203.38Z" fill="#3E3E3E"/>
</g>
<g filter="url(#filter7_d_63_3455)">
<path d="M231.418 130.121C241.507 129.906 267.396 132.759 264.329 148.674C261.266 149.726 262.828 149.732 259.527 148.039C256.512 146.27 252.232 143.897 248.939 142.984C241.466 140.914 229.925 143.267 224.05 138.041L224.016 135.802C226.267 132.364 227.884 131.949 231.418 130.121Z" fill="#FEC792"/>
</g>
<path d="M165.977 142.575C133.351 130.456 104.671 178.358 132.546 203.267C166.919 218.983 196.902 165.371 165.977 142.575Z" fill="#242424"/>
<g filter="url(#filter8_d_63_3455)">
<path d="M168.812 151.217C151.382 149.106 141.565 164.977 154.309 178.078C172.986 179.975 176.905 165.364 168.812 151.217Z" fill="#F4F3F3"/>
</g>
<g filter="url(#filter9_i_63_3455)">
<path d="M134.489 180.843C126.252 179.845 121.612 187.346 127.635 193.537C136.461 194.433 138.314 187.529 134.489 180.843Z" fill="#3E3E3E"/>
</g>
<g filter="url(#filter10_d_63_3455)">
<path d="M180.56 121.788C171.595 117.154 147.093 108.322 142.842 123.962C145.13 126.255 143.725 125.573 147.434 125.506C150.919 125.244 155.807 124.997 159.166 125.626C166.787 127.057 176.114 134.249 183.69 132.142L184.707 130.147C184.198 126.069 182.929 124.985 180.56 121.788Z" fill="#FEC792"/>
</g>
<path d="M114.092 27.146C114.092 27.146 78.5529 44.6663 93.7601 145.289C87.7434 157.49 84.6756 164.619 81.0135 179.05C76.9934 176.972 74.3448 176.619 68.9452 177.515C66.7006 183.47 67.9663 189.248 72.1965 201.461C69.4102 200.728 67.9329 200.805 65.5873 202.609C62.7411 219.436 73.2631 226.035 93.2129 237.528C156.554 293.746 195.684 299.839 271.601 267.595C294.505 266.891 301.396 260.866 308.579 245.286C306.946 242.837 305.525 241.823 301.491 241.07C309.324 234.55 311.678 229.822 313.517 220.144C309.349 219.308 307.097 219.123 302.502 216.837C303.835 208.243 305.361 205.83 301.074 179.865C339.575 99.2159 339.741 77.99 320.161 62.3917C290.099 66.5138 275.288 74.3096 250.52 92.6436C220.297 79.8068 203.048 75.8782 171.455 77.7798C171.455 77.7798 132.244 20.5889 114.092 27.146Z" stroke="black" stroke-width="6"/>
<path d="M195.182 244.5C195.192 258.442 165.59 257.887 170.682 239.5C177.77 238.928 181.676 235.389 186.182 231C188.413 235.369 188.271 239.153 195.182 244.5Z" fill="#68142C" stroke="#242424" stroke-width="4"/>
<mask id="mask4_63_3455" style="mask-type:alpha" maskUnits="userSpaceOnUse" x="172" y="231" width="22" height="22">
<path d="M193.182 245.5C191.182 254.5 170.682 256 172.182 241.5C179.27 240.928 181.677 235.389 186.183 231C188.414 235.369 186.271 240.153 193.182 245.5Z" fill="#68142C"/>
</mask>
<g mask="url(#mask4_63_3455)">
<circle cx="177.682" cy="251.5" r="6.5" fill="#FF8282"/>
<circle cx="184.682" cy="252.5" r="6.5" fill="#FF8282"/>
</g>
<path d="M187.507 220.264C187.802 244.288 157.502 245.368 151.226 225.757" stroke="#242424" stroke-width="4"/>
<path d="M188.552 220.473C179.042 242.536 206.597 255.184 219.932 239.495" stroke="#242424" stroke-width="4"/>
<ellipse cx="188.547" cy="216.638" rx="15" ry="8" transform="rotate(14.481 188.547 216.638)" fill="#242424"/>
<path d="M114.692 46.1199C103.676 53.2534 101.644 143.48 107.585 130.646C113.527 117.813 143.897 86.2113 153.858 86.0699C163.773 79.1279 125.709 38.9865 114.692 46.1199Z" fill="#FEC792" stroke="black" stroke-width="6"/>
<path d="M317.408 80.359C328.518 86.8269 295.468 174.614 293.305 160.638C291.143 146.662 277.653 108.314 268.119 105.425C260.509 96.0125 306.299 73.8911 317.408 80.359Z" fill="#FEC792" stroke="black" stroke-width="6"/>
<path d="M117.472 76.8525C125.496 68.2754 131.026 65.2671 147.357 71.2079L153.954 84.0107L118.279 108.94C119.138 96.8219 119.09 89.8766 130.881 80.8783C126.378 76.8615 123.323 76.3782 117.472 76.8525Z" fill="#FF7F00" stroke="black" stroke-width="5" stroke-linejoin="round"/>
<path d="M303.378 114.919C301.405 103.34 298.447 97.784 281.544 93.7463L268.986 100.798C277.293 112.359 283.712 118.678 290.097 140.026C296.055 129.438 294.853 124.898 289.969 110.893C295.94 110.021 298.756 111.301 303.378 114.919Z" fill="#FF7F00" stroke="black" stroke-width="5" stroke-linejoin="round"/>
<path d="M17.3739 229.708C17.3739 229.708 17.3739 229.708 17.3739 229.708C17.6416 229.126 17.9778 228.594 18.3562 228.1C21.9492 223.876 27.1513 221.808 32.1036 219.695C37.1527 217.754 42.3155 215.774 47.9139 215.728C48.5468 215.747 49.1754 215.807 49.8 215.93C49.8 215.93 49.8 215.93 49.8 215.93C49.2806 215.562 48.6991 215.248 48.0801 214.987C42.4184 212.796 36.0727 213.847 30.6096 215.984C25.2421 218.222 19.6705 221.898 17.6752 227.763C17.4885 228.41 17.381 229.068 17.3739 229.708Z" fill="black" fill-opacity="0.5"/>
<path d="M0.616835 239.227C0.616835 239.227 0.616835 239.227 0.616835 239.227C0.616337 238.587 0.698933 237.963 0.835848 237.356C2.33048 232.015 6.18937 227.959 9.80226 223.967C13.5755 220.091 17.4355 216.132 22.5004 213.747C23.0833 213.499 23.6791 213.291 24.298 213.141C24.298 213.141 24.298 213.141 24.298 213.141C23.672 213.024 23.0127 212.982 22.341 213.004C16.2823 213.385 10.9592 216.995 6.89223 221.223C2.9546 225.502 -0.566917 231.172 0.0761471 237.334C0.177258 238 0.3551 238.642 0.616835 239.227Z" fill="black" fill-opacity="0.5"/>
<path d="M11.0312 257.392C11.0312 257.392 11.0312 257.392 11.0312 257.392C10.7929 257.037 10.6112 256.666 10.465 256.289C9.3631 252.884 9.81715 249.443 9.93607 246.031C10.1946 242.616 10.2247 239.161 11.3843 235.709C11.5329 235.323 11.7048 234.945 11.9185 234.577C11.9185 234.577 11.9185 234.577 11.9185 234.577C11.5278 234.745 11.1465 234.973 10.7845 235.243C7.57495 237.798 6.20023 241.926 5.94277 245.8C5.75981 249.64 6.60204 254.101 9.86939 256.761C10.2355 257.03 10.6287 257.248 11.0312 257.392Z" fill="black" fill-opacity="0.5"/>
<ellipse opacity="0.4" cx="182.182" cy="455.5" rx="78" ry="5.5" fill="black"/>
<defs>
<filter id="filter0_i_63_3455" x="200.975" y="262.375" width="175.158" height="127.055" filterUnits="userSpaceOnUse" color-interpolation-filters="sRGB">
<feFlood flood-opacity="0" result="BackgroundImageFix"/>
<feBlend mode="normal" in="SourceGraphic" in2="BackgroundImageFix" result="shape"/>
<feColorMatrix in="SourceAlpha" type="matrix" values="0 0 0 0 0 0 0 0 0 0 0 0 0 0 0 0 0 0 127 0" result="hardAlpha"/>
<feOffset dx="-7" dy="-19"/>
<feComposite in2="hardAlpha" operator="arithmetic" k2="-1" k3="1"/>
<feColorMatrix type="matrix" values="0 0 0 0 0 0 0 0 0 0 0 0 0 0 0 0 0 0 0.25 0"/>
<feBlend mode="normal" in2="shape" result="effect1_innerShadow_63_3455"/>
</filter>
<filter id="filter1_i_63_3455" x="129.513" y="430.758" width="49.6499" height="25.8188" filterUnits="userSpaceOnUse" color-interpolation-filters="sRGB">
<feFlood flood-opacity="0" result="BackgroundImageFix"/>
<feBlend mode="normal" in="SourceGraphic" in2="BackgroundImageFix" result="shape"/>
<feColorMatrix in="SourceAlpha" type="matrix" values="0 0 0 0 0 0 0 0 0 0 0 0 0 0 0 0 0 0 127 0" result="hardAlpha"/>
<feOffset dy="-9"/>
<feComposite in2="hardAlpha" operator="arithmetic" k2="-1" k3="1"/>
<feColorMatrix type="matrix" values="0 0 0 0 0 0 0 0 0 0 0 0 0 0 0 0 0 0 0.25 0"/>
<feBlend mode="normal" in2="shape" result="effect1_innerShadow_63_3455"/>
</filter>
<filter id="filter2_i_63_3455" x="189.625" y="430.683" width="46.9756" height="25.9979" filterUnits="userSpaceOnUse" color-interpolation-filters="sRGB">
<feFlood flood-opacity="0" result="BackgroundImageFix"/>
<feBlend mode="normal" in="SourceGraphic" in2="BackgroundImageFix" result="shape"/>
<feColorMatrix in="SourceAlpha" type="matrix" values="0 0 0 0 0 0 0 0 0 0 0 0 0 0 0 0 0 0 127 0" result="hardAlpha"/>
<feOffset dy="-9"/>
<feComposite in2="hardAlpha" operator="arithmetic" k2="-1" k3="1"/>
<feColorMatrix type="matrix" values="0 0 0 0 0 0 0 0 0 0 0 0 0 0 0 0 0 0 0.25 0"/>
<feBlend mode="normal" in2="shape" result="effect1_innerShadow_63_3455"/>
</filter>
<filter id="filter3_d_63_3455" x="123.821" y="235.55" width="104.372" height="100.341" filterUnits="userSpaceOnUse" color-interpolation-filters="sRGB">
<feFlood flood-opacity="0" result="BackgroundImageFix"/>
<feColorMatrix in="SourceAlpha" type="matrix" values="0 0 0 0 0 0 0 0 0 0 0 0 0 0 0 0 0 0 127 0" result="hardAlpha"/>
<feOffset dy="3"/>
<feComposite in2="hardAlpha" operator="out"/>
<feColorMatrix type="matrix" values="0 0 0 0 0 0 0 0 0 0 0 0 0 0 0 0 0 0 0.25 0"/>
<feBlend mode="normal" in2="BackgroundImageFix" result="effect1_dropShadow_63_3455"/>
<feBlend mode="normal" in="SourceGraphic" in2="effect1_dropShadow_63_3455" result="shape"/>
</filter>
<filter id="filter4_i_63_3455" x="66.4126" y="179.072" width="243.847" height="109.454" filterUnits="userSpaceOnUse" color-interpolation-filters="sRGB">
<feFlood flood-opacity="0" result="BackgroundImageFix"/>
<feBlend mode="normal" in="SourceGraphic" in2="BackgroundImageFix" result="shape"/>
<feColorMatrix in="SourceAlpha" type="matrix" values="0 0 0 0 0 0 0 0 0 0 0 0 0 0 0 0 0 0 127 0" result="hardAlpha"/>
<feOffset dx="-1" dy="-9"/>
<feComposite in2="hardAlpha" operator="arithmetic" k2="-1" k3="1"/>
<feColorMatrix type="matrix" values="0 0 0 0 0 0 0 0 0 0 0 0 0 0 0 0 0 0 0.25 0"/>
<feBlend mode="normal" in2="shape" result="effect1_innerShadow_63_3455"/>
</filter>
<filter id="filter5_d_63_3455" x="215.297" y="166.751" width="33.6558" height="40.1154" filterUnits="userSpaceOnUse" color-interpolation-filters="sRGB">
<feFlood flood-opacity="0" result="BackgroundImageFix"/>
<feColorMatrix in="SourceAlpha" type="matrix" values="0 0 0 0 0 0 0 0 0 0 0 0 0 0 0 0 0 0 127 0" result="hardAlpha"/>
<feOffset dy="4"/>
<feGaussianBlur stdDeviation="2"/>
<feComposite in2="hardAlpha" operator="out"/>
<feColorMatrix type="matrix" values="0 0 0 0 0 0 0 0 0 0 0 0 0 0 0 0 0 0 0.25 0"/>
<feBlend mode="normal" in2="BackgroundImageFix" result="effect1_dropShadow_63_3455"/>
<feBlend mode="normal" in="SourceGraphic" in2="effect1_dropShadow_63_3455" result="shape"/>
</filter>
<filter id="filter6_i_63_3455" x="241.058" y="203.38" width="10.2554" height="16.8373" filterUnits="userSpaceOnUse" color-interpolation-filters="sRGB">
<feFlood flood-opacity="0" result="BackgroundImageFix"/>
<feBlend mode="normal" in="SourceGraphic" in2="BackgroundImageFix" result="shape"/>
<feColorMatrix in="SourceAlpha" type="matrix" values="0 0 0 0 0 0 0 0 0 0 0 0 0 0 0 0 0 0 127 0" result="hardAlpha"/>
<feOffset dy="4"/>
<feGaussianBlur stdDeviation="2"/>
<feComposite in2="hardAlpha" operator="arithmetic" k2="-1" k3="1"/>
<feColorMatrix type="matrix" values="0 0 0 0 0 0 0 0 0 0 0 0 0 0 0 0 0 0 0.25 0"/>
<feBlend mode="normal" in2="shape" result="effect1_innerShadow_63_3455"/>
</filter>
<filter id="filter7_d_63_3455" x="224.016" y="130.11" width="41.5645" height="22.2899" filterUnits="userSpaceOnUse" color-interpolation-filters="sRGB">
<feFlood flood-opacity="0" result="BackgroundImageFix"/>
<feColorMatrix in="SourceAlpha" type="matrix" values="0 0 0 0 0 0 0 0 0 0 0 0 0 0 0 0 0 0 127 0" result="hardAlpha"/>
<feOffset dx="1" dy="3"/>
<feComposite in2="hardAlpha" operator="out"/>
<feColorMatrix type="matrix" values="0 0 0 0 0 0 0 0 0 0 0 0 0 0 0 0 0 0 0.25 0"/>
<feBlend mode="normal" in2="BackgroundImageFix" result="effect1_dropShadow_63_3455"/>
<feBlend mode="normal" in="SourceGraphic" in2="effect1_dropShadow_63_3455" result="shape"/>
</filter>
<filter id="filter8_d_63_3455" x="144.515" y="151.027" width="32.2876" height="35.2181" filterUnits="userSpaceOnUse" color-interpolation-filters="sRGB">
<feFlood flood-opacity="0" result="BackgroundImageFix"/>
<feColorMatrix in="SourceAlpha" type="matrix" values="0 0 0 0 0 0 0 0 0 0 0 0 0 0 0 0 0 0 127 0" result="hardAlpha"/>
<feOffset dy="4"/>
<feGaussianBlur stdDeviation="2"/>
<feComposite in2="hardAlpha" operator="out"/>
<feColorMatrix type="matrix" values="0 0 0 0 0 0 0 0 0 0 0 0 0 0 0 0 0 0 0.25 0"/>
<feBlend mode="normal" in2="BackgroundImageFix" result="effect1_dropShadow_63_3455"/>
<feBlend mode="normal" in="SourceGraphic" in2="effect1_dropShadow_63_3455" result="shape"/>
</filter>
<filter id="filter9_i_63_3455" x="124.896" y="180.753" width="11.478" height="16.863" filterUnits="userSpaceOnUse" color-interpolation-filters="sRGB">
<feFlood flood-opacity="0" result="BackgroundImageFix"/>
<feBlend mode="normal" in="SourceGraphic" in2="BackgroundImageFix" result="shape"/>
<feColorMatrix in="SourceAlpha" type="matrix" values="0 0 0 0 0 0 0 0 0 0 0 0 0 0 0 0 0 0 127 0" result="hardAlpha"/>
<feOffset dy="4"/>
<feGaussianBlur stdDeviation="2"/>
<feComposite in2="hardAlpha" operator="arithmetic" k2="-1" k3="1"/>
<feColorMatrix type="matrix" values="0 0 0 0 0 0 0 0 0 0 0 0 0 0 0 0 0 0 0.25 0"/>
<feBlend mode="normal" in2="shape" result="effect1_innerShadow_63_3455"/>
</filter>
<filter id="filter10_d_63_3455" x="142.842" y="115.081" width="42.8647" height="20.4449" filterUnits="userSpaceOnUse" color-interpolation-filters="sRGB">
<feFlood flood-opacity="0" result="BackgroundImageFix"/>
<feColorMatrix in="SourceAlpha" type="matrix" values="0 0 0 0 0 0 0 0 0 0 0 0 0 0 0 0 0 0 127 0" result="hardAlpha"/>
<feOffset dx="1" dy="3"/>
<feComposite in2="hardAlpha" operator="out"/>
<feColorMatrix type="matrix" values="0 0 0 0 0 0 0 0 0 0 0 0 0 0 0 0 0 0 0.25 0"/>
<feBlend mode="normal" in2="BackgroundImageFix" result="effect1_dropShadow_63_3455"/>
<feBlend mode="normal" in="SourceGraphic" in2="effect1_dropShadow_63_3455" result="shape"/>
</filter>
</defs>
</svg>
