<svg width="374" height="450" viewBox="0 0 374 450" fill="none" xmlns="http://www.w3.org/2000/svg">
<g filter="url(#filter0_i_63_3250)">
<path d="M227.596 382.925C355.008 442.98 365.731 316.467 360.686 323.419C321.274 400.959 301.7 261.883 236.924 314.148L227.596 382.925Z" fill="#FF7F00" stroke="black" stroke-width="6"/>
<mask id="mask0_63_3250" style="mask-type:alpha" maskUnits="userSpaceOnUse" x="231" y="305" width="127" height="92">
<path d="M231.777 380.369C338.908 436.885 361.935 329.442 357.23 335.925C314.116 390.173 298.686 270.338 240.428 316.204L231.777 380.369Z" fill="#FF7F00"/>
</mask>
<g mask="url(#mask0_63_3250)">
<path d="M394.515 362.111C288.829 407.871 285.171 343.699 288.866 349.259C325.471 373.86 339.472 282.753 388.856 324.91L394.515 362.111Z" fill="#FEC792"/>
<path d="M405.648 350.211C299.962 395.971 296.304 331.799 299.999 337.359C336.604 361.96 350.605 270.853 399.989 313.009L405.648 350.211Z" fill="#FEC792"/>
<path d="M400.335 385.065C294.648 430.825 290.99 366.653 294.685 372.213C331.29 396.814 345.292 305.707 394.676 347.863L400.335 385.065Z" fill="#FEC792"/>
</g>
</g>
<path d="M123.282 364.274C97.069 319.025 134.779 319.948 134.779 259L234.572 259C252.966 323.18 269.522 331.492 247.448 364.274C244.655 388.761 242.712 402.526 229.973 427.993C215.965 432.341 208.111 432.843 194.103 427.993C188.311 416.473 187.389 404.425 185.825 382.744C183.125 411.917 181.231 424.21 176.168 427.993C163.758 433.05 156.484 433.613 142.597 427.993C130.394 407.194 126.547 392.907 123.282 364.274Z" fill="#FF7F00" stroke="black" stroke-width="5" stroke-linejoin="round"/>
<path d="M230.743 312.137C241.715 346.287 210.648 365 185.858 365C161.069 365 127.507 348.626 137.981 312.137C137.981 281.133 161.069 256 185.858 256C210.648 256 230.743 281.133 230.743 312.137Z" fill="#FFD4A9"/>
<path d="M157.013 374C157.993 374.492 158.919 374.949 159.91 375.413C168.601 379.505 178.097 382.626 188.014 382.622C197.936 382.676 207.439 379.504 216.115 375.41C217.104 374.946 218.034 374.489 219.013 374C217.962 374.303 216.965 374.582 215.917 374.876C206.663 377.456 197.368 379.679 188.019 379.622C178.669 379.631 169.366 377.453 160.109 374.879C159.059 374.584 158.067 374.306 157.013 374Z" fill="black"/>
<g filter="url(#filter1_i_63_3250)">
<path d="M142.888 440.85C138.109 438.864 134.311 425.55 137.833 422.797C141.355 420.044 147.762 423.114 147.762 423.114C156.087 418.164 160.804 418.723 169.277 423.802C169.277 423.802 176.76 421.507 178.544 424.098C180.329 426.69 178.997 430.881 178.227 434.028C176.042 439.512 174.337 441.805 168.705 441.675L142.888 440.85Z" fill="#882E15" stroke="black" stroke-width="4" stroke-linejoin="round"/>
<path d="M151.441 427.476C147.209 431.962 145.34 433.943 150.074 440.632C152.764 439.393 145.983 433.875 151.49 427.424L151.441 427.476Z" stroke="black" stroke-width="2" stroke-linejoin="round"/>
<path d="M163.441 427.859C167.378 432.607 169.117 434.703 163.965 441.076C161.359 439.668 168.479 434.594 163.395 427.805L163.441 427.859Z" stroke="black" stroke-width="2" stroke-linejoin="round"/>
</g>
<g filter="url(#filter2_i_63_3250)">
<path d="M198.888 440.85C194.109 438.864 190.311 425.55 193.833 422.797C197.355 420.044 203.762 423.114 203.762 423.114C212.087 418.164 216.804 418.723 225.277 423.802C225.277 423.802 232.76 421.507 234.544 424.098C236.329 426.69 234.997 430.881 234.227 434.028C232.042 439.512 230.337 441.805 224.705 441.675L198.888 440.85Z" fill="#882E15" stroke="black" stroke-width="4" stroke-linejoin="round"/>
<path d="M207.441 427.476C203.209 431.962 201.34 433.943 206.074 440.632C208.764 439.393 201.983 433.875 207.49 427.424L207.441 427.476Z" stroke="black" stroke-width="2" stroke-linejoin="round"/>
<path d="M219.441 427.859C223.378 432.607 225.117 434.703 219.965 441.076C217.359 439.668 224.479 434.594 219.395 427.805L219.441 427.859Z" stroke="black" stroke-width="2" stroke-linejoin="round"/>
</g>
<path opacity="0.2" d="M246.339 253.233C243.537 259.936 216.404 282.957 182.397 278.958C148.39 274.959 126.161 260.563 126.548 257.272C126.935 253.981 155.873 273.326 183.798 267.04C205.854 272.135 246.726 249.942 246.339 253.233Z" fill="black"/>
<g filter="url(#filter3_d_63_3250)">
<path d="M175.263 242.071C133.712 279.855 161.3 294.43 159.592 291.664C156.128 270.416 199.173 282.569 190.541 252.094L175.263 242.071Z" fill="#FEBB7A"/>
<path d="M193.044 242.477C234.582 279.988 206.989 294.745 208.698 291.967C212.169 270.697 169.12 283.133 177.762 252.601L193.044 242.477Z" fill="#FEBB7A"/>
<path d="M196.226 258.579C211.253 306.635 186.994 298.476 170.983 316.724C182.869 285.272 148.616 276.43 176.238 250.721L196.226 258.579Z" fill="#FEBB7A"/>
<path d="M187.998 223.002C112.026 257.29 144.349 290.69 143.199 285.984C148.011 254.291 203.281 291.413 205.006 244.263L187.998 223.002Z" fill="#FEBB7A"/>
<path d="M193.783 235.402C254.428 260.555 229.562 287.739 230.378 283.994C225.961 259.095 183.052 289.795 180.77 252.616L193.783 235.402Z" fill="#FEBB7A"/>
<path d="M187.332 221.115C188.128 220.834 189.024 221.084 189.559 221.753L201.417 236.575C226.588 248.338 234.993 260.542 236.493 270.228C237.301 275.448 236.052 279.711 234.614 282.448C233.909 283.791 233.109 284.859 232.395 285.5C232.212 285.665 231.991 285.84 231.743 285.986C231.547 286.1 231.091 286.344 230.492 286.341C230.151 286.34 229.713 286.257 229.296 285.973C228.873 285.686 228.626 285.296 228.497 284.948C228.382 284.635 228.354 284.337 228.36 284.091C227.85 281.441 226.875 279.666 225.651 278.429C224.376 277.142 222.69 276.294 220.586 275.752C219.715 275.528 218.788 275.363 217.81 275.238C218.247 278.005 218.183 280.488 217.773 282.696C216.937 287.191 214.699 290.318 212.734 292.146C211.774 293.039 210.801 293.695 210.003 294.025C209.797 294.11 209.551 294.195 209.283 294.246C209.076 294.286 208.576 294.363 208.02 294.163C207.703 294.049 207.323 293.827 207.028 293.424C206.729 293.017 206.626 292.573 206.62 292.208C206.615 291.892 206.68 291.616 206.76 291.396C207.083 289.186 206.805 287.55 206.203 286.274C205.571 284.936 204.5 283.81 202.995 282.795C202.978 282.783 202.96 282.772 202.943 282.76C202.95 283.713 202.926 284.626 202.869 285.502C202.427 292.243 200.11 296.758 196.665 300.237C193.343 303.591 188.981 305.941 184.817 308.417C180.565 310.946 176.273 313.727 172.487 318.043C171.849 318.77 170.783 318.937 169.954 318.439C169.125 317.941 168.771 316.922 169.113 316.017C174.738 301.13 169.534 291.813 165.845 282.291C165.826 282.241 165.807 282.191 165.788 282.141C165.624 282.244 165.463 282.349 165.306 282.456C163.799 283.482 162.724 284.618 162.091 285.964C161.486 287.248 161.207 288.888 161.529 291.096C161.609 291.316 161.674 291.59 161.669 291.904C161.663 292.27 161.561 292.711 161.265 293.117C160.973 293.517 160.597 293.74 160.282 293.855C159.728 294.058 159.228 293.985 159.019 293.947C158.751 293.898 158.503 293.813 158.297 293.729C157.497 293.404 156.523 292.753 155.561 291.864C153.593 290.046 151.354 286.931 150.52 282.439C150.21 280.773 150.099 278.948 150.251 276.962C149.662 277.39 149.119 277.865 148.625 278.393C147.016 280.111 145.793 282.522 145.22 286.015C145.239 286.284 145.224 286.612 145.106 286.959C144.984 287.316 144.745 287.716 144.328 288.018C143.917 288.316 143.477 288.415 143.128 288.428C142.512 288.45 142.026 288.213 141.8 288.09C141.521 287.938 141.266 287.749 141.045 287.561C140.181 286.83 139.17 285.563 138.255 283.926C136.394 280.601 134.714 275.367 135.556 268.859C137.251 255.766 148.974 238.419 187.175 221.179L187.332 221.115ZM157.851 292.647L157.89 292.715C157.874 292.688 157.86 292.659 157.844 292.631C157.847 292.637 157.849 292.642 157.851 292.647ZM141.243 286.392L141.256 286.458L141.242 286.388C141.242 286.389 141.243 286.391 141.243 286.392Z" stroke="black" stroke-width="4" stroke-linejoin="round"/>
</g>
<path d="M79.6542 26.4314C79.6542 26.4314 47.6995 49.8599 80.1578 146.31C76.5209 161.294 73.9953 176.653 77.3561 187.264C102.87 267.818 307.374 226.961 298.156 180.503C297.976 171.808 299.059 169.166 290.326 144.341C314.23 58.2293 310.705 37.2975 288.712 25.3383C259.824 34.6207 246.592 44.8712 225.387 67.2296C193.393 59.839 175.724 58.9671 144.942 66.3288C144.942 66.3288 96.3912 16.8202 79.6542 26.4314Z" fill="#FF7F00"/>
<mask id="mask1_63_3250" style="mask-type:alpha" maskUnits="userSpaceOnUse" x="65" y="25" width="242" height="209">
<path d="M79.6542 26.4314C79.6542 26.4314 47.6995 49.8599 80.1578 146.31C76.5209 161.294 73.9953 176.653 77.3561 187.264C102.87 267.818 307.374 226.961 298.156 180.503C297.976 171.808 299.059 169.166 290.326 144.341C314.23 58.2293 310.705 37.2975 288.712 25.3383C259.824 34.6207 246.592 44.8712 225.387 67.2296C193.393 59.839 175.724 58.9671 144.942 66.3288C144.942 66.3288 96.3912 16.8202 79.6542 26.4314Z" fill="#FF7F00"/>
</mask>
<g mask="url(#mask1_63_3250)">
<path d="M95.5776 71.0966L68.4998 74.4574C64.9221 37.4529 71.7756 33.4591 83.774 25.909C95.1358 25.1586 100.224 28.1468 108.224 36.3356C111.709 39.8205 112.498 42.1891 112.518 46.9095C105.568 41.6033 102.859 40.7732 100.337 43.4634L95.5776 71.0966Z" fill="#8E340F"/>
<path d="M274.407 70.1942L301.978 79.7599C309.458 46.1228 306.29 39.1045 296.37 28.9771C285.492 25.6116 279.85 27.338 270.169 33.4478C265.97 36.0291 264.653 38.1502 263.539 42.7371C271.53 39.1878 274.357 39.0087 276.187 42.2106L274.407 70.1942Z" fill="#8E340F"/>
</g>
<g filter="url(#filter4_i_63_3250)">
<path d="M63.6855 183.642C66.1225 182.673 76.759 164.207 95.9951 170C175.39 180.345 157.188 171.641 184.013 170C219.781 174.515 262.513 151 295.382 182.694L306.745 184.533C307.188 194.425 304.487 199.831 295.003 207.318C301.509 206.369 303.999 206.59 305.928 208.603C301.178 224.178 296.562 231.615 275.346 233.2C199.394 286.977 168.788 281.992 95.9951 234.262C66.1959 227.258 63.0956 220.087 64.7969 208.442L74.3487 208.558C67.5256 200.124 64.0298 193.938 63.6855 183.642Z" fill="#FEC792"/>
</g>
<g filter="url(#filter5_d_63_3250)">
<path d="M161.555 108.085C151.921 105.08 126.257 100.639 124.788 116.78C127.439 118.64 125.938 118.213 129.579 117.502C132.965 116.639 137.736 115.547 141.153 115.583C148.907 115.668 159.342 121.13 166.436 117.738L167.091 115.597C165.882 111.67 164.443 110.822 161.555 108.085Z" fill="#FEC792"/>
</g>
<path d="M164.513 155.402C163.808 154.565 162.958 153.71 162.124 152.915C154.571 145.821 144.275 140.594 133.037 141.035C121.711 141.32 111.683 148.848 106.656 157.835C106.087 158.813 105.539 159.835 105.013 160.902C105.862 160.07 106.705 159.29 107.538 158.558C115.142 151.717 124 147.317 133.299 147.03C142.608 146.65 152.224 149.528 161.477 153.854C162.496 154.339 163.556 154.876 164.513 155.402Z" fill="black"/>
<g filter="url(#filter6_d_63_3250)">
<path d="M207.523 108.085C217.156 105.08 242.821 100.639 244.289 116.78C241.638 118.64 243.14 118.213 239.499 117.502C236.112 116.639 231.342 115.547 227.925 115.583C220.171 115.668 209.736 121.13 202.642 117.738L201.987 115.597C203.196 111.67 204.634 110.822 207.523 108.085Z" fill="#FEC792"/>
</g>
<path d="M204.565 155.402C205.27 154.565 206.12 153.71 206.954 152.915C214.507 145.821 224.803 140.594 236.04 141.035C247.367 141.32 257.394 148.848 262.422 157.835C262.991 158.813 263.539 159.835 264.065 160.902C263.215 160.07 262.373 159.29 261.54 158.558C253.935 151.717 245.078 147.317 235.778 147.03C226.47 146.65 216.853 149.528 207.601 153.854C206.581 154.339 205.522 154.876 204.565 155.402Z" fill="black"/>
<path d="M79.6542 26.4314C79.6542 26.4314 47.6995 49.8599 80.1578 146.31C76.3524 159.371 74.5699 166.925 73.4707 181.772C69.1507 180.424 66.4811 180.537 61.3193 182.357C60.1434 188.612 62.3938 194.082 68.6816 205.374C65.8103 205.136 64.3688 205.469 62.3723 207.653C62.4929 224.718 74.0014 229.389 95.6446 237.241C167.789 281.599 207.383 280.801 276.544 235.858C298.976 231.185 304.716 224.054 309.083 207.463C307.049 205.335 305.474 204.584 301.371 204.543C307.951 196.762 309.448 191.696 309.578 181.846C305.329 181.747 303.078 181.956 298.156 180.503C297.976 171.808 299.059 169.166 290.326 144.341C314.23 58.2293 310.705 37.2975 288.712 25.3383C259.824 34.6207 246.592 44.8712 225.387 67.2296C193.393 59.839 175.724 58.9671 144.942 66.3288C144.942 66.3288 96.3912 16.8202 79.6542 26.4314Z" stroke="black" stroke-width="6"/>
<ellipse cx="183.591" cy="170.146" rx="15" ry="8" transform="rotate(4.47551 183.591 170.146)" fill="#242424"/>
<path d="M184.079 170.614C187.578 189.115 164.34 194.074 156.826 179.793" stroke="#242424" stroke-width="4"/>
<path d="M184.914 170.633C180.578 188.956 203.566 194.966 211.722 181.041" stroke="#242424" stroke-width="4"/>
<path d="M83.5415 45.0125C73.9318 53.9515 87.6073 143.159 91.2286 129.488C94.8499 115.817 119.268 79.42 129.053 77.55C137.611 68.9909 93.1512 36.0735 83.5415 45.0125Z" fill="#FEC792" stroke="black" stroke-width="6"/>
<path d="M289.124 43.5104C301.188 47.9498 283.893 140.144 279.335 126.756C274.777 113.368 254.83 77.9475 244.939 76.7585C235.809 68.8116 277.06 39.071 289.124 43.5104Z" fill="#FEC792" stroke="black" stroke-width="6"/>
<path d="M91.6188 74.7946C98.031 64.9538 102.954 61.0305 120.069 64.0435L128.79 75.5053L97.9885 106.254C96.7294 94.1708 95.4754 87.3394 105.523 76.4295C100.391 73.2561 97.2983 73.311 91.6188 74.7946Z" fill="#FF7F00" stroke="black" stroke-width="5" stroke-linejoin="round"/>
<path d="M281.311 79.9829C277.356 68.9231 273.478 63.965 256.131 62.9256L244.989 72.0518C255.178 81.9934 262.597 87.1011 272.594 107.015C276.622 95.5536 274.65 91.291 267.407 78.3479C273.135 76.4515 276.131 77.2224 281.311 79.9829Z" fill="#FF7F00" stroke="black" stroke-width="5" stroke-linejoin="round"/>
<g filter="url(#filter7_i_63_3250)">
<path d="M238.512 261C245.772 270.004 256.259 317.854 257.013 321C264.667 323.964 269.804 326.616 273.513 336.5C275.418 331.567 247.512 252.5 238.512 261Z" fill="#FF7F00"/>
</g>
<path d="M240.729 258.419C239.397 258.203 238.139 258.601 237.138 259.546L235.794 260.816L236.955 262.256C237.7 263.18 238.575 264.726 239.537 266.858C240.487 268.96 241.474 271.519 242.471 274.388C244.464 280.124 246.464 286.995 248.271 293.716C251.884 307.161 254.679 319.844 255.068 321.466L255.312 322.487L256.291 322.865C260.106 324.342 263.028 325.649 265.457 327.687C267.842 329.688 269.878 332.507 271.64 337.203L273.486 342.122L275.379 337.22C275.569 336.728 275.602 336.213 275.606 335.844C275.61 335.433 275.575 334.979 275.519 334.507C275.405 333.56 275.181 332.385 274.874 331.045C274.26 328.356 273.274 324.841 272.022 320.831C269.516 312.802 265.906 302.668 261.955 292.959C258.011 283.269 253.69 273.908 249.751 267.473C247.802 264.288 245.843 261.645 243.962 260.068C243.025 259.283 241.935 258.614 240.729 258.419Z" stroke="black" stroke-width="4"/>
<g filter="url(#filter8_i_63_3250)">
<path d="M130.642 263.154C128.758 273.469 128.119 293.916 123.013 296C123.013 317.846 99.2214 325.616 95.5129 335.5C93.6081 330.567 121.642 254.654 130.642 263.154Z" fill="#FF7F00"/>
</g>
<path d="M128.487 260.529C129.72 260.369 130.878 260.722 131.828 261.533L132.015 261.7L132.804 262.446L132.609 263.513C132.152 266.02 131.765 269.168 131.359 272.581C130.956 275.967 130.535 279.597 130.012 282.971C129.491 286.329 128.853 289.543 127.988 292.084C127.555 293.354 127.04 294.537 126.403 295.509C126.022 296.092 125.557 296.655 124.993 297.115C124.6 308.267 118.354 315.86 112.009 321.707C110.37 323.218 108.707 324.627 107.13 325.951C105.54 327.285 104.053 328.518 102.707 329.721C99.959 332.177 98.1238 334.234 97.3851 336.202L95.5393 341.122L93.6469 336.22C93.4577 335.73 93.4241 335.221 93.4208 334.852C93.4172 334.445 93.452 333.997 93.5097 333.534C93.6254 332.606 93.8516 331.462 94.1603 330.164C94.7798 327.558 95.7725 324.164 97.0312 320.3C99.5512 312.564 103.179 302.823 107.149 293.505C111.109 284.209 115.451 275.239 119.408 269.095C121.366 266.056 123.339 263.533 125.238 262.046C126.187 261.302 127.285 260.684 128.487 260.529Z" stroke="black" stroke-width="4"/>
<g filter="url(#filter9_i_63_3250)">
<path d="M112.821 322.895L113.183 323.145C114.068 324.663 113.633 328.624 113.567 330.62C118.477 331.582 133.678 333.238 131.585 341.249C127.283 345.417 122.738 343.663 117.733 343.858L117.857 344.857C120.775 346.619 125.783 345.286 129.158 345.192C132.017 345.112 133.457 349.364 132.899 351.611C131.619 356.78 123.761 356.673 119.615 356.156L117.002 355.837L116.714 356.614C119.508 359.301 127.074 356.797 130.022 358.47C131.803 362.917 126.315 364.758 122.851 365.435C120.549 365.31 118.274 364.886 116.082 364.175C105.821 360.746 103.32 353.143 104.071 343.061C104.499 337.308 106.577 333.6 108.484 328.348L107.958 328.135C101.773 334.311 102.053 345.06 102.724 353.184C96.6143 339.609 100.046 330.101 112.821 322.895Z" fill="#8E3411"/>
</g>
<path d="M113.958 321.25L114.32 321.5L114.687 321.753L114.911 322.138C115.33 322.858 115.512 323.7 115.607 324.407C115.707 325.152 115.735 325.954 115.731 326.713C115.728 327.437 115.692 328.239 115.654 328.961C118.316 329.42 122.417 330.129 125.896 331.415C128.079 332.223 130.282 333.344 131.806 334.981C133.433 336.727 134.233 339.025 133.519 341.755L133.379 342.295L132.976 342.684C132.529 343.118 132.076 343.497 131.622 343.831C132.794 344.513 133.614 345.635 134.109 346.655C134.914 348.312 135.256 350.419 134.841 352.093C134.274 354.38 132.814 355.847 131.098 356.781L131.618 357.077L131.878 357.727C132.485 359.241 132.532 360.722 132.001 362.071C131.49 363.368 130.534 364.32 129.545 365.008C127.609 366.355 125.032 367.046 123.235 367.397L122.991 367.445L122.743 367.432C120.268 367.298 117.821 366.842 115.464 366.077L115.456 366.075L115.448 366.072C109.905 364.22 106.253 361.151 104.163 357.015C103.6 355.902 103.16 354.73 102.826 353.507L100.901 354.005C97.7247 346.949 96.8864 340.63 98.7974 335.008C100.705 329.395 105.213 324.89 111.838 321.153L112.928 320.538L113.958 321.25Z" stroke="black" stroke-width="4"/>
<g filter="url(#filter10_di_63_3250)">
<path d="M257.677 323.939L257.334 324.178C256.498 325.623 256.925 329.384 256.994 331.28C252.332 332.21 237.897 333.834 239.912 341.437C244.013 345.383 248.324 343.701 253.08 343.87L252.966 344.82C250.199 346.503 245.437 345.253 242.23 345.176C239.514 345.109 238.16 349.153 238.697 351.285C239.931 356.192 247.396 356.064 251.332 355.559L253.814 355.248L254.09 355.985C251.445 358.547 244.248 356.193 241.454 357.792C239.776 362.023 244.996 363.753 248.289 364.385C250.475 364.259 252.635 363.849 254.716 363.166C264.452 359.874 266.803 352.643 266.056 343.067C265.63 337.603 263.644 334.088 261.815 329.105L262.314 328.901C268.21 334.748 267.98 344.96 267.369 352.68C273.129 339.764 269.838 330.742 257.677 323.939Z" fill="#8E340F"/>
<path d="M256.534 322.298L256.191 322.536L255.825 322.791L255.603 323.176C255.196 323.878 255.023 324.695 254.935 325.372C254.842 326.086 254.819 326.853 254.825 327.576C254.83 328.234 254.864 328.964 254.901 329.627C252.372 330.072 248.52 330.76 245.249 331.983C243.173 332.759 241.065 333.839 239.607 335.416C238.047 337.103 237.282 339.322 237.979 341.95L238.122 342.49L238.526 342.878C238.917 343.254 239.313 343.585 239.71 343.881C238.643 344.552 237.895 345.595 237.441 346.538C236.675 348.13 236.351 350.156 236.758 351.772L236.757 351.773C237.294 353.909 238.636 355.298 240.221 356.193L239.853 356.404L239.595 357.055C239.015 358.516 238.973 359.95 239.493 361.257C239.991 362.512 240.919 363.427 241.871 364.084C243.732 365.37 246.201 366.021 247.912 366.35L248.156 366.397L248.404 366.381C250.763 366.245 253.095 365.803 255.34 365.066L255.348 365.063L255.356 365.061C260.637 363.276 264.119 360.333 266.105 356.369C266.636 355.308 267.051 354.192 267.366 353.029L269.195 353.495C272.195 346.767 272.979 340.734 271.134 335.367C269.292 330.01 264.972 325.729 258.654 322.194L257.561 321.582L256.534 322.298Z" stroke="black" stroke-width="4"/>
</g>
<path d="M326.513 160.5C327.313 161.826 328.062 163.101 328.83 164.429C335.693 176.133 341.072 188.853 339.87 201.993C338.861 215.091 333.631 227.786 328.331 240.319C327.736 241.707 327.142 243.076 326.513 244.5C327.376 243.204 328.194 241.953 329.004 240.673C336.205 229.12 342.728 216.505 343.861 202.275C345.175 187.852 338.055 174.365 329.456 163.998C328.486 162.8 327.528 161.669 326.513 160.5Z" fill="black" fill-opacity="0.5"/>
<path d="M337.013 156C337.964 157.569 338.857 159.079 339.77 160.653C347.931 174.512 354.281 189.723 352.873 205.443C351.69 221.102 345.514 236.207 339.186 251.051C338.474 252.694 337.765 254.315 337.013 256C338 254.441 338.935 252.937 339.862 251.398C348.102 237.518 355.564 222.482 356.863 205.719C358.382 188.756 350.315 172.774 340.401 160.229C339.285 158.783 338.182 157.415 337.013 156Z" fill="black" fill-opacity="0.5"/>
<path d="M358.013 179C358.43 179.773 358.82 180.514 359.222 181.283C362.825 188.092 365.62 195.047 364.947 202.136C364.388 209.236 361.609 216.362 358.929 223.585C358.628 224.384 358.33 225.176 358.013 226C358.561 225.308 359.081 224.638 359.595 223.95C364.159 217.736 368.243 210.71 368.937 202.427C369.726 193.987 365.149 186.276 359.84 180.841C359.238 180.205 358.643 179.612 358.013 179Z" fill="black" fill-opacity="0.5"/>
<path d="M322.013 179C322.43 179.773 322.82 180.514 323.222 181.283C326.825 188.092 329.62 195.047 328.947 202.136C328.388 209.236 325.609 216.362 322.929 223.585C322.628 224.384 322.33 225.176 322.013 226C322.561 225.308 323.081 224.638 323.595 223.95C328.159 217.736 332.243 210.71 332.937 202.427C333.726 193.987 329.149 186.276 323.84 180.841C323.238 180.205 322.643 179.612 322.013 179Z" fill="black" fill-opacity="0.5"/>
<path d="M42.5129 160.5C41.7133 161.826 40.9637 163.101 40.1956 164.429C33.3333 176.133 27.9538 188.853 29.1554 201.993C30.1645 215.091 35.3949 227.786 40.6945 240.319C41.2901 241.707 41.8834 243.076 42.5129 244.5C41.6497 243.204 40.8322 241.953 40.0221 240.673C32.8213 229.12 26.2975 216.505 25.1654 202.275C23.8509 187.852 30.971 174.365 39.5694 163.998C40.5396 162.8 41.4977 161.669 42.5129 160.5Z" fill="black" fill-opacity="0.5"/>
<path d="M32.0129 156C31.0616 157.569 30.1684 159.079 29.2558 160.653C21.0953 174.512 14.7445 189.723 16.153 205.443C17.3359 221.102 23.5116 236.207 29.84 251.051C30.5514 252.694 31.2606 254.315 32.0129 256C31.0256 254.441 30.0912 252.937 29.1643 251.398C20.9243 237.518 13.4622 222.482 12.1625 205.719C10.6439 188.756 18.7108 172.774 28.6249 160.229C29.741 158.783 30.8442 157.415 32.0129 156Z" fill="black" fill-opacity="0.5"/>
<path d="M11.0129 179C10.5955 179.773 10.2062 180.514 9.8036 181.283C6.20069 188.092 3.40614 195.047 4.07848 202.136C4.63739 209.236 7.41708 216.362 10.0973 223.585C10.3982 224.384 10.6962 225.176 11.0129 226C10.4646 225.308 9.94438 224.638 9.43079 223.95C4.86701 217.736 0.782426 210.71 0.089076 202.427C-0.700309 193.987 3.87693 186.276 9.18539 180.841C9.78778 180.205 10.3828 179.612 11.0129 179Z" fill="black" fill-opacity="0.5"/>
<path d="M47.0129 179C46.5955 179.773 46.2062 180.514 45.8036 181.283C42.2007 188.092 39.4061 195.047 40.0785 202.136C40.6374 209.236 43.4171 216.362 46.0973 223.585C46.3982 224.384 46.6962 225.176 47.0129 226C46.4646 225.308 45.9444 224.638 45.4308 223.95C40.867 217.736 36.7824 210.71 36.0891 202.427C35.2997 193.987 39.8769 186.276 45.1854 180.841C45.7878 180.205 46.3828 179.612 47.0129 179Z" fill="black" fill-opacity="0.5"/>
<ellipse opacity="0.4" cx="186.013" cy="444.5" rx="78" ry="5.5" fill="black"/>
<defs>
<filter id="filter0_i_63_3250" x="224.328" y="299.072" width="140.32" height="103.078" filterUnits="userSpaceOnUse" color-interpolation-filters="sRGB">
<feFlood flood-opacity="0" result="BackgroundImageFix"/>
<feBlend mode="normal" in="SourceGraphic" in2="BackgroundImageFix" result="shape"/>
<feColorMatrix in="SourceAlpha" type="matrix" values="0 0 0 0 0 0 0 0 0 0 0 0 0 0 0 0 0 0 127 0" result="hardAlpha"/>
<feOffset dx="-7" dy="-19"/>
<feComposite in2="hardAlpha" operator="arithmetic" k2="-1" k3="1"/>
<feColorMatrix type="matrix" values="0 0 0 0 0 0 0 0 0 0 0 0 0 0 0 0 0 0 0.25 0"/>
<feBlend mode="normal" in2="shape" result="effect1_innerShadow_63_3250"/>
</filter>
<filter id="filter1_i_63_3250" x="134.456" y="417.683" width="46.9761" height="25.9979" filterUnits="userSpaceOnUse" color-interpolation-filters="sRGB">
<feFlood flood-opacity="0" result="BackgroundImageFix"/>
<feBlend mode="normal" in="SourceGraphic" in2="BackgroundImageFix" result="shape"/>
<feColorMatrix in="SourceAlpha" type="matrix" values="0 0 0 0 0 0 0 0 0 0 0 0 0 0 0 0 0 0 127 0" result="hardAlpha"/>
<feOffset dy="-9"/>
<feComposite in2="hardAlpha" operator="arithmetic" k2="-1" k3="1"/>
<feColorMatrix type="matrix" values="0 0 0 0 0 0 0 0 0 0 0 0 0 0 0 0 0 0 0.25 0"/>
<feBlend mode="normal" in2="shape" result="effect1_innerShadow_63_3250"/>
</filter>
<filter id="filter2_i_63_3250" x="190.456" y="417.683" width="46.9761" height="25.9979" filterUnits="userSpaceOnUse" color-interpolation-filters="sRGB">
<feFlood flood-opacity="0" result="BackgroundImageFix"/>
<feBlend mode="normal" in="SourceGraphic" in2="BackgroundImageFix" result="shape"/>
<feColorMatrix in="SourceAlpha" type="matrix" values="0 0 0 0 0 0 0 0 0 0 0 0 0 0 0 0 0 0 127 0" result="hardAlpha"/>
<feOffset dy="-9"/>
<feComposite in2="hardAlpha" operator="arithmetic" k2="-1" k3="1"/>
<feColorMatrix type="matrix" values="0 0 0 0 0 0 0 0 0 0 0 0 0 0 0 0 0 0 0.25 0"/>
<feBlend mode="normal" in2="shape" result="effect1_innerShadow_63_3250"/>
</filter>
<filter id="filter3_d_63_3250" x="133.333" y="219.001" width="105.415" height="104.723" filterUnits="userSpaceOnUse" color-interpolation-filters="sRGB">
<feFlood flood-opacity="0" result="BackgroundImageFix"/>
<feColorMatrix in="SourceAlpha" type="matrix" values="0 0 0 0 0 0 0 0 0 0 0 0 0 0 0 0 0 0 127 0" result="hardAlpha"/>
<feOffset dy="3"/>
<feComposite in2="hardAlpha" operator="out"/>
<feColorMatrix type="matrix" values="0 0 0 0 0 0 0 0 0 0 0 0 0 0 0 0 0 0 0.25 0"/>
<feBlend mode="normal" in2="BackgroundImageFix" result="effect1_dropShadow_63_3250"/>
<feBlend mode="normal" in="SourceGraphic" in2="effect1_dropShadow_63_3250" result="shape"/>
</filter>
<filter id="filter4_i_63_3250" x="63.6855" y="165.809" width="243.105" height="106.001" filterUnits="userSpaceOnUse" color-interpolation-filters="sRGB">
<feFlood flood-opacity="0" result="BackgroundImageFix"/>
<feBlend mode="normal" in="SourceGraphic" in2="BackgroundImageFix" result="shape"/>
<feColorMatrix in="SourceAlpha" type="matrix" values="0 0 0 0 0 0 0 0 0 0 0 0 0 0 0 0 0 0 127 0" result="hardAlpha"/>
<feOffset dx="-1" dy="-9"/>
<feComposite in2="hardAlpha" operator="arithmetic" k2="-1" k3="1"/>
<feColorMatrix type="matrix" values="0 0 0 0 0 0 0 0 0 0 0 0 0 0 0 0 0 0 0.25 0"/>
<feBlend mode="normal" in2="shape" result="effect1_innerShadow_63_3250"/>
</filter>
<filter id="filter5_d_63_3250" x="124.788" y="105.16" width="43.3025" height="16.6873" filterUnits="userSpaceOnUse" color-interpolation-filters="sRGB">
<feFlood flood-opacity="0" result="BackgroundImageFix"/>
<feColorMatrix in="SourceAlpha" type="matrix" values="0 0 0 0 0 0 0 0 0 0 0 0 0 0 0 0 0 0 127 0" result="hardAlpha"/>
<feOffset dx="1" dy="3"/>
<feComposite in2="hardAlpha" operator="out"/>
<feColorMatrix type="matrix" values="0 0 0 0 0 0 0 0 0 0 0 0 0 0 0 0 0 0 0.25 0"/>
<feBlend mode="normal" in2="BackgroundImageFix" result="effect1_dropShadow_63_3250"/>
<feBlend mode="normal" in="SourceGraphic" in2="effect1_dropShadow_63_3250" result="shape"/>
</filter>
<filter id="filter6_d_63_3250" x="201.987" y="105.16" width="43.3025" height="16.6873" filterUnits="userSpaceOnUse" color-interpolation-filters="sRGB">
<feFlood flood-opacity="0" result="BackgroundImageFix"/>
<feColorMatrix in="SourceAlpha" type="matrix" values="0 0 0 0 0 0 0 0 0 0 0 0 0 0 0 0 0 0 127 0" result="hardAlpha"/>
<feOffset dx="1" dy="3"/>
<feComposite in2="hardAlpha" operator="out"/>
<feColorMatrix type="matrix" values="0 0 0 0 0 0 0 0 0 0 0 0 0 0 0 0 0 0 0.25 0"/>
<feBlend mode="normal" in2="BackgroundImageFix" result="effect1_dropShadow_63_3250"/>
<feBlend mode="normal" in="SourceGraphic" in2="effect1_dropShadow_63_3250" result="shape"/>
</filter>
<filter id="filter7_i_63_3250" x="233.076" y="256.361" width="44.5295" height="91.3823" filterUnits="userSpaceOnUse" color-interpolation-filters="sRGB">
<feFlood flood-opacity="0" result="BackgroundImageFix"/>
<feBlend mode="normal" in="SourceGraphic" in2="BackgroundImageFix" result="shape"/>
<feColorMatrix in="SourceAlpha" type="matrix" values="0 0 0 0 0 0 0 0 0 0 0 0 0 0 0 0 0 0 127 0" result="hardAlpha"/>
<feOffset dx="-12" dy="-12"/>
<feComposite in2="hardAlpha" operator="arithmetic" k2="-1" k3="1"/>
<feColorMatrix type="matrix" values="0 0 0 0 0 0 0 0 0 0 0 0 0 0 0 0 0 0 0.25 0"/>
<feBlend mode="normal" in2="shape" result="effect1_innerShadow_63_3250"/>
</filter>
<filter id="filter8_i_63_3250" x="91.4204" y="258.491" width="43.5469" height="88.2529" filterUnits="userSpaceOnUse" color-interpolation-filters="sRGB">
<feFlood flood-opacity="0" result="BackgroundImageFix"/>
<feBlend mode="normal" in="SourceGraphic" in2="BackgroundImageFix" result="shape"/>
<feColorMatrix in="SourceAlpha" type="matrix" values="0 0 0 0 0 0 0 0 0 0 0 0 0 0 0 0 0 0 127 0" result="hardAlpha"/>
<feOffset dx="10" dy="-12"/>
<feComposite in2="hardAlpha" operator="arithmetic" k2="-1" k3="1"/>
<feColorMatrix type="matrix" values="0 0 0 0 0 0 0 0 0 0 0 0 0 0 0 0 0 0 0.25 0"/>
<feBlend mode="normal" in2="shape" result="effect1_innerShadow_63_3250"/>
</filter>
<filter id="filter9_i_63_3250" x="95.7822" y="318.181" width="41.2361" height="51.2749" filterUnits="userSpaceOnUse" color-interpolation-filters="sRGB">
<feFlood flood-opacity="0" result="BackgroundImageFix"/>
<feBlend mode="normal" in="SourceGraphic" in2="BackgroundImageFix" result="shape"/>
<feColorMatrix in="SourceAlpha" type="matrix" values="0 0 0 0 0 0 0 0 0 0 0 0 0 0 0 0 0 0 127 0" result="hardAlpha"/>
<feOffset dy="-10"/>
<feComposite in2="hardAlpha" operator="arithmetic" k2="-1" k3="1"/>
<feColorMatrix type="matrix" values="0 0 0 0 0 0 0 0 0 0 0 0 0 0 0 0 0 0 0.25 0"/>
<feBlend mode="normal" in2="shape" result="effect1_innerShadow_63_3250"/>
</filter>
<filter id="filter10_di_63_3250" x="234.581" y="319.226" width="40.5442" height="52.1815" filterUnits="userSpaceOnUse" color-interpolation-filters="sRGB">
<feFlood flood-opacity="0" result="BackgroundImageFix"/>
<feColorMatrix in="SourceAlpha" type="matrix" values="0 0 0 0 0 0 0 0 0 0 0 0 0 0 0 0 0 0 127 0" result="hardAlpha"/>
<feOffset dx="1" dy="3"/>
<feComposite in2="hardAlpha" operator="out"/>
<feColorMatrix type="matrix" values="0 0 0 0 0 0 0 0 0 0 0 0 0 0 0 0 0 0 0.25 0"/>
<feBlend mode="normal" in2="BackgroundImageFix" result="effect1_dropShadow_63_3250"/>
<feBlend mode="normal" in="SourceGraphic" in2="effect1_dropShadow_63_3250" result="shape"/>
<feColorMatrix in="SourceAlpha" type="matrix" values="0 0 0 0 0 0 0 0 0 0 0 0 0 0 0 0 0 0 127 0" result="hardAlpha"/>
<feOffset dx="-2" dy="-8"/>
<feComposite in2="hardAlpha" operator="arithmetic" k2="-1" k3="1"/>
<feColorMatrix type="matrix" values="0 0 0 0 0 0 0 0 0 0 0 0 0 0 0 0 0 0 0.25 0"/>
<feBlend mode="normal" in2="shape" result="effect2_innerShadow_63_3250"/>
</filter>
</defs>
</svg>
