<svg width="357" height="472" viewBox="0 0 357 472" fill="none" xmlns="http://www.w3.org/2000/svg">
<g filter="url(#filter0_i_63_3543)">
<path d="M183.221 306.123C301.631 201.746 352.63 334.574 345.031 328.664C278.427 257.497 300.733 413.295 214.712 377.242L183.221 306.123Z" fill="#FF7F00" stroke="black" stroke-width="6"/>
<mask id="mask0_63_3543" style="mask-type:alpha" maskUnits="userSpaceOnUse" x="188" y="268" width="150" height="111">
<path d="M188.518 307.571C286.202 213.328 344.497 321.792 337.411 316.282C274.086 271.338 294.852 405.135 217.841 373.937L188.518 307.571Z" fill="#FF7F00"/>
</mask>
<g mask="url(#mask0_63_3543)">
<path d="M369.376 276.467C241.349 260.175 257.425 330.388 259.669 323.251C291.395 285.355 334.881 379.052 374.887 318.274L369.376 276.467Z" fill="#FEC792"/>
<path d="M385.07 285.804C257.043 269.511 273.12 339.725 275.363 332.587C307.09 294.691 350.575 388.388 390.582 327.611L385.07 285.804Z" fill="#FEC792"/>
<path d="M368.481 249.946C240.454 233.654 256.531 303.867 258.774 296.729C290.501 258.834 333.986 352.53 373.993 291.753L368.481 249.946Z" fill="#FEC792"/>
</g>
</g>
<path d="M101.894 364.275C75.6805 319.025 113.39 319.949 113.391 259L213.183 259C231.578 323.181 248.133 331.492 226.06 364.275C237.801 389.761 265.627 391 227.127 427C213.119 431.348 202.636 427.85 188.627 423C197.627 399 189.423 397.334 164.437 382.744C134.736 399.887 117.127 387.5 135.127 423C122.718 428.057 117.514 431.12 103.627 425.5C73.2785 402.471 84.2293 390.336 101.894 364.275Z" fill="#FF7F00" stroke="black" stroke-width="5" stroke-linejoin="round"/>
<path d="M208.627 312.5C221.275 344.189 200.523 367.169 165.127 364.5C127.689 367.747 103.62 345.578 121.627 312.5C121.627 283.781 141.103 260.5 165.127 260.5C189.152 260.5 208.627 283.781 208.627 312.5Z" fill="#FFD4A9"/>
<path d="M192.619 372C191.672 372.57 190.777 373.101 189.814 373.638C181.388 378.373 171.885 381.966 161.781 382.129C151.67 382.348 142.043 379.016 133.484 374.558C132.506 374.053 131.59 373.551 130.627 373.016C131.706 373.239 132.728 373.442 133.801 373.662C143.279 375.582 152.535 377.337 161.691 377.13C170.85 376.99 180.057 374.976 189.469 372.753C190.534 372.497 191.545 372.262 192.619 372Z" fill="black"/>
<g filter="url(#filter1_i_63_3543)">
<path d="M100.877 437.925C92.4072 438.098 88.542 424.827 95.8211 419.872C103.1 414.917 105.751 420.189 105.751 420.189C114.076 415.239 118.793 415.798 127.265 420.877C127.265 420.877 135.002 417.075 136.533 421.173C138.064 425.272 139.084 438.738 132.002 438.575L100.877 437.925Z" fill="#882E15" stroke="black" stroke-width="4" stroke-linejoin="round"/>
<path d="M103.883 439.788C104.734 439.263 105.585 438.738 106.436 438.212C106.289 438.022 106.144 437.821 106.006 437.617C103.644 433.891 101.954 428.752 103.756 424.207C103.873 423.962 104.007 423.726 104.159 423.5C103.968 423.694 103.791 423.905 103.627 424.129C100.928 428.473 101.561 434.117 103.498 438.972C103.617 439.245 103.747 439.52 103.883 439.788Z" fill="black"/>
<path d="M118.033 439.288C118.883 438.763 119.734 438.238 120.585 437.712C120.438 437.522 120.294 437.321 120.155 437.117C117.793 433.391 116.103 428.252 117.905 423.707C118.023 423.462 118.156 423.226 118.309 423C118.118 423.194 117.94 423.405 117.777 423.629C115.077 427.973 115.71 433.617 117.648 438.472C117.767 438.745 117.896 439.02 118.033 439.288Z" fill="black"/>
</g>
<g filter="url(#filter2_i_63_3543)">
<path d="M223.767 437.925C232.237 438.098 236.102 424.827 228.823 419.872C221.544 414.917 218.893 420.189 218.893 420.189C210.568 415.239 205.851 415.798 197.379 420.877C197.379 420.877 189.642 417.075 188.111 421.173C186.58 425.272 185.56 438.738 192.642 438.575L223.767 437.925Z" fill="#882E15" stroke="black" stroke-width="4" stroke-linejoin="round"/>
<path d="M220.761 439.788C219.91 439.263 219.059 438.738 218.208 438.212C218.355 438.022 218.5 437.821 218.638 437.617C221 433.891 222.69 428.752 220.888 424.207C220.771 423.962 220.637 423.726 220.485 423.5C220.676 423.694 220.853 423.905 221.017 424.129C223.716 428.473 223.083 434.117 221.146 438.972C221.027 439.245 220.897 439.52 220.761 439.788Z" fill="black"/>
<path d="M206.611 439.288C205.761 438.763 204.91 438.238 204.059 437.712C204.206 437.522 204.35 437.321 204.489 437.117C206.851 433.391 208.541 428.252 206.739 423.707C206.621 423.462 206.488 423.226 206.335 423C206.526 423.194 206.704 423.405 206.867 423.629C209.567 427.973 208.934 433.617 206.996 438.472C206.877 438.745 206.748 439.02 206.611 439.288Z" fill="black"/>
</g>
<path opacity="0.2" d="M224.95 253.234C222.148 259.936 195.016 282.957 161.009 278.959C127.001 274.96 104.772 260.563 105.159 257.272C105.546 253.981 134.485 273.326 162.41 267.041C184.466 272.135 225.337 249.943 224.95 253.234Z" fill="black"/>
<g filter="url(#filter3_d_63_3543)">
<path d="M153.877 242.071C112.325 279.855 139.913 294.43 138.205 291.664C134.741 270.416 177.787 282.569 169.155 252.094L153.877 242.071Z" fill="#FEBB7A"/>
<path d="M171.657 242.477C213.196 279.988 185.603 294.745 187.311 291.967C190.783 270.697 147.733 283.133 156.376 252.601L171.657 242.477Z" fill="#FEBB7A"/>
<path d="M174.839 258.579C189.867 306.635 165.607 298.476 149.597 316.724C161.482 285.272 127.229 276.43 154.852 250.721L174.839 258.579Z" fill="#FEBB7A"/>
<path d="M166.611 223.002C90.6395 257.29 122.962 290.69 121.812 285.984C126.624 254.291 181.894 291.413 183.62 244.263L166.611 223.002Z" fill="#FEBB7A"/>
<path d="M172.396 235.402C233.042 260.555 208.176 287.739 208.992 283.994C204.575 259.095 161.665 289.795 159.383 252.616L172.396 235.402Z" fill="#FEBB7A"/>
<path d="M165.946 221.115C166.742 220.834 167.637 221.084 168.172 221.753L180.031 236.575C205.201 248.338 213.607 260.542 215.106 270.228C215.914 275.448 214.666 279.711 213.228 282.448C212.523 283.791 211.723 284.859 211.009 285.5C210.825 285.665 210.605 285.84 210.356 285.986C210.16 286.1 209.704 286.344 209.105 286.341C208.764 286.34 208.326 286.257 207.909 285.973C207.487 285.686 207.24 285.296 207.111 284.948C206.996 284.635 206.967 284.337 206.973 284.091C206.464 281.441 205.489 279.666 204.264 278.429C202.99 277.142 201.304 276.294 199.199 275.752C198.329 275.528 197.402 275.363 196.423 275.238C196.861 278.005 196.796 280.488 196.386 282.696C195.551 287.191 193.313 290.318 191.348 292.146C190.387 293.039 189.414 293.695 188.617 294.025C188.411 294.11 188.164 294.195 187.897 294.246C187.689 294.286 187.189 294.363 186.633 294.163C186.316 294.049 185.936 293.827 185.641 293.424C185.342 293.017 185.24 292.573 185.234 292.208C185.229 291.892 185.294 291.616 185.374 291.396C185.696 289.186 185.418 287.55 184.816 286.274C184.185 284.936 183.113 283.81 181.608 282.795C181.591 282.783 181.574 282.772 181.557 282.76C181.564 283.713 181.54 284.626 181.482 285.502C181.041 292.243 178.724 296.758 175.278 300.237C171.956 303.591 167.594 305.941 163.431 308.417C159.179 310.946 154.887 313.727 151.1 318.043C150.463 318.77 149.396 318.937 148.567 318.439C147.739 317.941 147.384 316.922 147.726 316.017C153.352 301.13 148.148 291.813 144.458 282.291C144.439 282.241 144.421 282.191 144.401 282.141C144.237 282.244 144.076 282.349 143.92 282.456C142.412 283.482 141.338 284.618 140.704 285.964C140.1 287.248 139.821 288.888 140.143 291.096C140.223 291.316 140.287 291.59 140.283 291.904C140.277 292.27 140.175 292.711 139.879 293.117C139.587 293.517 139.21 293.74 138.895 293.855C138.341 294.058 137.841 293.985 137.632 293.947C137.364 293.898 137.117 293.813 136.911 293.729C136.111 293.404 135.136 292.753 134.175 291.864C132.207 290.046 129.968 286.931 129.133 282.439C128.824 280.773 128.712 278.948 128.865 276.962C128.276 277.39 127.733 277.865 127.239 278.393C125.63 280.111 124.406 282.522 123.834 286.015C123.853 286.284 123.837 286.612 123.719 286.959C123.598 287.316 123.358 287.716 122.942 288.018C122.53 288.316 122.091 288.415 121.742 288.428C121.126 288.45 120.639 288.213 120.414 288.09C120.135 287.938 119.88 287.749 119.659 287.561C118.795 286.83 117.784 285.563 116.868 283.926C115.008 280.601 113.327 275.367 114.17 268.859C115.865 255.766 127.588 238.419 165.788 221.179L165.946 221.115ZM136.465 292.647L136.504 292.715C136.487 292.688 136.473 292.659 136.458 292.631C136.461 292.637 136.462 292.642 136.465 292.647ZM119.857 286.392L119.87 286.458L119.856 286.388C119.856 286.389 119.856 286.391 119.857 286.392Z" stroke="black" stroke-width="4" stroke-linejoin="round"/>
</g>
<path d="M58.2675 26.4314C58.2675 26.4314 26.3128 49.8599 58.7711 146.31C55.1341 161.294 52.6086 176.653 55.9694 187.264C81.4832 267.818 285.987 226.961 276.77 180.503C276.589 171.808 277.672 169.166 268.939 144.341C292.843 58.2293 289.318 37.2975 267.326 25.3383C238.437 34.6207 225.206 44.8712 204 67.2296C172.006 59.839 154.337 58.9671 123.555 66.3288C123.555 66.3288 75.0045 16.8202 58.2675 26.4314Z" fill="#FF7F00"/>
<mask id="mask1_63_3543" style="mask-type:alpha" maskUnits="userSpaceOnUse" x="44" y="25" width="242" height="209">
<path d="M58.2675 26.4314C58.2675 26.4314 26.3128 49.8599 58.7711 146.31C55.1341 161.294 52.6086 176.653 55.9694 187.264C81.4832 267.818 285.987 226.961 276.77 180.503C276.589 171.808 277.672 169.166 268.939 144.341C292.843 58.2293 289.318 37.2975 267.326 25.3383C238.437 34.6207 225.206 44.8712 204 67.2296C172.006 59.839 154.337 58.9671 123.555 66.3288C123.555 66.3288 75.0045 16.8202 58.2675 26.4314Z" fill="#FF7F00"/>
</mask>
<g mask="url(#mask1_63_3543)">
<path d="M74.1909 71.0966L47.1131 74.4574C43.5353 37.4529 50.3889 33.4591 62.3872 25.909C73.749 25.1586 78.8374 28.1468 86.8369 36.3356C90.3223 39.8205 91.1111 42.1891 91.1314 46.9095C84.1814 41.6033 81.4726 40.7732 78.9505 43.4634L74.1909 71.0966Z" fill="#8E340F"/>
<path d="M253.02 70.1942L280.591 79.7599C288.071 46.1228 284.903 39.1045 274.984 28.9771C264.106 25.6116 258.463 27.338 248.782 33.4478C244.583 36.0291 243.267 38.1502 242.152 42.7371C250.143 39.1878 252.971 39.0087 254.8 42.2106L253.02 70.1942Z" fill="#8E340F"/>
</g>
<g filter="url(#filter4_i_63_3543)">
<path d="M42.2988 183.642C44.7357 182.673 55.3723 164.207 74.6083 170C154.003 180.345 135.802 171.641 162.626 170C198.394 174.515 241.126 151 273.995 182.694L285.358 184.533C285.801 194.425 283.1 199.831 273.617 207.318C280.122 206.369 282.612 206.59 284.541 208.603C279.792 224.178 275.175 231.615 253.96 233.2C178.007 286.977 147.401 281.992 74.6083 234.262C44.8092 227.258 41.7088 220.087 43.4102 208.442L52.962 208.558C46.1389 200.124 42.6431 193.938 42.2988 183.642Z" fill="#FEC792"/>
</g>
<path d="M133.862 102.899C99.768 95.903 78.7363 147.622 110.087 167.984C146.457 178.268 167.904 120.708 133.862 102.899Z" fill="#242424"/>
<g filter="url(#filter5_d_63_3543)">
<path d="M101.753 124.752C98.6592 126.018 102.014 145.358 110.702 147.202C119.102 150.541 123.38 149.078 130.702 144.069C137.16 133.612 139.122 127.691 136.492 116.92C132.412 117.134 130.11 118.023 125.965 123.185C125.961 114.426 123.139 111.108 114.911 107C110.559 114.806 108.825 119.388 112.28 129.45C107.569 131.35 105.308 130.064 101.753 124.752Z" fill="#FF0E0E"/>
</g>
<g filter="url(#filter6_d_63_3543)">
<path d="M108.387 131.834C106.296 132.679 108.563 145.572 114.433 146.801C120.109 149.027 123 148.052 127.947 144.713C132.31 137.741 133.636 133.794 131.859 126.613C129.102 126.756 127.547 127.349 124.746 130.79C124.744 124.951 122.837 122.738 117.278 120C114.337 125.204 113.165 128.259 115.499 134.967C112.317 136.233 110.789 135.376 108.387 131.834Z" fill="#FFAA00"/>
</g>
<g filter="url(#filter7_d_63_3543)">
<path d="M145.667 92.2139C137.733 85.9787 115.326 72.6993 108.212 87.2623C110.028 89.9441 108.777 89.0106 112.432 89.6414C115.905 90.039 120.752 90.715 123.933 91.9641C131.149 94.8015 138.959 103.618 146.796 102.972L148.169 101.203C148.436 97.1028 147.393 95.7993 145.667 92.2139Z" fill="#FEC792"/>
</g>
<path d="M194.701 99.8987C228.794 92.9029 249.826 144.622 218.475 164.984C182.106 175.268 160.659 117.707 194.701 99.8987Z" fill="#242424"/>
<g filter="url(#filter8_d_63_3543)">
<path d="M223.495 120.752C226.589 122.018 223.234 141.358 214.546 143.202C206.146 146.541 201.868 145.078 194.546 140.069C188.089 129.612 186.126 123.691 188.756 112.92C192.836 113.134 195.138 114.023 199.283 119.185C199.287 110.426 202.109 107.108 210.337 103C214.689 110.806 216.423 115.388 212.968 125.45C217.679 127.35 219.94 126.064 223.495 120.752Z" fill="#FF0E0E"/>
</g>
<g filter="url(#filter9_d_63_3543)">
<path d="M216.861 127.834C218.952 128.679 216.685 141.572 210.815 142.801C205.139 145.027 202.248 144.052 197.301 140.713C192.938 133.741 191.612 129.794 193.389 122.613C196.146 122.756 197.701 123.349 200.502 126.79C200.505 120.951 202.411 118.738 207.97 116C210.911 121.204 212.083 124.259 209.749 130.967C212.932 132.233 214.459 131.376 216.861 127.834Z" fill="#FFAA00"/>
</g>
<g filter="url(#filter10_d_63_3543)">
<path d="M183.399 92.4666C191.04 85.8756 212.817 71.5872 220.588 85.8103C218.897 88.5722 220.104 87.5826 216.481 88.3796C213.031 88.9352 208.22 89.8318 205.099 91.2248C198.019 94.3887 190.62 103.553 182.762 103.265L181.31 101.561C180.856 97.4768 181.838 96.127 183.399 92.4666Z" fill="#FEC792"/>
</g>
<path d="M58.2675 26.4314C58.2675 26.4314 26.3128 49.8599 58.7711 146.31C54.9657 159.371 53.1832 166.925 52.084 181.772C47.7639 180.424 45.0943 180.537 39.9326 182.357C38.7567 188.612 41.0071 194.082 47.2949 205.374C44.4236 205.136 42.9821 205.469 40.9856 207.653C41.1061 224.718 52.6147 229.389 74.2579 237.241C146.403 281.599 185.997 280.801 255.157 235.858C277.59 231.185 283.33 224.054 287.696 207.463C285.662 205.335 284.087 204.584 279.984 204.543C286.565 196.762 288.061 191.696 288.191 181.846C283.942 181.747 281.691 181.956 276.77 180.503C276.589 171.808 277.672 169.166 268.939 144.341C292.843 58.2293 289.318 37.2975 267.326 25.3383C238.437 34.6207 225.206 44.8712 204 67.2296C172.006 59.839 154.337 58.9671 123.555 66.3288C123.555 66.3288 75.0045 16.8202 58.2675 26.4314Z" stroke="black" stroke-width="6"/>
<ellipse cx="162.205" cy="170.146" rx="15" ry="8" transform="rotate(4.47551 162.205 170.146)" fill="#242424"/>
<path d="M62.155 45.0125C52.5453 53.9515 66.2208 143.159 69.8421 129.488C73.4634 115.817 97.8811 79.42 107.666 77.55C116.225 68.9909 71.7647 36.0735 62.155 45.0125Z" fill="#FEC792" stroke="black" stroke-width="6"/>
<path d="M267.737 43.5105C279.801 47.95 262.506 140.144 257.948 126.756C253.391 113.369 233.443 77.9476 223.552 76.7586C214.423 68.8118 255.673 39.0711 267.737 43.5105Z" fill="#FEC792" stroke="black" stroke-width="6"/>
<path d="M70.2321 74.7946C76.6443 64.9538 81.5668 61.0305 98.6823 64.0435L107.403 75.5053L76.6018 106.254C75.3427 94.1708 74.0886 87.3394 84.1363 76.4295C79.0042 73.2561 75.9115 73.311 70.2321 74.7946Z" fill="#FF7F00" stroke="black" stroke-width="5" stroke-linejoin="round"/>
<path d="M259.924 79.9829C255.969 68.9231 252.091 63.965 234.744 62.9256L223.602 72.0518C233.791 81.9934 241.21 87.1011 251.207 107.015C255.235 95.5536 253.263 91.291 246.02 78.3479C251.748 76.4515 254.744 77.2224 259.924 79.9829Z" fill="#FF7F00" stroke="black" stroke-width="5" stroke-linejoin="round"/>
<mask id="path-37-inside-1_63_3543" fill="white">
<path d="M75.124 180C142.645 190.76 180.612 192.483 248.624 184C246.844 210.596 238.879 224.026 210.624 245C173.419 256.676 151.736 257.04 111.124 243C81.9729 223.168 76.3408 208.664 75.124 180Z"/>
</mask>
<path d="M75.124 180C142.645 190.76 180.612 192.483 248.624 184C246.844 210.596 238.879 224.026 210.624 245C173.419 256.676 151.736 257.04 111.124 243C81.9729 223.168 76.3408 208.664 75.124 180Z" fill="#F6F6F6"/>
<path d="M75.124 180L75.7535 176.05L70.92 175.28L71.1276 180.17L75.124 180ZM248.624 184L252.615 184.267L252.939 179.431L248.129 180.031L248.624 184ZM210.624 245L211.822 248.816L212.466 248.614L213.008 248.212L210.624 245ZM111.124 243L108.874 246.307C109.166 246.506 109.483 246.665 109.817 246.78L111.124 243ZM75.124 180L74.4945 183.95C142.332 194.761 180.681 196.506 249.119 187.969L248.624 184L248.129 180.031C180.543 188.461 142.958 186.76 75.7535 176.05L75.124 180ZM248.624 184L244.633 183.733C243.768 196.658 241.431 205.954 236.149 214.507C230.805 223.159 222.239 231.396 208.24 241.788L210.624 245L213.008 248.212C227.264 237.63 236.807 228.666 242.955 218.71C249.164 208.656 251.7 197.938 252.615 184.267L248.624 184ZM210.624 245L209.426 241.184C191.016 246.961 176.752 249.84 162.206 249.644C147.653 249.447 132.531 246.168 112.431 239.22L111.124 243L109.817 246.78C130.329 253.871 146.355 257.431 162.098 257.643C177.847 257.856 193.027 254.715 211.822 248.816L210.624 245ZM111.124 243L113.374 239.693C99.0384 229.94 90.9398 221.794 86.1724 212.919C81.4034 204.041 79.7213 193.985 79.1204 179.83L75.124 180L71.1276 180.17C71.7435 194.679 73.4859 206.207 79.1248 216.705C84.7655 227.206 94.0585 236.228 108.874 246.307L111.124 243Z" fill="black" mask="url(#path-37-inside-1_63_3543)"/>
<path d="M83.8158 210.123C83.3546 211.374 82.8934 212.626 82.4322 213.877C83.8387 214.354 85.3362 214.836 86.814 215.302C113.14 223.072 140.627 230.485 168.158 226.959C169.639 226.707 171.183 226.383 172.624 226C171.167 226.318 169.615 226.576 168.128 226.761C140.632 229.069 113.723 220.516 88.0322 211.702C86.6019 211.183 85.1211 210.635 83.8158 210.123Z" fill="black"/>
<path d="M240.031 207.254C240.681 208.418 241.332 209.582 241.983 210.746C241.139 211.175 240.255 211.608 239.375 212.032C223.695 219.224 207.239 226.302 189.809 226.403C188.867 226.369 187.881 226.294 186.954 226.173C187.887 226.228 188.872 226.236 189.809 226.203C207.024 224.902 222.726 216.788 237.611 208.666C238.436 208.196 239.293 207.701 240.031 207.254Z" fill="black"/>
<ellipse opacity="0.4" cx="160.625" cy="443" rx="100" ry="5" fill="black"/>
<path d="M31.6816 242.803C31.0757 211.566 58.2814 214.714 64.3862 228.721C64.3862 228.721 65.6261 254.779 85.303 276.324C91.9975 283.655 103.749 256.068 112.125 262C112.125 262 107.599 328.05 75.1726 309.234C42.7464 290.418 32.2876 274.039 31.6816 242.803Z" fill="#FF7F00" stroke="black" stroke-width="5"/>
<mask id="mask2_63_3543" style="mask-type:alpha" maskUnits="userSpaceOnUse" x="33" y="220" width="60" height="79">
<path d="M62.4229 228.93C62.4229 228.93 63.4448 262.445 92.3218 284.793L74.4383 298.812C48.6083 277.555 32.0322 269.48 33.9006 245.003C32.2478 212.298 57.3532 217.662 62.4229 228.93Z" fill="#FF7F00"/>
</mask>
<g mask="url(#mask2_63_3543)">
<circle cx="49.7193" cy="239.458" r="25.8061" transform="rotate(27.7292 49.7193 239.458)" fill="#882E15"/>
</g>
<path d="M300.304 242.803C300.91 211.566 273.704 214.714 267.6 228.721C267.6 228.721 266.36 254.779 246.683 276.324C239.988 283.655 223.501 255.568 215.126 261.5C215.126 261.5 225.626 312.5 256.813 309.234C288.001 305.969 299.698 274.039 300.304 242.803Z" fill="#FF7F00" stroke="black" stroke-width="5"/>
<mask id="mask3_63_3543" style="mask-type:alpha" maskUnits="userSpaceOnUse" x="239" y="220" width="60" height="79">
<path d="M269.563 228.93C269.563 228.93 268.541 262.445 239.664 284.793L257.548 298.812C283.378 277.555 299.954 269.48 298.085 245.003C299.738 212.298 274.633 217.662 269.563 228.93Z" fill="#FF7F00"/>
</mask>
<g mask="url(#mask3_63_3543)">
<circle cx="25.8061" cy="25.8061" r="25.8061" transform="matrix(-0.885157 0.465293 0.465293 0.885157 293.102 204.608)" fill="#882E15"/>
</g>
<defs>
<filter id="filter0_i_63_3543" x="179.587" y="262.978" width="169.18" height="122.761" filterUnits="userSpaceOnUse" color-interpolation-filters="sRGB">
<feFlood flood-opacity="0" result="BackgroundImageFix"/>
<feBlend mode="normal" in="SourceGraphic" in2="BackgroundImageFix" result="shape"/>
<feColorMatrix in="SourceAlpha" type="matrix" values="0 0 0 0 0 0 0 0 0 0 0 0 0 0 0 0 0 0 127 0" result="hardAlpha"/>
<feOffset dx="-7" dy="-19"/>
<feComposite in2="hardAlpha" operator="arithmetic" k2="-1" k3="1"/>
<feColorMatrix type="matrix" values="0 0 0 0 0 0 0 0 0 0 0 0 0 0 0 0 0 0 0.25 0"/>
<feBlend mode="normal" in2="shape" result="effect1_innerShadow_63_3543"/>
</filter>
<filter id="filter1_i_63_3543" x="89.9907" y="414.758" width="49.6499" height="25.8188" filterUnits="userSpaceOnUse" color-interpolation-filters="sRGB">
<feFlood flood-opacity="0" result="BackgroundImageFix"/>
<feBlend mode="normal" in="SourceGraphic" in2="BackgroundImageFix" result="shape"/>
<feColorMatrix in="SourceAlpha" type="matrix" values="0 0 0 0 0 0 0 0 0 0 0 0 0 0 0 0 0 0 127 0" result="hardAlpha"/>
<feOffset dy="-9"/>
<feComposite in2="hardAlpha" operator="arithmetic" k2="-1" k3="1"/>
<feColorMatrix type="matrix" values="0 0 0 0 0 0 0 0 0 0 0 0 0 0 0 0 0 0 0.25 0"/>
<feBlend mode="normal" in2="shape" result="effect1_innerShadow_63_3543"/>
</filter>
<filter id="filter2_i_63_3543" x="185.003" y="414.758" width="49.6499" height="25.8188" filterUnits="userSpaceOnUse" color-interpolation-filters="sRGB">
<feFlood flood-opacity="0" result="BackgroundImageFix"/>
<feBlend mode="normal" in="SourceGraphic" in2="BackgroundImageFix" result="shape"/>
<feColorMatrix in="SourceAlpha" type="matrix" values="0 0 0 0 0 0 0 0 0 0 0 0 0 0 0 0 0 0 127 0" result="hardAlpha"/>
<feOffset dy="-9"/>
<feComposite in2="hardAlpha" operator="arithmetic" k2="-1" k3="1"/>
<feColorMatrix type="matrix" values="0 0 0 0 0 0 0 0 0 0 0 0 0 0 0 0 0 0 0.25 0"/>
<feBlend mode="normal" in2="shape" result="effect1_innerShadow_63_3543"/>
</filter>
<filter id="filter3_d_63_3543" x="111.947" y="219.001" width="105.415" height="104.723" filterUnits="userSpaceOnUse" color-interpolation-filters="sRGB">
<feFlood flood-opacity="0" result="BackgroundImageFix"/>
<feColorMatrix in="SourceAlpha" type="matrix" values="0 0 0 0 0 0 0 0 0 0 0 0 0 0 0 0 0 0 127 0" result="hardAlpha"/>
<feOffset dy="3"/>
<feComposite in2="hardAlpha" operator="out"/>
<feColorMatrix type="matrix" values="0 0 0 0 0 0 0 0 0 0 0 0 0 0 0 0 0 0 0.25 0"/>
<feBlend mode="normal" in2="BackgroundImageFix" result="effect1_dropShadow_63_3543"/>
<feBlend mode="normal" in="SourceGraphic" in2="effect1_dropShadow_63_3543" result="shape"/>
</filter>
<filter id="filter4_i_63_3543" x="42.2988" y="165.809" width="243.104" height="106.001" filterUnits="userSpaceOnUse" color-interpolation-filters="sRGB">
<feFlood flood-opacity="0" result="BackgroundImageFix"/>
<feBlend mode="normal" in="SourceGraphic" in2="BackgroundImageFix" result="shape"/>
<feColorMatrix in="SourceAlpha" type="matrix" values="0 0 0 0 0 0 0 0 0 0 0 0 0 0 0 0 0 0 127 0" result="hardAlpha"/>
<feOffset dx="-1" dy="-9"/>
<feComposite in2="hardAlpha" operator="arithmetic" k2="-1" k3="1"/>
<feColorMatrix type="matrix" values="0 0 0 0 0 0 0 0 0 0 0 0 0 0 0 0 0 0 0.25 0"/>
<feBlend mode="normal" in2="shape" result="effect1_innerShadow_63_3543"/>
</filter>
<filter id="filter5_d_63_3543" x="95.124" y="103.5" width="48" height="53" filterUnits="userSpaceOnUse" color-interpolation-filters="sRGB">
<feFlood flood-opacity="0" result="BackgroundImageFix"/>
<feColorMatrix in="SourceAlpha" type="matrix" values="0 0 0 0 0 0 0 0 0 0 0 0 0 0 0 0 0 0 127 0" result="hardAlpha"/>
<feOffset dy="2"/>
<feGaussianBlur stdDeviation="2.75"/>
<feComposite in2="hardAlpha" operator="out"/>
<feColorMatrix type="matrix" values="0 0 0 0 1 0 0 0 0 0.887949 0 0 0 0 0.159615 0 0 0 0.5 0"/>
<feBlend mode="normal" in2="BackgroundImageFix" result="effect1_dropShadow_63_3543"/>
<feBlend mode="normal" in="SourceGraphic" in2="effect1_dropShadow_63_3543" result="shape"/>
</filter>
<filter id="filter6_d_63_3543" x="102.124" y="116.5" width="36" height="39" filterUnits="userSpaceOnUse" color-interpolation-filters="sRGB">
<feFlood flood-opacity="0" result="BackgroundImageFix"/>
<feColorMatrix in="SourceAlpha" type="matrix" values="0 0 0 0 0 0 0 0 0 0 0 0 0 0 0 0 0 0 127 0" result="hardAlpha"/>
<feOffset dy="2"/>
<feGaussianBlur stdDeviation="2.75"/>
<feComposite in2="hardAlpha" operator="out"/>
<feColorMatrix type="matrix" values="0 0 0 0 1 0 0 0 0 0.887949 0 0 0 0 0.159615 0 0 0 0.5 0"/>
<feBlend mode="normal" in2="BackgroundImageFix" result="effect1_dropShadow_63_3543"/>
<feBlend mode="normal" in="SourceGraphic" in2="effect1_dropShadow_63_3543" result="shape"/>
</filter>
<filter id="filter7_d_63_3543" x="108.212" y="80.6873" width="40.998" height="25.3184" filterUnits="userSpaceOnUse" color-interpolation-filters="sRGB">
<feFlood flood-opacity="0" result="BackgroundImageFix"/>
<feColorMatrix in="SourceAlpha" type="matrix" values="0 0 0 0 0 0 0 0 0 0 0 0 0 0 0 0 0 0 127 0" result="hardAlpha"/>
<feOffset dx="1" dy="3"/>
<feComposite in2="hardAlpha" operator="out"/>
<feColorMatrix type="matrix" values="0 0 0 0 0 0 0 0 0 0 0 0 0 0 0 0 0 0 0.25 0"/>
<feBlend mode="normal" in2="BackgroundImageFix" result="effect1_dropShadow_63_3543"/>
<feBlend mode="normal" in="SourceGraphic" in2="effect1_dropShadow_63_3543" result="shape"/>
</filter>
<filter id="filter8_d_63_3543" x="182.124" y="99.5" width="48" height="53" filterUnits="userSpaceOnUse" color-interpolation-filters="sRGB">
<feFlood flood-opacity="0" result="BackgroundImageFix"/>
<feColorMatrix in="SourceAlpha" type="matrix" values="0 0 0 0 0 0 0 0 0 0 0 0 0 0 0 0 0 0 127 0" result="hardAlpha"/>
<feOffset dy="2"/>
<feGaussianBlur stdDeviation="2.75"/>
<feComposite in2="hardAlpha" operator="out"/>
<feColorMatrix type="matrix" values="0 0 0 0 1 0 0 0 0 0.887949 0 0 0 0 0.159615 0 0 0 0.5 0"/>
<feBlend mode="normal" in2="BackgroundImageFix" result="effect1_dropShadow_63_3543"/>
<feBlend mode="normal" in="SourceGraphic" in2="effect1_dropShadow_63_3543" result="shape"/>
</filter>
<filter id="filter9_d_63_3543" x="187.124" y="112.5" width="36" height="39" filterUnits="userSpaceOnUse" color-interpolation-filters="sRGB">
<feFlood flood-opacity="0" result="BackgroundImageFix"/>
<feColorMatrix in="SourceAlpha" type="matrix" values="0 0 0 0 0 0 0 0 0 0 0 0 0 0 0 0 0 0 127 0" result="hardAlpha"/>
<feOffset dy="2"/>
<feGaussianBlur stdDeviation="2.75"/>
<feComposite in2="hardAlpha" operator="out"/>
<feColorMatrix type="matrix" values="0 0 0 0 1 0 0 0 0 0.887949 0 0 0 0 0.159615 0 0 0 0.5 0"/>
<feBlend mode="normal" in2="BackgroundImageFix" result="effect1_dropShadow_63_3543"/>
<feBlend mode="normal" in="SourceGraphic" in2="effect1_dropShadow_63_3543" result="shape"/>
</filter>
<filter id="filter10_d_63_3543" x="181.198" y="79.724" width="40.3901" height="26.5474" filterUnits="userSpaceOnUse" color-interpolation-filters="sRGB">
<feFlood flood-opacity="0" result="BackgroundImageFix"/>
<feColorMatrix in="SourceAlpha" type="matrix" values="0 0 0 0 0 0 0 0 0 0 0 0 0 0 0 0 0 0 127 0" result="hardAlpha"/>
<feOffset dx="1" dy="3"/>
<feComposite in2="hardAlpha" operator="out"/>
<feColorMatrix type="matrix" values="0 0 0 0 0 0 0 0 0 0 0 0 0 0 0 0 0 0 0.25 0"/>
<feBlend mode="normal" in2="BackgroundImageFix" result="effect1_dropShadow_63_3543"/>
<feBlend mode="normal" in="SourceGraphic" in2="effect1_dropShadow_63_3543" result="shape"/>
</filter>
</defs>
</svg>
