<svg width="337" height="449" viewBox="0 0 337 449" fill="none" xmlns="http://www.w3.org/2000/svg">
<g filter="url(#filter0_i_63_3187)">
<path d="M190.583 382.925C317.995 442.98 328.718 316.467 323.673 323.419C284.261 400.959 264.687 261.883 199.911 314.148L190.583 382.925Z" fill="#FF7F00" stroke="black" stroke-width="6"/>
<mask id="mask0_63_3187" style="mask-type:alpha" maskUnits="userSpaceOnUse" x="194" y="305" width="127" height="92">
<path d="M194.764 380.369C301.895 436.885 324.922 329.442 320.217 335.925C277.103 390.173 261.673 270.338 203.415 316.204L194.764 380.369Z" fill="#FF7F00"/>
</mask>
<g mask="url(#mask0_63_3187)">
<path d="M357.502 362.111C251.816 407.871 248.158 343.699 251.853 349.259C288.458 373.86 302.459 282.753 351.843 324.91L357.502 362.111Z" fill="#FEC792"/>
<path d="M368.635 350.211C262.949 395.971 259.291 331.799 262.986 337.359C299.591 361.96 313.592 270.853 362.976 313.009L368.635 350.211Z" fill="#FEC792"/>
<path d="M363.322 385.065C257.635 430.825 253.977 366.653 257.672 372.213C294.277 396.814 308.279 305.707 357.663 347.863L363.322 385.065Z" fill="#FEC792"/>
</g>
</g>
<path d="M86.2695 364.274C60.0563 319.025 97.7661 319.948 97.7664 259L197.559 259C215.954 323.18 232.509 331.492 210.435 364.274C207.642 388.761 205.7 402.526 192.96 427.993C178.952 432.341 171.098 432.843 157.09 427.993C151.298 416.473 150.377 404.425 148.812 382.744C146.112 411.917 144.219 424.21 139.155 427.993C126.745 433.05 119.471 433.613 105.584 427.993C93.3811 407.194 89.5345 392.907 86.2695 364.274Z" fill="#FF7F00" stroke="black" stroke-width="5" stroke-linejoin="round"/>
<g filter="url(#filter1_i_63_3187)">
<path d="M105.875 440.85C101.096 438.864 97.2979 425.55 100.82 422.797C104.342 420.044 110.75 423.114 110.75 423.114C119.075 418.164 123.792 418.723 132.264 423.802C132.264 423.802 139.747 421.507 141.532 424.098C143.316 426.69 141.985 430.881 141.214 434.028C139.029 439.512 137.324 441.805 131.693 441.675L105.875 440.85Z" fill="#882E15" stroke="black" stroke-width="4" stroke-linejoin="round"/>
<path d="M114.429 427.476C110.196 431.962 108.327 433.943 113.061 440.632C115.751 439.393 108.97 433.875 114.477 427.424L114.429 427.476Z" stroke="black" stroke-width="2" stroke-linejoin="round"/>
<path d="M126.428 427.859C130.365 432.607 132.104 434.703 126.952 441.076C124.347 439.668 131.467 434.594 126.383 427.805L126.428 427.859Z" stroke="black" stroke-width="2" stroke-linejoin="round"/>
</g>
<g filter="url(#filter2_i_63_3187)">
<path d="M161.875 440.85C157.096 438.864 153.298 425.55 156.82 422.797C160.342 420.044 166.75 423.114 166.75 423.114C175.075 418.164 179.792 418.723 188.264 423.802C188.264 423.802 195.747 421.507 197.532 424.098C199.316 426.69 197.985 430.881 197.214 434.028C195.029 439.512 193.324 441.805 187.693 441.675L161.875 440.85Z" fill="#882E15" stroke="black" stroke-width="4" stroke-linejoin="round"/>
<path d="M170.429 427.476C166.196 431.962 164.327 433.943 169.061 440.632C171.751 439.393 164.97 433.875 170.477 427.424L170.429 427.476Z" stroke="black" stroke-width="2" stroke-linejoin="round"/>
<path d="M182.428 427.859C186.365 432.607 188.104 434.703 182.952 441.076C180.347 439.668 187.467 434.594 182.383 427.805L182.428 427.859Z" stroke="black" stroke-width="2" stroke-linejoin="round"/>
</g>
<path opacity="0.2" d="M209.326 253.233C206.524 259.936 179.392 282.957 145.384 278.958C111.377 274.959 89.1479 260.563 89.5349 257.272C89.9219 253.981 118.861 273.326 146.786 267.04C168.842 272.135 209.713 249.942 209.326 253.233Z" fill="black"/>
<g filter="url(#filter3_d_63_3187)">
<path d="M138.251 242.071C96.6995 279.855 124.287 294.43 122.58 291.664C119.115 270.416 162.161 282.569 153.529 252.094L138.251 242.071Z" fill="#FEBB7A"/>
<path d="M156.032 242.477C197.57 279.988 169.977 294.745 171.685 291.967C175.157 270.697 132.107 283.133 140.75 252.601L156.032 242.477Z" fill="#FEBB7A"/>
<path d="M159.213 258.579C174.241 306.635 149.981 298.476 133.971 316.724C145.856 285.272 111.603 276.43 139.226 250.721L159.213 258.579Z" fill="#FEBB7A"/>
<path d="M150.985 223.002C75.0135 257.29 107.336 290.69 106.186 285.984C110.998 254.291 166.268 291.413 167.994 244.263L150.985 223.002Z" fill="#FEBB7A"/>
<path d="M156.77 235.402C217.416 260.555 192.55 287.739 193.366 283.994C188.949 259.095 146.039 289.795 143.757 252.616L156.77 235.402Z" fill="#FEBB7A"/>
<path d="M150.32 221.115C151.116 220.834 152.011 221.084 152.546 221.753L164.405 236.575C189.575 248.338 197.981 260.542 199.48 270.228C200.288 275.448 199.04 279.711 197.602 282.448C196.897 283.791 196.097 284.859 195.383 285.5C195.199 285.665 194.979 285.84 194.73 285.986C194.534 286.1 194.078 286.344 193.479 286.341C193.138 286.34 192.7 286.257 192.283 285.973C191.861 285.686 191.614 285.296 191.485 284.948C191.37 284.635 191.341 284.337 191.347 284.091C190.838 281.441 189.863 279.666 188.638 278.429C187.364 277.142 185.678 276.294 183.573 275.752C182.703 275.528 181.776 275.363 180.797 275.238C181.235 278.005 181.17 280.488 180.76 282.696C179.925 287.191 177.687 290.318 175.722 292.146C174.761 293.039 173.788 293.695 172.991 294.025C172.785 294.11 172.538 294.195 172.271 294.246C172.063 294.286 171.563 294.363 171.007 294.163C170.69 294.049 170.31 293.827 170.015 293.424C169.716 293.017 169.614 292.573 169.608 292.208C169.603 291.892 169.668 291.616 169.748 291.396C170.07 289.186 169.792 287.55 169.19 286.274C168.559 284.936 167.487 283.81 165.982 282.795C165.965 282.783 165.948 282.772 165.931 282.76C165.938 283.713 165.914 284.626 165.856 285.502C165.415 292.243 163.098 296.758 159.652 300.237C156.33 303.591 151.968 305.941 147.805 308.417C143.553 310.946 139.261 313.727 135.474 318.043C134.837 318.77 133.77 318.937 132.941 318.439C132.113 317.941 131.758 316.922 132.1 316.017C137.726 301.13 132.522 291.813 128.832 282.291C128.813 282.241 128.795 282.191 128.775 282.141C128.611 282.244 128.45 282.349 128.294 282.456C126.786 283.482 125.712 284.618 125.078 285.964C124.474 287.248 124.195 288.888 124.517 291.096C124.597 291.316 124.662 291.59 124.657 291.904C124.651 292.27 124.549 292.711 124.253 293.117C123.961 293.517 123.584 293.74 123.269 293.855C122.715 294.058 122.215 293.985 122.006 293.947C121.738 293.898 121.491 293.813 121.285 293.729C120.485 293.404 119.51 292.753 118.549 291.864C116.581 290.046 114.342 286.931 113.507 282.439C113.198 280.773 113.086 278.948 113.239 276.962C112.65 277.39 112.107 277.865 111.613 278.393C110.004 280.111 108.78 282.522 108.208 286.015C108.227 286.284 108.211 286.612 108.093 286.959C107.972 287.316 107.732 287.716 107.316 288.018C106.904 288.316 106.465 288.415 106.116 288.428C105.5 288.45 105.013 288.213 104.788 288.09C104.509 287.938 104.254 287.749 104.033 287.561C103.169 286.83 102.158 285.563 101.242 283.926C99.3817 280.601 97.7014 275.367 98.5438 268.859C100.239 255.766 111.962 238.419 150.162 221.179L150.32 221.115ZM120.839 292.647L120.878 292.715C120.861 292.688 120.847 292.659 120.832 292.631C120.835 292.637 120.836 292.642 120.839 292.647ZM104.231 286.392L104.244 286.458L104.23 286.388C104.23 286.389 104.23 286.391 104.231 286.392Z" stroke="black" stroke-width="4" stroke-linejoin="round"/>
</g>
<path d="M42.6415 26.4314C42.6415 26.4314 10.6868 49.8599 43.1451 146.31C39.5082 161.294 36.9826 176.653 40.3434 187.264C65.8572 267.818 270.361 226.961 261.144 180.503C260.963 171.808 262.046 169.166 253.313 144.341C277.217 58.2293 273.692 37.2975 251.7 25.3383C222.811 34.6207 209.58 44.8712 188.374 67.2296C156.38 59.839 138.711 58.9671 107.929 66.3288C107.929 66.3288 59.3785 16.8202 42.6415 26.4314Z" fill="#FF7F00"/>
<mask id="mask1_63_3187" style="mask-type:alpha" maskUnits="userSpaceOnUse" x="28" y="25" width="242" height="209">
<path d="M42.6415 26.4314C42.6415 26.4314 10.6868 49.8599 43.1451 146.31C39.5082 161.294 36.9826 176.653 40.3434 187.264C65.8572 267.818 270.361 226.961 261.144 180.503C260.963 171.808 262.046 169.166 253.313 144.341C277.217 58.2293 273.692 37.2975 251.7 25.3383C222.811 34.6207 209.58 44.8712 188.374 67.2296C156.38 59.839 138.711 58.9671 107.929 66.3288C107.929 66.3288 59.3785 16.8202 42.6415 26.4314Z" fill="#FF7F00"/>
</mask>
<g mask="url(#mask1_63_3187)">
<path d="M58.5649 71.0966L31.4871 74.4574C27.9094 37.4529 34.7629 33.4591 46.7613 25.909C58.1231 25.1586 63.2114 28.1468 71.2109 36.3356C74.6963 39.8205 75.4851 42.1891 75.5054 46.9095C68.5555 41.6033 65.8466 40.7732 63.3245 43.4634L58.5649 71.0966Z" fill="#8E340F"/>
<path d="M237.394 70.1942L264.965 79.7599C272.445 46.1228 269.277 39.1045 259.358 28.9771C248.48 25.6116 242.837 27.338 233.156 33.4478C228.958 36.0291 227.641 38.1502 226.526 42.7371C234.517 39.1878 237.345 39.0087 239.174 42.2106L237.394 70.1942Z" fill="#8E340F"/>
</g>
<g filter="url(#filter4_i_63_3187)">
<path d="M26.6727 183.642C29.1097 182.673 31.4771 183.194 50.7131 188.986C74.3716 204.057 93.1186 208.457 148.043 200.431C183.811 204.946 196.942 218.304 258.369 182.694L269.732 184.533C270.175 194.425 267.474 199.831 257.991 207.318C264.496 206.369 266.986 206.59 268.915 208.603C264.166 224.178 259.549 231.615 238.334 233.2C162.381 286.977 131.775 281.992 58.9823 234.262C29.1831 227.258 26.0828 220.087 27.7842 208.442L37.3359 208.558C30.5129 200.124 27.0171 193.938 26.6727 183.642Z" fill="#FEC792"/>
</g>
<path d="M184.317 131.472C219.025 128.881 233.29 182.86 199.598 199.058C162.215 204.621 148.282 144.795 184.317 131.472Z" fill="#242424"/>
<g filter="url(#filter5_d_63_3187)">
<path d="M181.981 143.61C200.228 146.566 205.523 165.488 188.805 175.017C169.358 171.48 169.661 155.556 181.981 143.61Z" fill="#F4F3F3"/>
</g>
<g filter="url(#filter6_i_63_3187)">
<path d="M202.884 177.117C210.178 178.299 212.295 185.862 205.612 189.671C197.839 188.257 197.96 181.892 202.884 177.117Z" fill="#3E3E3E"/>
</g>
<g filter="url(#filter7_d_63_3187)">
<path d="M176.074 107.456C185.972 105.492 211.963 103.803 211.708 120.009C208.874 121.577 210.413 121.312 206.868 120.218C203.593 119 198.965 117.407 195.564 117.079C187.844 116.339 176.888 120.662 170.194 116.535L169.771 114.336C171.391 110.56 172.911 109.87 176.074 107.456Z" fill="#FEC792"/>
</g>
<path d="M113.793 131.09C79.5572 124.824 59.6352 176.981 91.4141 196.668C127.995 206.173 148.208 148.167 113.793 131.09Z" fill="#242424"/>
<g filter="url(#filter8_d_63_3187)">
<path d="M118.085 139.109C100.554 140.058 93.6436 157.393 108.47 168.081C127.193 166.704 128.514 151.635 118.085 139.109Z" fill="#F4F3F3"/>
</g>
<g filter="url(#filter9_i_63_3187)">
<path d="M89.4316 174.247C81.1466 174.696 77.8806 182.888 84.8876 187.939C93.7356 187.288 94.36 180.167 89.4316 174.247Z" fill="#3E3E3E"/>
</g>
<g filter="url(#filter10_d_63_3187)">
<path d="M124.542 108.086C114.908 105.08 89.2437 100.639 87.775 116.78C90.4263 118.64 88.9243 118.213 92.5655 117.502C95.952 116.639 100.722 115.547 104.14 115.583C111.894 115.668 122.329 121.13 129.423 117.739L130.077 115.597C128.868 111.67 127.43 110.822 124.542 108.086Z" fill="#FEC792"/>
</g>
<path d="M42.6415 26.4314C42.6415 26.4314 10.6868 49.8599 43.1451 146.31C39.3397 159.371 37.5572 166.925 36.458 181.772C32.138 180.424 29.4684 180.537 24.3066 182.357C23.1308 188.612 25.3811 194.082 31.6689 205.374C28.7976 205.136 27.3561 205.469 25.3596 207.653C25.4802 224.718 36.9887 229.389 58.6319 237.241C130.777 281.599 170.371 280.801 239.531 235.858C261.964 231.185 267.704 224.054 272.07 207.463C270.036 205.335 268.461 204.584 264.358 204.543C270.939 196.762 272.435 191.696 272.565 181.846C268.316 181.747 266.065 181.956 261.144 180.503C260.963 171.808 262.046 169.166 253.313 144.341C277.217 58.2293 273.692 37.2975 251.7 25.3383C222.811 34.6207 209.58 44.8712 188.374 67.2296C156.38 59.839 138.711 58.9671 107.929 66.3288C107.929 66.3288 59.3785 16.8202 42.6415 26.4314Z" stroke="black" stroke-width="6"/>
<path d="M148.493 203.857C152.957 227.464 123.306 233.792 113.717 215.57" stroke="#242424" stroke-width="4"/>
<path d="M149.558 203.881C144.026 227.261 173.359 234.93 183.765 217.162" stroke="#242424" stroke-width="4"/>
<ellipse cx="148.887" cy="200.105" rx="15" ry="8" transform="rotate(4.47551 148.887 200.105)" fill="#242424"/>
<path d="M46.5288 45.0125C36.9191 53.9515 50.5946 143.159 54.2159 129.488C57.8372 115.817 82.2549 79.42 92.0402 77.55C100.598 68.9909 56.1385 36.0735 46.5288 45.0125Z" fill="#FEC792" stroke="black" stroke-width="6"/>
<path d="M252.111 43.5105C264.175 47.95 246.88 140.144 242.322 126.756C237.764 113.369 217.817 77.9476 207.926 76.7586C198.796 68.8118 240.047 39.0711 252.111 43.5105Z" fill="#FEC792" stroke="black" stroke-width="6"/>
<path d="M54.6059 74.7947C61.0181 64.9539 65.9406 61.0306 83.0561 64.0436L91.7772 75.5055L60.9756 106.254C59.7165 94.1709 58.4624 87.3395 68.5101 76.4296C63.378 73.2562 60.2853 73.3111 54.6059 74.7947Z" fill="#FF7F00" stroke="black" stroke-width="5" stroke-linejoin="round"/>
<path d="M244.298 79.9829C240.343 68.9231 236.465 63.965 219.118 62.9256L207.976 72.0518C218.165 81.9934 225.584 87.1011 235.581 107.015C239.609 95.5536 237.637 91.291 230.394 78.3479C236.122 76.4515 239.118 77.2224 244.298 79.9829Z" fill="#FF7F00" stroke="black" stroke-width="5" stroke-linejoin="round"/>
<g filter="url(#filter11_i_63_3187)">
<path d="M201.499 261C208.759 270.004 211.245 291.354 211.999 294.5C219.653 297.464 229.791 302.116 233.499 312C235.404 307.067 210.499 252.5 201.499 261Z" fill="#FF7F00"/>
</g>
<path d="M203.168 258.127C202.018 258.239 200.987 258.733 200.126 259.546L198.782 260.816L199.942 262.256C203.26 266.371 205.62 273.552 207.243 280.408C208.042 283.781 208.642 286.983 209.092 289.55C209.526 292.031 209.846 294.1 210.054 294.966L210.298 295.987L211.277 296.365C218.985 299.35 228.265 303.743 231.627 312.703L233.473 317.622L235.365 312.721C235.675 311.918 235.622 310.984 235.538 310.283C235.443 309.486 235.244 308.551 234.974 307.531C234.431 305.484 233.55 302.904 232.432 300.03C230.193 294.273 226.943 287.18 223.349 280.513C219.77 273.874 215.784 267.531 212.056 263.357C210.212 261.293 208.281 259.585 206.352 258.723C205.366 258.281 204.284 258.018 203.168 258.127Z" stroke="black" stroke-width="4"/>
<g filter="url(#filter12_i_63_3187)">
<path d="M93.6295 263.154C91.7452 273.469 88.2361 294.57 83.1295 296.654C75.475 299.618 65.3378 304.27 61.6293 314.154C59.7245 309.221 84.6297 254.654 93.6295 263.154Z" fill="#FF7F00"/>
</g>
<path d="M91.9603 260.281C93.1099 260.393 94.1416 260.887 95.0027 261.7L95.792 262.445L95.5969 263.514C94.6615 268.635 93.2981 276.576 91.5249 283.488C90.6394 286.939 89.6315 290.219 88.4888 292.801C87.9178 294.091 87.2857 295.27 86.5785 296.228C85.8887 297.162 85.0076 298.048 83.8848 298.506L83.8687 298.513L83.8516 298.519C76.1434 301.504 66.863 305.897 63.5014 314.857L61.6557 319.776L59.7633 314.875C59.4534 314.072 59.5065 313.139 59.5904 312.437C59.6858 311.64 59.8841 310.705 60.1545 309.685C60.6973 307.638 61.5788 305.058 62.6964 302.184C64.9353 296.427 68.1856 289.334 71.7795 282.667C75.3586 276.028 79.3442 269.685 83.0727 265.511C84.9164 263.447 86.8479 261.739 88.7759 260.877C89.7629 260.436 90.8444 260.172 91.9603 260.281Z" stroke="black" stroke-width="4"/>
<g filter="url(#filter13_d_63_3187)">
<path d="M218.632 287.47C218.536 302.738 217.968 311.598 217.329 320.187C216.692 328.75 215.986 337.008 215.603 351.144L215.566 352.519L214.269 352.976L211.305 354.019L211.293 354.023L159.977 371.69L157.242 372.631L157.327 369.74C157.941 348.812 158.365 327.878 158.6 306.941L158.616 305.537L159.943 305.075L215.973 285.568L218.649 284.637L218.632 287.47Z" fill="#971120" stroke="black" stroke-width="4"/>
<path d="M82.7103 285.469C89.3938 287.295 96.1765 289.769 102.872 292.299C109.597 294.841 116.213 297.431 122.685 299.553L122.684 299.553C127.384 301.093 132.941 303.11 137.627 305.149L138.552 305.557L139.713 306.076L139.735 307.349L140.801 369.505L140.853 372.459L138.091 371.409C134.118 369.899 130.145 368.596 126.06 367.232L126.04 367.226C112.781 362.65 97.0998 357.792 84.0105 352.752L82.7351 352.26L82.7291 350.893C82.6619 333.96 82.3034 317.953 80.1875 287.537L79.9921 284.727L82.7103 285.469Z" fill="#971120" stroke="black" stroke-width="4"/>
<path d="M161.461 308.016L160.158 371.07L160.144 371.793L159.67 372.339C156.9 375.532 152.965 376.421 149.288 376.234C145.618 376.047 141.93 374.79 139.156 373.332L138.237 372.849L138.104 371.819C137.844 369.816 137.753 365.756 137.709 361.774C137.665 357.703 137.669 353.638 137.622 351.363L137.495 345.956C137.211 333.339 137.025 320.72 136.935 308.099L136.911 304.809L139.843 306.303C146.025 309.453 152.487 309.564 158.49 306.226L161.534 304.534L161.461 308.016Z" fill="#971120" stroke="black" stroke-width="4"/>
<path d="M206.368 281.646C207.871 281.386 210.268 281.349 212.072 282.618L213.179 283.397L212.868 284.715L212.736 285.273L212.558 286.031L211.912 286.47C211.31 286.878 210.389 287.269 209.511 287.609C208.573 287.972 207.468 288.355 206.365 288.723C204.088 289.481 201.923 290.144 200.793 290.552L200.792 290.551C192.827 293.476 184.843 296.341 176.841 299.145L176.842 299.146C169.613 301.696 161.5 304.062 155.433 307.778L155.129 307.964L154.779 308.034C152.847 308.42 150.955 308.618 149.146 308.838L145.4 309.292L147.127 305.937C147.326 305.55 147.528 305.165 147.73 304.783L147.731 304.782C152.409 295.964 160.356 291.522 168.819 289.014C177.19 286.533 186.47 285.846 193.835 284.8C197.59 284.266 202.165 282.853 206.152 281.696L206.259 281.664L206.368 281.646Z" fill="#F4F3F3" stroke="black" stroke-width="4"/>
<path d="M91.3163 281.372C94.3712 281.603 97.9287 282.713 101.252 283.854C102.892 284.416 104.477 284.986 105.979 285.501L107.753 285.316C108.858 285.201 110.088 285.303 111.17 285.44C112.217 285.573 113.387 285.776 114.182 285.893C119.475 286.43 126.241 287.686 132.565 290.097C138.878 292.503 144.996 296.154 148.623 301.632L148.953 302.138C149.719 303.353 150.429 304.813 150.111 306.879L149.923 308.096L148.751 308.477C147.737 308.806 146.683 308.668 145.869 308.474C145.011 308.269 144.13 307.927 143.327 307.575C142.519 307.221 141.711 306.82 141.017 306.479C140.472 306.212 140.015 305.99 139.637 305.825L139.285 305.679C125.631 300.372 111.861 295.745 98.0365 290.656C97.3902 290.418 94.7172 289.498 92.5376 288.685C91.3841 288.255 90.2252 287.803 89.2835 287.392C88.8146 287.187 88.3718 286.98 87.9996 286.781C87.6916 286.617 87.218 286.349 86.8654 285.988L85.5586 284.65L86.8056 283.257C87.4706 282.514 88.1409 282.105 88.9218 281.858C89.2441 281.756 89.5739 281.686 89.8207 281.633C90.0895 281.575 90.3405 281.519 90.6316 281.438L90.9687 281.345L91.3163 281.372Z" fill="#F4F3F3" stroke="black" stroke-width="4"/>
<path d="M214.548 283.228C214.838 283.194 215.284 283.154 215.77 283.24C217.017 283.462 217.731 284.328 218.192 285.199L218.953 286.64L217.696 287.678C217.433 287.895 217.131 288.041 216.984 288.112C216.785 288.206 216.557 288.304 216.317 288.399C215.835 288.592 215.22 288.815 214.531 289.054C213.146 289.533 211.377 290.105 209.59 290.671C205.97 291.817 202.356 292.914 201.365 293.257L191.542 296.738C181.724 300.232 171.917 303.766 162.124 307.342L162.123 307.341C161.588 307.551 160.647 307.91 159.639 307.61C159.107 307.452 158.721 307.165 158.458 306.931C158.213 306.713 157.98 306.453 157.801 306.252L156.875 305.218L157.52 303.989C157.855 303.352 158.434 302.984 158.668 302.84C159 302.635 159.382 302.449 159.756 302.284C160.512 301.952 161.447 301.617 162.36 301.312C163.282 301.004 164.231 300.709 165.027 300.463C165.854 300.208 166.462 300.02 166.782 299.906C182.23 294.208 197.74 288.718 213.309 283.435L213.501 283.37L213.703 283.344C213.839 283.327 213.967 283.309 214.107 283.288C214.238 283.269 214.395 283.246 214.548 283.228Z" fill="#971120" stroke="black" stroke-width="4"/>
<path d="M82.3878 283.066C84.0477 282.955 85.3366 283.255 86.7273 283.748C104.004 289.866 121.118 296.177 138.388 302.172L138.389 302.172C138.698 302.28 139.045 302.396 139.32 302.507C139.617 302.627 139.993 302.802 140.355 303.103C141.065 303.694 141.388 304.527 141.621 305.081L142.814 307.925L139.731 307.855C139.588 307.851 139.084 307.848 138.542 307.808C138.105 307.776 137.465 307.71 136.872 307.531L136.622 307.448C118.561 300.782 100.461 294.518 82.3359 287.929L81.5923 287.658L81.2344 286.952C81.068 286.623 80.8989 286.287 80.7354 285.963L79.3757 283.267L82.3878 283.066Z" fill="#971120" stroke="black" stroke-width="4"/>
<path d="M140.964 303.979C146.075 306.271 150.722 306.742 155.772 304.602C155.959 304.523 156.096 304.456 156.252 304.381C156.388 304.315 156.623 304.201 156.89 304.113C157.379 303.95 157.838 303.919 158.302 303.942L158.77 303.98L159.64 304.075L160.161 304.778L160.784 305.623L162.163 307.486L160.117 308.576C157.743 309.841 153.443 310.958 149.374 311.258C147.316 311.41 145.196 311.363 143.319 310.969C141.479 310.583 139.596 309.804 138.376 308.255L137.833 307.564L137.974 306.696L138.172 305.482L138.59 302.915L140.964 303.979Z" fill="#971120" stroke="black" stroke-width="4"/>
</g>
<g filter="url(#filter14_i_63_3187)">
<path d="M75.808 304.895L76.17 305.145C77.055 306.663 76.6197 310.624 76.5539 312.62C81.4645 313.582 96.665 315.238 94.5717 323.249C90.2697 327.417 85.7252 325.663 80.72 325.858L80.8438 326.857C83.7616 328.619 88.7697 327.286 92.1452 327.192C95.0042 327.112 96.4443 331.364 95.8865 333.611C94.6061 338.78 86.7479 338.673 82.6021 338.156L79.9887 337.837L79.7011 338.614C82.4949 341.301 90.0615 338.797 93.0087 340.47C94.7904 344.917 89.3017 346.758 85.8382 347.435C83.5364 347.31 81.2608 346.886 79.0687 346.175C68.8082 342.746 66.3074 335.143 67.0579 325.061C67.4865 319.308 69.5639 315.6 71.4715 310.348L70.9454 310.135C64.7605 316.311 65.0403 327.06 65.7114 335.184C59.6014 321.609 63.0326 312.101 75.808 304.895Z" fill="#8E3411"/>
</g>
<path d="M76.9455 303.25L77.3072 303.5L77.6736 303.753L77.8976 304.138C78.3171 304.858 78.4995 305.7 78.5943 306.407C78.6942 307.152 78.7217 307.954 78.7183 308.713C78.715 309.437 78.6788 310.239 78.641 310.961C81.3031 311.42 85.4041 312.129 88.883 313.415C91.0656 314.223 93.2695 315.344 94.7933 316.981C96.4196 318.727 97.2197 321.025 96.5062 323.755L96.3656 324.295L95.9634 324.684C95.5159 325.118 95.0633 325.497 94.6086 325.831C95.7813 326.513 96.6008 327.635 97.0961 328.655C97.9007 330.312 98.2432 332.419 97.8277 334.093C97.2609 336.38 95.8014 337.847 94.0852 338.781L94.605 339.077L94.8654 339.727C95.4723 341.241 95.5186 342.722 94.9878 344.071C94.4774 345.368 93.521 346.32 92.5321 347.008C90.5963 348.355 88.0188 349.046 86.2224 349.397L85.9778 349.445L85.73 349.432C83.2551 349.298 80.8082 348.842 78.4512 348.077L78.4426 348.075L78.435 348.072C72.892 346.22 69.2396 343.151 67.1496 339.015C66.5872 337.902 66.1471 336.73 65.8128 335.507L63.8879 336.005C60.7118 328.949 59.8735 322.63 61.7844 317.008C63.6922 311.395 68.1999 306.89 74.8255 303.153L75.9151 302.538L76.9455 303.25Z" stroke="black" stroke-width="4"/>
<g filter="url(#filter15_di_63_3187)">
<path d="M224.2 307.507L223.885 307.595C222.893 308.449 222.238 311.344 221.799 312.766C218.108 312.251 207.001 309.726 206.53 315.876C208.548 319.856 212.174 319.724 215.651 321.077L215.321 321.75C212.839 322.282 209.636 320.127 207.281 319.242C205.288 318.491 203.241 321.136 203.088 322.853C202.735 326.805 208.295 328.637 211.34 329.28L213.258 329.69L213.271 330.307C210.652 331.52 205.931 327.92 203.449 328.383C201.115 331.081 204.533 333.711 206.808 335.028C208.459 335.499 210.164 335.754 211.881 335.785C219.939 335.861 223.546 331.115 225.466 323.832C226.561 319.677 225.998 316.562 225.93 312.4L226.352 312.378C229.208 318.229 226.401 325.73 223.956 331.288C231.555 323.212 231.447 315.683 224.2 307.507Z" fill="#8E340F"/>
<path d="M223.661 305.581L223.346 305.669L222.917 305.789L222.579 306.08C222.033 306.55 221.664 307.171 221.415 307.666C221.149 308.196 220.926 308.778 220.74 309.324C220.614 309.697 220.489 310.113 220.37 310.515C218.386 310.194 215.515 309.764 212.912 309.822C211.15 309.861 209.231 310.119 207.656 310.957C205.948 311.866 204.711 313.436 204.536 315.723L204.493 316.281L204.747 316.78C204.854 316.991 204.967 317.192 205.082 317.386C204.266 317.694 203.577 318.21 203.079 318.71C202.045 319.746 201.222 321.253 201.096 322.676C200.951 324.304 201.459 325.637 202.255 326.707L201.937 327.074C201.069 328.077 200.618 329.233 200.671 330.46C200.721 331.631 201.22 332.63 201.785 333.404C202.887 334.911 204.611 336.067 205.805 336.759L206.02 336.884L206.259 336.952C208.077 337.471 209.955 337.75 211.844 337.785L211.853 337.785L211.862 337.784C216.326 337.827 219.781 336.516 222.369 334.003C223.043 333.348 223.642 332.623 224.18 331.843L225.413 332.659C229.414 328.406 231.625 324.042 231.645 319.444C231.665 314.857 229.501 310.473 225.697 306.18L224.866 305.243L223.661 305.581Z" stroke="black" stroke-width="4"/>
</g>
<ellipse opacity="0.4" cx="151" cy="442.5" rx="78" ry="5.5" fill="black"/>
<defs>
<filter id="filter0_i_63_3187" x="187.315" y="299.072" width="140.32" height="103.078" filterUnits="userSpaceOnUse" color-interpolation-filters="sRGB">
<feFlood flood-opacity="0" result="BackgroundImageFix"/>
<feBlend mode="normal" in="SourceGraphic" in2="BackgroundImageFix" result="shape"/>
<feColorMatrix in="SourceAlpha" type="matrix" values="0 0 0 0 0 0 0 0 0 0 0 0 0 0 0 0 0 0 127 0" result="hardAlpha"/>
<feOffset dx="-7" dy="-19"/>
<feComposite in2="hardAlpha" operator="arithmetic" k2="-1" k3="1"/>
<feColorMatrix type="matrix" values="0 0 0 0 0 0 0 0 0 0 0 0 0 0 0 0 0 0 0.25 0"/>
<feBlend mode="normal" in2="shape" result="effect1_innerShadow_63_3187"/>
</filter>
<filter id="filter1_i_63_3187" x="97.4434" y="417.683" width="46.9756" height="25.9979" filterUnits="userSpaceOnUse" color-interpolation-filters="sRGB">
<feFlood flood-opacity="0" result="BackgroundImageFix"/>
<feBlend mode="normal" in="SourceGraphic" in2="BackgroundImageFix" result="shape"/>
<feColorMatrix in="SourceAlpha" type="matrix" values="0 0 0 0 0 0 0 0 0 0 0 0 0 0 0 0 0 0 127 0" result="hardAlpha"/>
<feOffset dy="-9"/>
<feComposite in2="hardAlpha" operator="arithmetic" k2="-1" k3="1"/>
<feColorMatrix type="matrix" values="0 0 0 0 0 0 0 0 0 0 0 0 0 0 0 0 0 0 0.25 0"/>
<feBlend mode="normal" in2="shape" result="effect1_innerShadow_63_3187"/>
</filter>
<filter id="filter2_i_63_3187" x="153.443" y="417.683" width="46.9756" height="25.9979" filterUnits="userSpaceOnUse" color-interpolation-filters="sRGB">
<feFlood flood-opacity="0" result="BackgroundImageFix"/>
<feBlend mode="normal" in="SourceGraphic" in2="BackgroundImageFix" result="shape"/>
<feColorMatrix in="SourceAlpha" type="matrix" values="0 0 0 0 0 0 0 0 0 0 0 0 0 0 0 0 0 0 127 0" result="hardAlpha"/>
<feOffset dy="-9"/>
<feComposite in2="hardAlpha" operator="arithmetic" k2="-1" k3="1"/>
<feColorMatrix type="matrix" values="0 0 0 0 0 0 0 0 0 0 0 0 0 0 0 0 0 0 0.25 0"/>
<feBlend mode="normal" in2="shape" result="effect1_innerShadow_63_3187"/>
</filter>
<filter id="filter3_d_63_3187" x="96.3208" y="219.001" width="105.415" height="104.723" filterUnits="userSpaceOnUse" color-interpolation-filters="sRGB">
<feFlood flood-opacity="0" result="BackgroundImageFix"/>
<feColorMatrix in="SourceAlpha" type="matrix" values="0 0 0 0 0 0 0 0 0 0 0 0 0 0 0 0 0 0 127 0" result="hardAlpha"/>
<feOffset dy="3"/>
<feComposite in2="hardAlpha" operator="out"/>
<feColorMatrix type="matrix" values="0 0 0 0 0 0 0 0 0 0 0 0 0 0 0 0 0 0 0.25 0"/>
<feBlend mode="normal" in2="BackgroundImageFix" result="effect1_dropShadow_63_3187"/>
<feBlend mode="normal" in="SourceGraphic" in2="effect1_dropShadow_63_3187" result="shape"/>
</filter>
<filter id="filter4_i_63_3187" x="26.6726" y="182.694" width="243.105" height="89.1163" filterUnits="userSpaceOnUse" color-interpolation-filters="sRGB">
<feFlood flood-opacity="0" result="BackgroundImageFix"/>
<feBlend mode="normal" in="SourceGraphic" in2="BackgroundImageFix" result="shape"/>
<feColorMatrix in="SourceAlpha" type="matrix" values="0 0 0 0 0 0 0 0 0 0 0 0 0 0 0 0 0 0 127 0" result="hardAlpha"/>
<feOffset dx="-1" dy="-9"/>
<feComposite in2="hardAlpha" operator="arithmetic" k2="-1" k3="1"/>
<feColorMatrix type="matrix" values="0 0 0 0 0 0 0 0 0 0 0 0 0 0 0 0 0 0 0.25 0"/>
<feBlend mode="normal" in2="shape" result="effect1_innerShadow_63_3187"/>
</filter>
<filter id="filter5_d_63_3187" x="169.354" y="143.61" width="33.5391" height="39.4073" filterUnits="userSpaceOnUse" color-interpolation-filters="sRGB">
<feFlood flood-opacity="0" result="BackgroundImageFix"/>
<feColorMatrix in="SourceAlpha" type="matrix" values="0 0 0 0 0 0 0 0 0 0 0 0 0 0 0 0 0 0 127 0" result="hardAlpha"/>
<feOffset dy="4"/>
<feGaussianBlur stdDeviation="2"/>
<feComposite in2="hardAlpha" operator="out"/>
<feColorMatrix type="matrix" values="0 0 0 0 0 0 0 0 0 0 0 0 0 0 0 0 0 0 0.25 0"/>
<feBlend mode="normal" in2="BackgroundImageFix" result="effect1_dropShadow_63_3187"/>
<feBlend mode="normal" in="SourceGraphic" in2="effect1_dropShadow_63_3187" result="shape"/>
</filter>
<filter id="filter6_i_63_3187" x="199.436" y="177.117" width="10.2085" height="16.5543" filterUnits="userSpaceOnUse" color-interpolation-filters="sRGB">
<feFlood flood-opacity="0" result="BackgroundImageFix"/>
<feBlend mode="normal" in="SourceGraphic" in2="BackgroundImageFix" result="shape"/>
<feColorMatrix in="SourceAlpha" type="matrix" values="0 0 0 0 0 0 0 0 0 0 0 0 0 0 0 0 0 0 127 0" result="hardAlpha"/>
<feOffset dy="4"/>
<feGaussianBlur stdDeviation="2"/>
<feComposite in2="hardAlpha" operator="arithmetic" k2="-1" k3="1"/>
<feColorMatrix type="matrix" values="0 0 0 0 0 0 0 0 0 0 0 0 0 0 0 0 0 0 0.25 0"/>
<feBlend mode="normal" in2="shape" result="effect1_innerShadow_63_3187"/>
</filter>
<filter id="filter7_d_63_3187" x="169.771" y="106.232" width="42.939" height="17.8798" filterUnits="userSpaceOnUse" color-interpolation-filters="sRGB">
<feFlood flood-opacity="0" result="BackgroundImageFix"/>
<feColorMatrix in="SourceAlpha" type="matrix" values="0 0 0 0 0 0 0 0 0 0 0 0 0 0 0 0 0 0 127 0" result="hardAlpha"/>
<feOffset dx="1" dy="3"/>
<feComposite in2="hardAlpha" operator="out"/>
<feColorMatrix type="matrix" values="0 0 0 0 0 0 0 0 0 0 0 0 0 0 0 0 0 0 0.25 0"/>
<feBlend mode="normal" in2="BackgroundImageFix" result="effect1_dropShadow_63_3187"/>
<feBlend mode="normal" in="SourceGraphic" in2="effect1_dropShadow_63_3187" result="shape"/>
</filter>
<filter id="filter8_d_63_3187" x="96.374" y="139.109" width="32.2251" height="36.9722" filterUnits="userSpaceOnUse" color-interpolation-filters="sRGB">
<feFlood flood-opacity="0" result="BackgroundImageFix"/>
<feColorMatrix in="SourceAlpha" type="matrix" values="0 0 0 0 0 0 0 0 0 0 0 0 0 0 0 0 0 0 127 0" result="hardAlpha"/>
<feOffset dy="4"/>
<feGaussianBlur stdDeviation="2"/>
<feComposite in2="hardAlpha" operator="out"/>
<feColorMatrix type="matrix" values="0 0 0 0 0 0 0 0 0 0 0 0 0 0 0 0 0 0 0.25 0"/>
<feBlend mode="normal" in2="BackgroundImageFix" result="effect1_dropShadow_63_3187"/>
<feBlend mode="normal" in="SourceGraphic" in2="effect1_dropShadow_63_3187" result="shape"/>
</filter>
<filter id="filter9_i_63_3187" x="81.0615" y="174.247" width="11.4482" height="17.6919" filterUnits="userSpaceOnUse" color-interpolation-filters="sRGB">
<feFlood flood-opacity="0" result="BackgroundImageFix"/>
<feBlend mode="normal" in="SourceGraphic" in2="BackgroundImageFix" result="shape"/>
<feColorMatrix in="SourceAlpha" type="matrix" values="0 0 0 0 0 0 0 0 0 0 0 0 0 0 0 0 0 0 127 0" result="hardAlpha"/>
<feOffset dy="4"/>
<feGaussianBlur stdDeviation="2"/>
<feComposite in2="hardAlpha" operator="arithmetic" k2="-1" k3="1"/>
<feColorMatrix type="matrix" values="0 0 0 0 0 0 0 0 0 0 0 0 0 0 0 0 0 0 0.25 0"/>
<feBlend mode="normal" in2="shape" result="effect1_innerShadow_63_3187"/>
</filter>
<filter id="filter10_d_63_3187" x="87.7749" y="105.16" width="43.3027" height="16.6873" filterUnits="userSpaceOnUse" color-interpolation-filters="sRGB">
<feFlood flood-opacity="0" result="BackgroundImageFix"/>
<feColorMatrix in="SourceAlpha" type="matrix" values="0 0 0 0 0 0 0 0 0 0 0 0 0 0 0 0 0 0 127 0" result="hardAlpha"/>
<feOffset dx="1" dy="3"/>
<feComposite in2="hardAlpha" operator="out"/>
<feColorMatrix type="matrix" values="0 0 0 0 0 0 0 0 0 0 0 0 0 0 0 0 0 0 0.25 0"/>
<feBlend mode="normal" in2="BackgroundImageFix" result="effect1_dropShadow_63_3187"/>
<feBlend mode="normal" in="SourceGraphic" in2="effect1_dropShadow_63_3187" result="shape"/>
</filter>
<filter id="filter11_i_63_3187" x="196.063" y="256.103" width="41.5396" height="67.1411" filterUnits="userSpaceOnUse" color-interpolation-filters="sRGB">
<feFlood flood-opacity="0" result="BackgroundImageFix"/>
<feBlend mode="normal" in="SourceGraphic" in2="BackgroundImageFix" result="shape"/>
<feColorMatrix in="SourceAlpha" type="matrix" values="0 0 0 0 0 0 0 0 0 0 0 0 0 0 0 0 0 0 127 0" result="hardAlpha"/>
<feOffset dx="-12" dy="-12"/>
<feComposite in2="hardAlpha" operator="arithmetic" k2="-1" k3="1"/>
<feColorMatrix type="matrix" values="0 0 0 0 0 0 0 0 0 0 0 0 0 0 0 0 0 0 0.25 0"/>
<feBlend mode="normal" in2="shape" result="effect1_innerShadow_63_3187"/>
</filter>
<filter id="filter12_i_63_3187" x="57.5251" y="258.257" width="40.4294" height="67.1411" filterUnits="userSpaceOnUse" color-interpolation-filters="sRGB">
<feFlood flood-opacity="0" result="BackgroundImageFix"/>
<feBlend mode="normal" in="SourceGraphic" in2="BackgroundImageFix" result="shape"/>
<feColorMatrix in="SourceAlpha" type="matrix" values="0 0 0 0 0 0 0 0 0 0 0 0 0 0 0 0 0 0 127 0" result="hardAlpha"/>
<feOffset dx="10" dy="-12"/>
<feComposite in2="hardAlpha" operator="arithmetic" k2="-1" k3="1"/>
<feColorMatrix type="matrix" values="0 0 0 0 0 0 0 0 0 0 0 0 0 0 0 0 0 0 0.25 0"/>
<feBlend mode="normal" in2="shape" result="effect1_innerShadow_63_3187"/>
</filter>
<filter id="filter13_d_63_3187" x="76.2302" y="279.325" width="145.254" height="104.932" filterUnits="userSpaceOnUse" color-interpolation-filters="sRGB">
<feFlood flood-opacity="0" result="BackgroundImageFix"/>
<feColorMatrix in="SourceAlpha" type="matrix" values="0 0 0 0 0 0 0 0 0 0 0 0 0 0 0 0 0 0 127 0" result="hardAlpha"/>
<feOffset dy="6"/>
<feComposite in2="hardAlpha" operator="out"/>
<feColorMatrix type="matrix" values="0 0 0 0 0 0 0 0 0 0 0 0 0 0 0 0 0 0 0.25 0"/>
<feBlend mode="normal" in2="BackgroundImageFix" result="effect1_dropShadow_63_3187"/>
<feBlend mode="normal" in="SourceGraphic" in2="effect1_dropShadow_63_3187" result="shape"/>
</filter>
<filter id="filter14_i_63_3187" x="58.7693" y="300.181" width="41.2361" height="51.2749" filterUnits="userSpaceOnUse" color-interpolation-filters="sRGB">
<feFlood flood-opacity="0" result="BackgroundImageFix"/>
<feBlend mode="normal" in="SourceGraphic" in2="BackgroundImageFix" result="shape"/>
<feColorMatrix in="SourceAlpha" type="matrix" values="0 0 0 0 0 0 0 0 0 0 0 0 0 0 0 0 0 0 127 0" result="hardAlpha"/>
<feOffset dy="-10"/>
<feComposite in2="hardAlpha" operator="arithmetic" k2="-1" k3="1"/>
<feColorMatrix type="matrix" values="0 0 0 0 0 0 0 0 0 0 0 0 0 0 0 0 0 0 0.25 0"/>
<feBlend mode="normal" in2="shape" result="effect1_innerShadow_63_3187"/>
</filter>
<filter id="filter15_di_63_3187" x="198.667" y="302.98" width="35.9785" height="39.8055" filterUnits="userSpaceOnUse" color-interpolation-filters="sRGB">
<feFlood flood-opacity="0" result="BackgroundImageFix"/>
<feColorMatrix in="SourceAlpha" type="matrix" values="0 0 0 0 0 0 0 0 0 0 0 0 0 0 0 0 0 0 127 0" result="hardAlpha"/>
<feOffset dx="1" dy="3"/>
<feComposite in2="hardAlpha" operator="out"/>
<feColorMatrix type="matrix" values="0 0 0 0 0 0 0 0 0 0 0 0 0 0 0 0 0 0 0.25 0"/>
<feBlend mode="normal" in2="BackgroundImageFix" result="effect1_dropShadow_63_3187"/>
<feBlend mode="normal" in="SourceGraphic" in2="effect1_dropShadow_63_3187" result="shape"/>
<feColorMatrix in="SourceAlpha" type="matrix" values="0 0 0 0 0 0 0 0 0 0 0 0 0 0 0 0 0 0 127 0" result="hardAlpha"/>
<feOffset dx="-2" dy="-8"/>
<feComposite in2="hardAlpha" operator="arithmetic" k2="-1" k3="1"/>
<feColorMatrix type="matrix" values="0 0 0 0 0 0 0 0 0 0 0 0 0 0 0 0 0 0 0.25 0"/>
<feBlend mode="normal" in2="shape" result="effect2_innerShadow_63_3187"/>
</filter>
</defs>
</svg>
