<svg width="348" height="449" viewBox="0 0 348 449" fill="none" xmlns="http://www.w3.org/2000/svg">
<g filter="url(#filter0_i_63_3309)">
<path d="M168.428 293.996C291.192 185.781 344.066 323.493 336.188 317.366C267.135 243.581 290.261 405.11 201.076 367.731L168.428 293.996Z" fill="#FF7F00" stroke="black" stroke-width="6"/>
<mask id="mask0_63_3309" style="mask-type:alpha" maskUnits="userSpaceOnUse" x="173" y="255" width="156" height="115">
<path d="M173.92 295.497C275.196 197.789 335.634 310.242 328.288 304.529C262.635 257.931 284.164 396.649 204.321 364.304L173.92 295.497Z" fill="#FF7F00"/>
</mask>
<g mask="url(#mask0_63_3309)">
<path d="M361.428 263.25C228.693 246.358 245.361 319.154 247.686 311.754C280.58 272.464 325.664 369.607 367.142 306.594L361.428 263.25Z" fill="#FEC792"/>
<path d="M377.7 272.929C244.965 256.038 261.632 328.833 263.958 321.433C296.852 282.144 341.936 379.286 383.414 316.274L377.7 272.929Z" fill="#FEC792"/>
<path d="M360.501 235.753C227.765 218.862 244.433 291.657 246.759 284.257C279.653 244.968 324.737 342.11 366.215 279.098L360.501 235.753Z" fill="#FEC792"/>
</g>
</g>
<ellipse opacity="0.4" cx="151" cy="442.5" rx="78" ry="5.5" fill="black"/>
<path d="M38 341C39.5 321.5 64.764 287.153 102 259C109.237 262.817 111.862 266.585 108 283C96.9807 301.319 92.73 313.349 87 336.5C85.6396 349.271 96.2895 357.5 91.5 370.5C88 380 75.5644 385.096 60 381C44.4687 374.896 38.2813 368.021 38 341Z" fill="#FF7F00" stroke="black" stroke-width="5" stroke-linejoin="round"/>
<mask id="mask1_63_3309" style="mask-type:alpha" maskUnits="userSpaceOnUse" x="40" y="259" width="70" height="121">
<path d="M40.5 339.5C43 330 66.1014 286.827 102.415 259C109.473 262.773 112.033 266.497 108.267 282.722C97.5204 300.829 93.375 312.72 87.7868 335.604C86.4601 348.227 95.6707 354.15 90.9998 367C87.5865 376.39 77.5 383 60 378.5C45 372.5 40 364.5 40.5 339.5Z" fill="#FF7F00"/>
</mask>
<g mask="url(#mask1_63_3309)">
<circle cx="66.5" cy="357.5" r="32.5" fill="#882E15"/>
</g>
<path d="M62 341C62.4848 341.267 62.9356 341.541 63.3808 341.829C67.4093 344.436 69.5037 347.823 70.4605 351.56C71.4299 355.327 71.3911 359.647 70.7426 364.398C70.667 364.932 70.5923 365.453 70.5 366C70.8891 365.605 71.2531 365.213 71.6092 364.787C74.7705 361.061 76.6752 355.679 75.3007 350.306C74.0805 344.879 68.6648 340.79 63.651 340.918C63.0912 340.909 62.55 340.94 62 341Z" fill="black"/>
<path d="M261 341C259.5 321.5 234.236 287.153 197 259C189.763 262.817 187.138 266.585 191 283C202.02 301.319 206.27 313.349 212 336.5C213.361 349.271 202.711 357.5 207.5 370.5C211 380 223.436 385.096 239 381C254.532 374.896 260.719 368.021 261 341Z" fill="#FF7F00" stroke="black" stroke-width="5" stroke-linejoin="round"/>
<mask id="mask2_63_3309" style="mask-type:alpha" maskUnits="userSpaceOnUse" x="189" y="259" width="70" height="121">
<path d="M258.5 339.5C256 330 232.899 286.827 196.585 259C189.527 262.773 186.967 266.497 190.733 282.722C201.48 300.829 205.625 312.72 211.213 335.604C212.54 348.227 203.33 354.15 208 367C211.414 376.39 221.5 383 239 378.5C254 372.5 259 364.5 258.5 339.5Z" fill="#FF7F00"/>
</mask>
<g mask="url(#mask2_63_3309)">
<circle cx="32.5" cy="32.5" r="32.5" transform="matrix(-1 0 0 1 265 325)" fill="#882E15"/>
</g>
<path d="M236.389 341C235.904 341.267 235.453 341.541 235.008 341.829C230.98 344.436 228.885 347.823 227.928 351.56C226.959 355.327 226.998 359.647 227.646 364.398C227.722 364.932 227.797 365.453 227.889 366C227.5 365.605 227.136 365.213 226.78 364.787C223.618 361.061 221.714 355.679 223.088 350.306C224.308 344.879 229.724 340.79 234.738 340.918C235.298 340.909 235.839 340.94 236.389 341Z" fill="black"/>
<path d="M86.2695 364.274C60.0563 319.025 97.7661 319.948 97.7664 259L197.559 259C215.954 323.18 232.509 331.492 210.435 364.274C207.642 388.761 205.7 402.526 192.96 427.993C178.952 432.341 171.098 432.843 157.09 427.993C151.298 416.473 150.377 404.425 148.812 382.744C146.112 411.917 144.219 424.21 139.155 427.993C126.745 433.05 119.471 433.613 105.584 427.993C93.3811 407.194 89.5345 392.907 86.2695 364.274Z" fill="#FF7F00" stroke="black" stroke-width="5" stroke-linejoin="round"/>
<path d="M193.731 307.137C204.703 341.288 173.635 360 148.846 360C124.056 360 90.4948 343.627 100.968 307.137C100.968 276.134 124.056 251 148.846 251C173.635 251 193.731 276.134 193.731 307.137Z" fill="#FFD4A9"/>
<path d="M117 374C117.981 374.492 118.907 374.949 119.897 375.413C128.588 379.505 138.085 382.626 148.001 382.622C157.923 382.676 167.426 379.504 176.103 375.41C177.092 374.946 178.022 374.489 179 374C177.949 374.303 176.953 374.582 175.904 374.876C166.65 377.456 157.355 379.679 148.006 379.622C138.657 379.631 129.354 377.453 120.096 374.879C119.046 374.584 118.054 374.306 117 374Z" fill="black"/>
<g filter="url(#filter1_i_63_3309)">
<path d="M105.875 440.85C101.096 438.864 97.2977 425.55 100.82 422.797C104.342 420.044 110.749 423.114 110.749 423.114C119.074 418.164 123.791 418.723 132.264 423.802C132.264 423.802 139.747 421.507 141.531 424.098C143.316 426.69 141.985 430.881 141.214 434.028C139.029 439.512 137.324 441.805 131.692 441.675L105.875 440.85Z" fill="#882E15" stroke="black" stroke-width="4" stroke-linejoin="round"/>
<path d="M114.428 427.476C110.196 431.962 108.327 433.943 113.061 440.632C115.751 439.393 108.97 433.875 114.477 427.424L114.428 427.476Z" stroke="black" stroke-width="2" stroke-linejoin="round"/>
<path d="M126.428 427.859C130.365 432.607 132.104 434.703 126.952 441.076C124.346 439.668 131.466 434.594 126.382 427.805L126.428 427.859Z" stroke="black" stroke-width="2" stroke-linejoin="round"/>
</g>
<g filter="url(#filter2_i_63_3309)">
<path d="M161.875 440.85C157.096 438.864 153.298 425.55 156.82 422.797C160.342 420.044 166.749 423.114 166.749 423.114C175.074 418.164 179.791 418.723 188.264 423.802C188.264 423.802 195.747 421.507 197.531 424.098C199.316 426.69 197.985 430.881 197.214 434.028C195.029 439.512 193.324 441.805 187.692 441.675L161.875 440.85Z" fill="#882E15" stroke="black" stroke-width="4" stroke-linejoin="round"/>
<path d="M170.428 427.476C166.196 431.962 164.327 433.943 169.061 440.632C171.751 439.393 164.97 433.875 170.477 427.424L170.428 427.476Z" stroke="black" stroke-width="2" stroke-linejoin="round"/>
<path d="M182.428 427.859C186.365 432.607 188.104 434.703 182.952 441.076C180.346 439.668 187.466 434.594 182.382 427.805L182.428 427.859Z" stroke="black" stroke-width="2" stroke-linejoin="round"/>
</g>
<path opacity="0.2" d="M209.326 253.233C206.524 259.936 179.392 282.957 145.384 278.958C111.377 274.959 89.1479 260.563 89.5349 257.272C89.9219 253.981 118.861 273.326 146.786 267.04C168.842 272.135 209.713 249.942 209.326 253.233Z" fill="black"/>
<g filter="url(#filter3_d_63_3309)">
<path d="M138.25 242.071C96.6992 279.855 124.287 294.43 122.579 291.664C119.115 270.416 162.16 282.569 153.529 252.094L138.25 242.071Z" fill="#FEBB7A"/>
<path d="M156.031 242.477C197.569 279.988 169.976 294.745 171.685 291.967C175.157 270.697 132.107 283.133 140.749 252.601L156.031 242.477Z" fill="#FEBB7A"/>
<path d="M159.213 258.579C174.241 306.635 149.981 298.476 133.971 316.724C145.856 285.272 111.603 276.43 139.226 250.721L159.213 258.579Z" fill="#FEBB7A"/>
<path d="M150.985 223.002C75.0132 257.29 107.336 290.69 106.186 285.984C110.998 254.291 166.268 291.413 167.994 244.263L150.985 223.002Z" fill="#FEBB7A"/>
<path d="M156.77 235.402C217.416 260.555 192.55 287.739 193.365 283.994C188.948 259.095 146.039 289.795 143.757 252.616L156.77 235.402Z" fill="#FEBB7A"/>
<path d="M150.319 221.115C151.115 220.834 152.011 221.084 152.546 221.753L164.404 236.575C189.575 248.338 197.981 260.542 199.48 270.228C200.288 275.448 199.04 279.711 197.602 282.448C196.896 283.791 196.096 284.859 195.383 285.5C195.199 285.665 194.979 285.84 194.73 285.986C194.534 286.1 194.078 286.344 193.479 286.341C193.138 286.34 192.7 286.257 192.283 285.973C191.861 285.686 191.613 285.296 191.485 284.948C191.369 284.635 191.341 284.337 191.347 284.091C190.837 281.441 189.863 279.666 188.638 278.429C187.364 277.142 185.678 276.294 183.573 275.752C182.703 275.528 181.775 275.363 180.797 275.238C181.235 278.005 181.17 280.488 180.76 282.696C179.925 287.191 177.687 290.318 175.722 292.146C174.761 293.039 173.788 293.695 172.99 294.025C172.785 294.11 172.538 294.195 172.271 294.246C172.063 294.286 171.563 294.363 171.007 294.163C170.69 294.049 170.31 293.827 170.015 293.424C169.716 293.017 169.613 292.573 169.608 292.208C169.603 291.892 169.667 291.616 169.748 291.396C170.07 289.186 169.792 287.55 169.19 286.274C168.559 284.936 167.487 283.81 165.982 282.795C165.965 282.783 165.948 282.772 165.931 282.76C165.938 283.713 165.913 284.626 165.856 285.502C165.414 292.243 163.097 296.758 159.652 300.237C156.33 303.591 151.968 305.941 147.805 308.417C143.553 310.946 139.261 313.727 135.474 318.043C134.837 318.77 133.77 318.937 132.941 318.439C132.112 317.941 131.758 316.922 132.1 316.017C137.726 301.13 132.521 291.813 128.832 282.291C128.813 282.241 128.794 282.191 128.775 282.141C128.611 282.244 128.45 282.349 128.293 282.456C126.786 283.482 125.712 284.618 125.078 285.964C124.474 287.248 124.195 288.888 124.517 291.096C124.597 291.316 124.661 291.59 124.656 291.904C124.65 292.27 124.548 292.711 124.252 293.117C123.96 293.517 123.584 293.74 123.269 293.855C122.715 294.058 122.215 293.985 122.006 293.947C121.738 293.898 121.491 293.813 121.284 293.729C120.485 293.404 119.51 292.753 118.548 291.864C116.581 290.046 114.341 286.931 113.507 282.439C113.198 280.773 113.086 278.948 113.239 276.962C112.649 277.39 112.106 277.865 111.613 278.393C110.004 280.111 108.78 282.522 108.208 286.015C108.226 286.284 108.211 286.612 108.093 286.959C107.971 287.316 107.732 287.716 107.316 288.018C106.904 288.316 106.464 288.415 106.115 288.428C105.499 288.45 105.013 288.213 104.787 288.09C104.508 287.938 104.253 287.749 104.032 287.561C103.169 286.83 102.158 285.563 101.242 283.926C99.3815 280.601 97.7012 275.367 98.5436 268.859C100.238 255.766 111.961 238.419 150.162 221.179L150.319 221.115ZM120.839 292.647L120.878 292.715C120.861 292.688 120.847 292.659 120.832 292.631C120.834 292.637 120.836 292.642 120.839 292.647ZM104.23 286.392L104.244 286.458L104.229 286.388C104.23 286.389 104.23 286.391 104.23 286.392Z" stroke="black" stroke-width="4" stroke-linejoin="round"/>
</g>
<path d="M42.6415 26.4314C42.6415 26.4314 10.6868 49.8599 43.1451 146.31C39.5082 161.294 36.9826 176.653 40.3434 187.264C65.8572 267.818 270.361 226.961 261.144 180.503C260.963 171.808 262.046 169.166 253.313 144.341C277.217 58.2293 273.692 37.2975 251.7 25.3383C222.811 34.6207 209.58 44.8712 188.374 67.2296C156.38 59.839 138.711 58.9671 107.929 66.3288C107.929 66.3288 59.3785 16.8202 42.6415 26.4314Z" fill="#FF7F00"/>
<mask id="mask3_63_3309" style="mask-type:alpha" maskUnits="userSpaceOnUse" x="28" y="25" width="242" height="209">
<path d="M42.6415 26.4314C42.6415 26.4314 10.6868 49.8599 43.1451 146.31C39.5082 161.294 36.9826 176.653 40.3434 187.264C65.8572 267.818 270.361 226.961 261.144 180.503C260.963 171.808 262.046 169.166 253.313 144.341C277.217 58.2293 273.692 37.2975 251.7 25.3383C222.811 34.6207 209.58 44.8712 188.374 67.2296C156.38 59.839 138.711 58.9671 107.929 66.3288C107.929 66.3288 59.3785 16.8202 42.6415 26.4314Z" fill="#FF7F00"/>
</mask>
<g mask="url(#mask3_63_3309)">
<path d="M58.5649 71.0966L31.4871 74.4574C27.9094 37.4529 34.7629 33.4591 46.7613 25.909C58.1231 25.1586 63.2114 28.1468 71.2109 36.3356C74.6963 39.8205 75.4851 42.1891 75.5054 46.9095C68.5555 41.6033 65.8466 40.7732 63.3245 43.4634L58.5649 71.0966Z" fill="#8E340F"/>
<path d="M237.394 70.1942L264.965 79.7599C272.445 46.1228 269.277 39.1045 259.358 28.9771C248.48 25.6116 242.837 27.338 233.156 33.4478C228.958 36.0291 227.641 38.1502 226.526 42.7371C234.517 39.1878 237.345 39.0087 239.174 42.2106L237.394 70.1942Z" fill="#8E340F"/>
</g>
<g filter="url(#filter4_i_63_3309)">
<path d="M26.6727 183.642C29.1097 182.673 31.4771 183.194 50.7131 188.986C74.3716 204.057 93.1186 208.457 148.043 200.431C183.811 204.946 196.942 218.304 258.369 182.694L269.732 184.533C270.175 194.425 267.474 199.831 257.991 207.318C264.496 206.369 266.986 206.59 268.915 208.603C264.166 224.178 259.549 231.615 238.334 233.2C162.381 286.977 131.775 281.992 58.9823 234.262C29.1831 227.258 26.0828 220.087 27.7842 208.442L37.3359 208.558C30.5129 200.124 27.0171 193.938 26.6727 183.642Z" fill="#FEC792"/>
</g>
<path d="M184.317 131.472C219.024 128.881 233.29 182.86 199.598 199.058C162.214 204.621 148.282 144.795 184.317 131.472Z" fill="#242424"/>
<g filter="url(#filter5_d_63_3309)">
<path d="M181.981 143.61C200.228 146.566 205.523 165.488 188.805 175.017C169.358 171.48 169.661 155.556 181.981 143.61Z" fill="#F4F3F3"/>
</g>
<g filter="url(#filter6_i_63_3309)">
<path d="M202.884 177.117C210.178 178.299 212.295 185.862 205.612 189.671C197.839 188.257 197.96 181.892 202.884 177.117Z" fill="#3E3E3E"/>
</g>
<g filter="url(#filter7_d_63_3309)">
<path d="M176.074 107.456C185.972 105.492 211.963 103.804 211.708 120.009C208.874 121.577 210.413 121.312 206.868 120.218C203.593 119 198.965 117.407 195.564 117.079C187.844 116.34 176.888 120.662 170.194 116.535L169.771 114.336C171.391 110.56 172.911 109.87 176.074 107.456Z" fill="#FEC792"/>
</g>
<path d="M113.793 131.09C79.5575 124.824 59.6355 176.981 91.4143 196.668C127.995 206.173 148.208 148.167 113.793 131.09Z" fill="#242424"/>
<g filter="url(#filter8_d_63_3309)">
<path d="M118.085 139.109C100.554 140.058 93.6436 157.393 108.47 168.081C127.193 166.704 128.514 151.635 118.085 139.109Z" fill="#F4F3F3"/>
</g>
<g filter="url(#filter9_i_63_3309)">
<path d="M89.4318 174.247C81.1469 174.696 77.8809 182.888 84.8878 187.939C93.7358 187.288 94.3603 180.167 89.4318 174.247Z" fill="#3E3E3E"/>
</g>
<g filter="url(#filter10_d_63_3309)">
<path d="M124.542 108.086C114.909 105.08 89.2442 100.639 87.7755 116.78C90.4268 118.641 88.9248 118.213 92.566 117.503C95.9525 116.639 100.723 115.547 104.14 115.583C111.894 115.668 122.329 121.13 129.423 117.739L130.078 115.597C128.869 111.67 127.431 110.823 124.542 108.086Z" fill="#FEC792"/>
</g>
<path d="M42.6415 26.4314C42.6415 26.4314 10.6868 49.8599 43.1451 146.31C39.3397 159.371 37.5572 166.925 36.458 181.772C32.138 180.424 29.4684 180.537 24.3066 182.357C23.1308 188.612 25.3811 194.082 31.6689 205.374C28.7976 205.136 27.3561 205.469 25.3596 207.653C25.4802 224.718 36.9887 229.389 58.6319 237.241C130.777 281.599 170.371 280.801 239.531 235.858C261.964 231.185 267.704 224.054 272.07 207.463C270.036 205.335 268.461 204.584 264.358 204.543C270.939 196.762 272.435 191.696 272.565 181.846C268.316 181.747 266.065 181.956 261.144 180.503C260.963 171.808 262.046 169.166 253.313 144.341C277.217 58.2293 273.692 37.2975 251.7 25.3383C222.811 34.6207 209.58 44.8712 188.374 67.2296C156.38 59.839 138.711 58.9671 107.929 66.3288C107.929 66.3288 59.3785 16.8202 42.6415 26.4314Z" stroke="black" stroke-width="6"/>
<path d="M148.492 203.857C152.957 227.464 123.305 233.792 113.717 215.57" stroke="#242424" stroke-width="4"/>
<path d="M149.558 203.881C144.025 227.261 173.359 234.93 183.765 217.162" stroke="#242424" stroke-width="4"/>
<ellipse cx="148.886" cy="200.105" rx="15" ry="8" transform="rotate(4.47551 148.886 200.105)" fill="#242424"/>
<path d="M46.5288 45.0125C36.9191 53.9515 50.5946 143.159 54.2159 129.488C57.8372 115.817 82.2549 79.42 92.0402 77.55C100.598 68.9909 56.1385 36.0735 46.5288 45.0125Z" fill="#FEC792" stroke="black" stroke-width="6"/>
<path d="M252.111 43.5105C264.175 47.95 246.88 140.144 242.322 126.756C237.764 113.369 217.817 77.9476 207.926 76.7586C198.796 68.8118 240.047 39.0711 252.111 43.5105Z" fill="#FEC792" stroke="black" stroke-width="6"/>
<path d="M54.6059 74.7947C61.0181 64.9539 65.9406 61.0306 83.0561 64.0436L91.7772 75.5055L60.9756 106.254C59.7165 94.1709 58.4624 87.3395 68.5101 76.4296C63.378 73.2562 60.2853 73.3111 54.6059 74.7947Z" fill="#FF7F00" stroke="black" stroke-width="5" stroke-linejoin="round"/>
<path d="M244.298 79.9829C240.343 68.9231 236.465 63.965 219.118 62.9256L207.976 72.0518C218.165 81.9934 225.584 87.1011 235.581 107.015C239.609 95.5536 237.637 91.291 230.394 78.3479C236.122 76.4515 239.118 77.2224 244.298 79.9829Z" fill="#FF7F00" stroke="black" stroke-width="5" stroke-linejoin="round"/>
<defs>
<filter id="filter0_i_63_3309" x="164.794" y="249.375" width="175.158" height="127.055" filterUnits="userSpaceOnUse" color-interpolation-filters="sRGB">
<feFlood flood-opacity="0" result="BackgroundImageFix"/>
<feBlend mode="normal" in="SourceGraphic" in2="BackgroundImageFix" result="shape"/>
<feColorMatrix in="SourceAlpha" type="matrix" values="0 0 0 0 0 0 0 0 0 0 0 0 0 0 0 0 0 0 127 0" result="hardAlpha"/>
<feOffset dx="-7" dy="-19"/>
<feComposite in2="hardAlpha" operator="arithmetic" k2="-1" k3="1"/>
<feColorMatrix type="matrix" values="0 0 0 0 0 0 0 0 0 0 0 0 0 0 0 0 0 0 0.25 0"/>
<feBlend mode="normal" in2="shape" result="effect1_innerShadow_63_3309"/>
</filter>
<filter id="filter1_i_63_3309" x="97.4429" y="417.683" width="46.9761" height="25.9979" filterUnits="userSpaceOnUse" color-interpolation-filters="sRGB">
<feFlood flood-opacity="0" result="BackgroundImageFix"/>
<feBlend mode="normal" in="SourceGraphic" in2="BackgroundImageFix" result="shape"/>
<feColorMatrix in="SourceAlpha" type="matrix" values="0 0 0 0 0 0 0 0 0 0 0 0 0 0 0 0 0 0 127 0" result="hardAlpha"/>
<feOffset dy="-9"/>
<feComposite in2="hardAlpha" operator="arithmetic" k2="-1" k3="1"/>
<feColorMatrix type="matrix" values="0 0 0 0 0 0 0 0 0 0 0 0 0 0 0 0 0 0 0.25 0"/>
<feBlend mode="normal" in2="shape" result="effect1_innerShadow_63_3309"/>
</filter>
<filter id="filter2_i_63_3309" x="153.443" y="417.683" width="46.9761" height="25.9979" filterUnits="userSpaceOnUse" color-interpolation-filters="sRGB">
<feFlood flood-opacity="0" result="BackgroundImageFix"/>
<feBlend mode="normal" in="SourceGraphic" in2="BackgroundImageFix" result="shape"/>
<feColorMatrix in="SourceAlpha" type="matrix" values="0 0 0 0 0 0 0 0 0 0 0 0 0 0 0 0 0 0 127 0" result="hardAlpha"/>
<feOffset dy="-9"/>
<feComposite in2="hardAlpha" operator="arithmetic" k2="-1" k3="1"/>
<feColorMatrix type="matrix" values="0 0 0 0 0 0 0 0 0 0 0 0 0 0 0 0 0 0 0.25 0"/>
<feBlend mode="normal" in2="shape" result="effect1_innerShadow_63_3309"/>
</filter>
<filter id="filter3_d_63_3309" x="96.3203" y="219.001" width="105.415" height="104.723" filterUnits="userSpaceOnUse" color-interpolation-filters="sRGB">
<feFlood flood-opacity="0" result="BackgroundImageFix"/>
<feColorMatrix in="SourceAlpha" type="matrix" values="0 0 0 0 0 0 0 0 0 0 0 0 0 0 0 0 0 0 127 0" result="hardAlpha"/>
<feOffset dy="3"/>
<feComposite in2="hardAlpha" operator="out"/>
<feColorMatrix type="matrix" values="0 0 0 0 0 0 0 0 0 0 0 0 0 0 0 0 0 0 0.25 0"/>
<feBlend mode="normal" in2="BackgroundImageFix" result="effect1_dropShadow_63_3309"/>
<feBlend mode="normal" in="SourceGraphic" in2="effect1_dropShadow_63_3309" result="shape"/>
</filter>
<filter id="filter4_i_63_3309" x="26.6726" y="182.694" width="243.105" height="89.1163" filterUnits="userSpaceOnUse" color-interpolation-filters="sRGB">
<feFlood flood-opacity="0" result="BackgroundImageFix"/>
<feBlend mode="normal" in="SourceGraphic" in2="BackgroundImageFix" result="shape"/>
<feColorMatrix in="SourceAlpha" type="matrix" values="0 0 0 0 0 0 0 0 0 0 0 0 0 0 0 0 0 0 127 0" result="hardAlpha"/>
<feOffset dx="-1" dy="-9"/>
<feComposite in2="hardAlpha" operator="arithmetic" k2="-1" k3="1"/>
<feColorMatrix type="matrix" values="0 0 0 0 0 0 0 0 0 0 0 0 0 0 0 0 0 0 0.25 0"/>
<feBlend mode="normal" in2="shape" result="effect1_innerShadow_63_3309"/>
</filter>
<filter id="filter5_d_63_3309" x="169.354" y="143.61" width="33.5391" height="39.4073" filterUnits="userSpaceOnUse" color-interpolation-filters="sRGB">
<feFlood flood-opacity="0" result="BackgroundImageFix"/>
<feColorMatrix in="SourceAlpha" type="matrix" values="0 0 0 0 0 0 0 0 0 0 0 0 0 0 0 0 0 0 127 0" result="hardAlpha"/>
<feOffset dy="4"/>
<feGaussianBlur stdDeviation="2"/>
<feComposite in2="hardAlpha" operator="out"/>
<feColorMatrix type="matrix" values="0 0 0 0 0 0 0 0 0 0 0 0 0 0 0 0 0 0 0.25 0"/>
<feBlend mode="normal" in2="BackgroundImageFix" result="effect1_dropShadow_63_3309"/>
<feBlend mode="normal" in="SourceGraphic" in2="effect1_dropShadow_63_3309" result="shape"/>
</filter>
<filter id="filter6_i_63_3309" x="199.436" y="177.117" width="10.2085" height="16.5543" filterUnits="userSpaceOnUse" color-interpolation-filters="sRGB">
<feFlood flood-opacity="0" result="BackgroundImageFix"/>
<feBlend mode="normal" in="SourceGraphic" in2="BackgroundImageFix" result="shape"/>
<feColorMatrix in="SourceAlpha" type="matrix" values="0 0 0 0 0 0 0 0 0 0 0 0 0 0 0 0 0 0 127 0" result="hardAlpha"/>
<feOffset dy="4"/>
<feGaussianBlur stdDeviation="2"/>
<feComposite in2="hardAlpha" operator="arithmetic" k2="-1" k3="1"/>
<feColorMatrix type="matrix" values="0 0 0 0 0 0 0 0 0 0 0 0 0 0 0 0 0 0 0.25 0"/>
<feBlend mode="normal" in2="shape" result="effect1_innerShadow_63_3309"/>
</filter>
<filter id="filter7_d_63_3309" x="169.771" y="106.232" width="42.9387" height="17.8798" filterUnits="userSpaceOnUse" color-interpolation-filters="sRGB">
<feFlood flood-opacity="0" result="BackgroundImageFix"/>
<feColorMatrix in="SourceAlpha" type="matrix" values="0 0 0 0 0 0 0 0 0 0 0 0 0 0 0 0 0 0 127 0" result="hardAlpha"/>
<feOffset dx="1" dy="3"/>
<feComposite in2="hardAlpha" operator="out"/>
<feColorMatrix type="matrix" values="0 0 0 0 0 0 0 0 0 0 0 0 0 0 0 0 0 0 0.25 0"/>
<feBlend mode="normal" in2="BackgroundImageFix" result="effect1_dropShadow_63_3309"/>
<feBlend mode="normal" in="SourceGraphic" in2="effect1_dropShadow_63_3309" result="shape"/>
</filter>
<filter id="filter8_d_63_3309" x="96.3743" y="139.109" width="32.2246" height="36.9722" filterUnits="userSpaceOnUse" color-interpolation-filters="sRGB">
<feFlood flood-opacity="0" result="BackgroundImageFix"/>
<feColorMatrix in="SourceAlpha" type="matrix" values="0 0 0 0 0 0 0 0 0 0 0 0 0 0 0 0 0 0 127 0" result="hardAlpha"/>
<feOffset dy="4"/>
<feGaussianBlur stdDeviation="2"/>
<feComposite in2="hardAlpha" operator="out"/>
<feColorMatrix type="matrix" values="0 0 0 0 0 0 0 0 0 0 0 0 0 0 0 0 0 0 0.25 0"/>
<feBlend mode="normal" in2="BackgroundImageFix" result="effect1_dropShadow_63_3309"/>
<feBlend mode="normal" in="SourceGraphic" in2="effect1_dropShadow_63_3309" result="shape"/>
</filter>
<filter id="filter9_i_63_3309" x="81.0618" y="174.247" width="11.4482" height="17.6919" filterUnits="userSpaceOnUse" color-interpolation-filters="sRGB">
<feFlood flood-opacity="0" result="BackgroundImageFix"/>
<feBlend mode="normal" in="SourceGraphic" in2="BackgroundImageFix" result="shape"/>
<feColorMatrix in="SourceAlpha" type="matrix" values="0 0 0 0 0 0 0 0 0 0 0 0 0 0 0 0 0 0 127 0" result="hardAlpha"/>
<feOffset dy="4"/>
<feGaussianBlur stdDeviation="2"/>
<feComposite in2="hardAlpha" operator="arithmetic" k2="-1" k3="1"/>
<feColorMatrix type="matrix" values="0 0 0 0 0 0 0 0 0 0 0 0 0 0 0 0 0 0 0.25 0"/>
<feBlend mode="normal" in2="shape" result="effect1_innerShadow_63_3309"/>
</filter>
<filter id="filter10_d_63_3309" x="87.7754" y="105.16" width="43.3025" height="16.6873" filterUnits="userSpaceOnUse" color-interpolation-filters="sRGB">
<feFlood flood-opacity="0" result="BackgroundImageFix"/>
<feColorMatrix in="SourceAlpha" type="matrix" values="0 0 0 0 0 0 0 0 0 0 0 0 0 0 0 0 0 0 127 0" result="hardAlpha"/>
<feOffset dx="1" dy="3"/>
<feComposite in2="hardAlpha" operator="out"/>
<feColorMatrix type="matrix" values="0 0 0 0 0 0 0 0 0 0 0 0 0 0 0 0 0 0 0.25 0"/>
<feBlend mode="normal" in2="BackgroundImageFix" result="effect1_dropShadow_63_3309"/>
<feBlend mode="normal" in="SourceGraphic" in2="effect1_dropShadow_63_3309" result="shape"/>
</filter>
</defs>
</svg>
