<svg width="933" height="444" viewBox="0 0 933 444" fill="none" xmlns="http://www.w3.org/2000/svg">
<path opacity="0.35" d="M1.45861 122.192C7.05194 137.238 22.3646 136.18 34.2808 146.935C123.198 227.188 157.268 209.225 216.317 194.408C241.917 187.984 303.927 146.935 303.927 146.935C303.927 146.935 344.85 148.472 360.482 131.786C368.923 122.776 372.045 115.583 374.621 103.508L374.713 103.078C378.034 87.5145 380.969 73.7608 369.571 62.6069C358.225 51.5033 353.665 39.3866 329.175 58.0623C304.685 76.738 310.87 47.5227 297.868 44.9334C266.185 38.6245 245.084 89.3681 219.095 70.1812C204.55 59.4434 210.442 42.2516 198.391 28.7749C183.734 12.3833 171.173 4.1554 149.411 1.00227C119.874 -3.27741 97.7107 6.17974 78.2119 28.7749C64.8621 44.2445 82.7565 74.2132 58.5186 77.2506C34.2808 80.288 -8.42522 95.6045 1.45861 122.192Z" fill="url(#paint0_linear_212_360)"/>
<path opacity="0.35" d="M63.4586 225.192C69.0519 240.238 84.3646 239.18 96.2808 249.935C185.198 330.188 219.268 312.225 278.317 297.408C303.917 290.984 365.927 249.935 365.927 249.935C365.927 249.935 406.85 251.472 422.482 234.786C430.923 225.776 434.045 218.583 436.621 206.508L436.713 206.078C440.034 190.514 442.969 176.761 431.571 165.607C420.225 154.503 415.665 142.387 391.175 161.062C366.685 179.738 372.87 150.523 359.868 147.933C328.185 141.624 307.084 192.368 281.095 173.181C266.55 162.443 272.442 145.252 260.391 131.775C245.734 115.383 233.173 107.155 211.411 104.002C181.874 99.7226 159.711 109.18 140.212 131.775C126.862 147.245 144.756 177.213 120.519 180.251C96.2808 183.288 53.5748 198.605 63.4586 225.192Z" fill="url(#paint1_linear_212_360)"/>
<path opacity="0.35" d="M362.03 203.343C365.978 213.975 376.787 213.227 385.199 220.827C447.967 277.536 472.017 264.843 513.7 254.373C531.771 249.833 575.545 220.827 575.545 220.827C575.545 220.827 604.432 221.913 615.467 210.123C621.426 203.756 623.63 198.673 625.448 190.141L625.513 189.837C627.857 178.84 629.929 169.121 621.883 161.239C613.874 153.393 610.655 144.831 593.367 158.028C576.079 171.225 580.446 150.58 571.267 148.751C548.902 144.293 534.006 180.149 515.661 166.591C505.393 159.004 509.553 146.856 501.046 137.333C490.699 125.75 481.832 119.936 466.47 117.708C445.62 114.684 429.975 121.367 416.21 137.333C406.787 148.264 419.418 169.441 402.309 171.587C385.199 173.733 355.053 184.556 362.03 203.343Z" fill="url(#paint2_linear_212_360)"/>
<path opacity="0.35" d="M122.892 140.41C126.842 151.05 138.776 149.219 146.073 157.907C186.932 206.553 285.245 195.385 336.517 157.907C349.56 148.373 376.461 147.194 376.461 147.194C376.461 147.194 384.627 135.736 386.447 127.198L386.512 126.893C388.857 115.887 390.93 106.161 382.88 98.2734C374.867 90.4214 365.163 98.0265 354.349 95.0597C345.319 92.582 341.421 87.6064 332.238 85.7754C320.963 83.5274 317.081 116.847 302.708 98.2734C288.335 79.6995 285.709 110.361 276.602 103.63C266.33 96.0364 270.492 83.8788 261.98 74.3486C251.628 62.757 242.756 56.9386 227.387 54.7088C206.525 51.6823 190.872 58.3701 177.101 74.3486C167.672 85.2882 171.361 96.7173 163.192 108.629C151.851 125.164 115.911 121.608 122.892 140.41Z" fill="url(#paint3_linear_212_360)"/>
<path opacity="0.35" d="M473.892 250.467C477.842 261.114 487.26 262.288 497.073 267.976C547.951 297.469 590.625 224.419 645.791 244.75C663.286 251.197 668.958 266.228 687.517 267.976C703.595 269.49 727.461 257.256 727.461 257.256C727.461 257.256 735.627 245.791 737.447 237.246L737.512 236.941C739.857 225.928 741.93 216.196 733.88 208.303C725.867 200.446 716.163 208.056 705.349 205.087C696.319 202.608 692.421 197.629 683.238 195.796C660.861 191.332 645.958 227.24 627.602 213.663C617.33 206.064 621.492 193.899 612.98 184.362C602.628 172.763 593.756 166.941 578.387 164.709C557.525 161.681 541.872 168.373 528.101 184.362C518.672 195.309 522.361 206.746 514.192 218.665C502.851 235.211 466.911 231.653 473.892 250.467Z" fill="url(#paint4_linear_212_360)"/>
<path opacity="0.35" d="M538.892 305.681C542.842 316.231 552.26 317.394 562.073 323.031C612.951 352.255 655.625 279.87 710.791 300.016C728.286 306.405 733.958 321.299 752.517 323.031C768.595 324.531 792.461 312.408 792.461 312.408C792.461 312.408 800.627 301.047 802.447 292.58L802.512 292.278C804.857 281.365 806.93 271.721 798.88 263.9C790.867 256.114 781.163 263.655 770.349 260.713C761.319 258.257 757.421 253.323 748.238 251.507C725.861 247.084 710.958 282.665 692.602 269.211C682.33 261.682 686.492 249.627 677.98 240.177C667.628 228.683 658.756 222.914 643.387 220.703C622.525 217.702 606.872 224.333 593.101 240.177C583.672 251.024 587.361 262.357 579.192 274.168C567.851 290.564 531.911 287.038 538.892 305.681Z" fill="url(#paint5_linear_212_360)"/>
<path opacity="0.5" d="M257.518 190.766C256.065 191.24 254.159 191.306 251.653 190.829C249.78 190.472 252 190.485 257.518 190.766C268.357 187.227 253.892 160.921 274.376 167.601C297.604 175.175 274.376 132.759 314.772 144.373C302.653 140.889 329.416 84.7881 377.387 115.085C399.1 135.789 409.704 70.6493 432.427 122.66C455.15 174.67 465.319 135.961 487.467 140.333C498.986 142.607 485.438 157.859 497.061 159.522C506.337 160.848 499.878 130.513 540.993 147.908C554.121 153.462 542.8 178.317 549.072 180.225C569.254 186.363 588.509 162.765 607.647 171.64C722.794 225.045 314.474 193.665 257.518 190.766Z" fill="url(#paint6_linear_212_360)"/>
<path opacity="0.35" d="M201.263 312.192C206.856 327.238 223.753 324.649 234.085 336.935C291.935 405.725 431.136 389.931 503.731 336.935C522.199 323.453 560.286 321.786 560.286 321.786C560.286 321.786 571.849 305.583 574.425 293.508L574.517 293.078C577.838 277.514 580.773 263.761 569.376 252.607C558.029 241.503 544.29 252.258 528.979 248.062C516.193 244.559 510.674 237.523 497.672 234.933C481.708 231.755 476.211 278.872 455.86 252.607C435.51 226.342 431.793 269.7 418.899 260.181C404.354 249.443 410.246 232.252 398.196 218.775C383.538 202.383 370.977 194.155 349.215 191.002C319.678 186.723 297.515 196.18 278.016 218.775C264.666 234.245 269.89 250.406 258.323 267.251C242.266 290.633 191.379 285.604 201.263 312.192Z" fill="url(#paint7_linear_212_360)"/>
<path opacity="0.35" d="M418.263 374.192C423.856 389.238 437.191 390.896 451.085 398.935C523.121 440.612 583.543 337.382 661.651 366.112C686.422 375.224 694.454 396.465 720.731 398.935C743.496 401.074 777.286 383.786 777.286 383.786C777.286 383.786 788.849 367.583 791.425 355.508L791.517 355.078C794.838 339.514 797.773 325.761 786.376 314.607C775.029 303.503 761.29 314.258 745.979 310.062C733.193 306.559 727.674 299.523 714.672 296.933C682.99 290.624 661.888 341.368 635.899 322.181C621.354 311.443 627.246 294.252 615.196 280.775C600.538 264.383 587.977 256.155 566.215 253.002C536.678 248.723 514.515 258.18 495.016 280.775C481.666 296.245 486.89 312.406 475.323 329.251C459.266 352.633 408.379 347.604 418.263 374.192Z" fill="url(#paint8_linear_212_360)"/>
<path opacity="0.35" d="M556.393 408.651C561.986 423.697 575.321 425.355 589.215 433.394C661.251 475.072 721.673 371.842 799.781 400.572C824.552 409.683 832.583 430.924 858.861 433.394C881.626 435.534 915.416 418.245 915.416 418.245C915.416 418.245 926.979 402.043 929.555 389.968L929.647 389.537C932.968 373.974 935.903 360.22 924.505 349.066C913.159 337.963 899.42 348.717 884.109 344.522C871.323 341.018 865.804 333.982 852.802 331.393C821.119 325.084 800.018 375.828 774.029 356.641C759.484 345.903 765.376 328.711 753.325 315.234C738.668 298.843 726.107 290.615 704.345 287.462C674.808 283.182 652.645 292.639 633.146 315.234C619.796 330.704 625.02 346.866 613.453 363.71C597.396 387.093 546.509 382.064 556.393 408.651Z" fill="url(#paint9_linear_212_360)"/>
<defs>
<linearGradient id="paint0_linear_212_360" x1="188.04" y1="1.00227" x2="188.04" y2="146.934" gradientUnits="userSpaceOnUse">
<stop stop-color="white"/>
<stop offset="1" stop-color="white" stop-opacity="0"/>
</linearGradient>
<linearGradient id="paint1_linear_212_360" x1="250.04" y1="104.002" x2="250.04" y2="249.934" gradientUnits="userSpaceOnUse">
<stop stop-color="white"/>
<stop offset="1" stop-color="white" stop-opacity="0"/>
</linearGradient>
<linearGradient id="paint2_linear_212_360" x1="493.739" y1="117.708" x2="493.739" y2="220.827" gradientUnits="userSpaceOnUse">
<stop stop-color="white"/>
<stop offset="1" stop-color="white" stop-opacity="0"/>
</linearGradient>
<linearGradient id="paint3_linear_212_360" x1="254.669" y1="54.7088" x2="254.669" y2="157.907" gradientUnits="userSpaceOnUse">
<stop stop-color="white"/>
<stop offset="1" stop-color="white" stop-opacity="0"/>
</linearGradient>
<linearGradient id="paint4_linear_212_360" x1="605.669" y1="164.709" x2="605.669" y2="267.976" gradientUnits="userSpaceOnUse">
<stop stop-color="white"/>
<stop offset="1" stop-color="white" stop-opacity="0"/>
</linearGradient>
<linearGradient id="paint5_linear_212_360" x1="670.669" y1="220.703" x2="670.669" y2="323.031" gradientUnits="userSpaceOnUse">
<stop stop-color="white"/>
<stop offset="1" stop-color="white" stop-opacity="0"/>
</linearGradient>
<linearGradient id="paint6_linear_212_360" x1="429.65" y1="115.085" x2="429.65" y2="190.829" gradientUnits="userSpaceOnUse">
<stop stop-color="white"/>
<stop offset="1" stop-color="white" stop-opacity="0"/>
</linearGradient>
<linearGradient id="paint7_linear_212_360" x1="387.844" y1="191.002" x2="387.844" y2="336.934" gradientUnits="userSpaceOnUse">
<stop stop-color="white"/>
<stop offset="1" stop-color="white" stop-opacity="0"/>
</linearGradient>
<linearGradient id="paint8_linear_212_360" x1="604.844" y1="253.002" x2="604.844" y2="398.935" gradientUnits="userSpaceOnUse">
<stop stop-color="white"/>
<stop offset="1" stop-color="white" stop-opacity="0"/>
</linearGradient>
<linearGradient id="paint9_linear_212_360" x1="742.974" y1="287.462" x2="742.974" y2="433.394" gradientUnits="userSpaceOnUse">
<stop stop-color="white"/>
<stop offset="1" stop-color="white" stop-opacity="0"/>
</linearGradient>
</defs>
</svg>
